SplineFontDB: 3.0
FontName: Asul-Bold
FullName: Asul Bold
FamilyName: Asul
Weight: Bold
Copyright: Copyright (c) 2011, Mariela Monsalve (marmonsalve@gmail.com), with Reserved Font Name "Asul"
Version: 1.001
ItalicAngle: 0
UnderlinePosition: -50
UnderlineWidth: 50
Ascent: 800
Descent: 200
sfntRevision: 0x00010042
LayerCount: 2
Layer: 0 1 "Back"  1
Layer: 1 1 "Fore"  0
XUID: [1021 252 1411137328 4574770]
FSType: 0
OS2Version: 2
OS2_WeightWidthSlopeOnly: 0
OS2_UseTypoMetrics: 1
CreationTime: 1324165720
ModificationTime: 1324194835
PfmFamily: 17
TTFWeight: 700
TTFWidth: 5
LineGap: 0
VLineGap: 0
Panose: 2 0 0 0 0 0 0 0 0 0
OS2TypoAscent: 149
OS2TypoAOffset: 1
OS2TypoDescent: -64
OS2TypoDOffset: 1
OS2TypoLinegap: 0
OS2WinAscent: 0
OS2WinAOffset: 1
OS2WinDescent: 0
OS2WinDOffset: 1
HheadAscent: 0
HheadAOffset: 1
HheadDescent: 0
HheadDOffset: 1
OS2SubXSize: 700
OS2SubYSize: 650
OS2SubXOff: 0
OS2SubYOff: 140
OS2SupXSize: 700
OS2SupYSize: 650
OS2SupXOff: 0
OS2SupYOff: 477
OS2StrikeYSize: 50
OS2StrikeYPos: 250
OS2Vendor: 'pyrs'
OS2CodePages: 00000001.00000000
OS2UnicodeRanges: 00000023.00000000.00000000.00000000
Lookup: 258 0 0 "'kern' Horizontal Kerning in Latin lookup 0"  {"'kern' Horizontal Kerning in Latin lookup 0 subtable"  } ['kern' ('DFLT' <'dflt' > 'latn' <'dflt' > ) ]
DEI: 91125
TtTable: prep
PUSHW_1
 511
SCANCTRL
PUSHB_1
 4
SCANTYPE
EndTTInstrs
ShortTable: maxp 16
  1
  0
  244
  76
  5
  0
  0
  2
  0
  1
  1
  0
  64
  0
  0
  0
EndShort
LangName: 1033 "" "" "" "MarielaMonsalve: Asul Bold: 2011" "" "Version 1.001" "" "Asul is a trademark of Mariela Monsalve" "Mariela Monsalve" "Mariela Monsalve" "" "" "www.mukamonsalve.com.ar" "This Font Software is licensed under the SIL Open Font License, Version 1.1. This license is available with a FAQ at: http://scripts.sil.org/OFL" "http://scripts.sil.org/OFL" 
GaspTable: 1 65535 15 1
Encoding: UnicodeBmp
UnicodeInterp: none
NameList: Adobe Glyph List
DisplaySize: -24
AntiAlias: 1
FitToEm: 1
BeginChars: 65549 244

StartChar: exclam
Encoding: 33 33 4
Width: 306
GlyphClass: 2
Flags: W
LayerCount: 2
Fore
SplineSet
210 197 m 1,0,-1
 101 181 l 1,1,2
 101 406 101 406 92 583 c 1,3,4
 86 649 86 649 50 672 c 1,5,-1
 50 689 l 1,6,-1
 222 716 l 1,7,-1
 235 697 l 1,8,9
 228 657 228 657 219 435 c 128,-1,10
 210 213 210 213 210 197 c 1,0,-1
97 94 m 1,11,-1
 106 102 l 1,12,13
 162 120 162 120 216 120 c 1,14,-1
 227 114 l 1,15,16
 236 106 236 106 239.5 80 c 128,-1,17
 243 54 243 54 243 40 c 128,-1,18
 243 26 243 26 241 15 c 1,19,-1
 232 7 l 1,20,21
 183 -7 183 -7 125 -11 c 1,22,23
 125 -11 125 -11 114 -6 c 1,24,25
 106 8 106 8 101 35.5 c 128,-1,26
 96 63 96 63 96 75.5 c 128,-1,27
 96 88 96 88 97 94 c 1,11,-1
EndSplineSet
EndChar

StartChar: quotedbl
Encoding: 34 34 5
Width: 507
GlyphClass: 2
Flags: W
LayerCount: 2
Fore
SplineSet
220 687 m 1,0,1
 228 675 228 675 228 642.5 c 128,-1,2
 228 610 228 610 216.5 530 c 128,-1,3
 205 450 205 450 194 422 c 1,4,-1
 132 422 l 1,5,6
 126 436 126 436 116 492 c 0,7,8
 99 590 99 590 99 631 c 128,-1,9
 99 672 99 672 107 686 c 1,10,-1
 123 698 l 1,11,12
 142 704 142 704 165 704 c 128,-1,13
 188 704 188 704 206 698 c 1,14,-1
 220 687 l 1,0,1
400 687 m 1,15,16
 408 675 408 675 408 642.5 c 128,-1,17
 408 610 408 610 396.5 530 c 128,-1,18
 385 450 385 450 374 422 c 1,19,-1
 312 422 l 1,20,21
 306 436 306 436 296 492 c 0,22,23
 279 590 279 590 279 631 c 128,-1,24
 279 672 279 672 287 686 c 1,25,-1
 303 698 l 1,26,27
 323 704 323 704 345.5 704 c 128,-1,28
 368 704 368 704 386 698 c 1,29,-1
 400 687 l 1,15,16
EndSplineSet
EndChar

StartChar: numbersign
Encoding: 35 35 6
Width: 609
GlyphClass: 2
Flags: W
LayerCount: 2
Fore
SplineSet
536 199 m 1,0,-1
 430 199 l 1,1,2
 426 171 426 171 425.5 162.5 c 128,-1,3
 425 154 425 154 406 -6 c 1,4,-1
 308 -6 l 1,5,-1
 306 8 l 1,6,7
 320 55 320 55 347 199 c 1,8,-1
 216 199 l 1,9,10
 211 159 211 159 211 156 c 2,11,-1
 191 -6 l 1,12,-1
 93 -6 l 1,13,-1
 91 8 l 1,14,15
 105 55 105 55 132 199 c 1,16,-1
 2 199 l 1,17,-1
 24 292 l 1,18,-1
 149 292 l 1,19,-1
 166 389 l 1,20,-1
 37 389 l 1,21,-1
 62 482 l 1,22,-1
 181 482 l 1,23,-1
 210 688 l 1,24,-1
 303 706 l 1,25,-1
 306 692 l 1,26,27
 297 662 297 662 290 632.5 c 128,-1,28
 283 603 283 603 262 482 c 1,29,-1
 396 482 l 1,30,-1
 425 688 l 1,31,-1
 518 706 l 1,32,-1
 520 692 l 1,33,34
 502 637 502 637 476 482 c 1,35,-1
 592 482 l 1,36,-1
 573 389 l 1,37,-1
 461 389 l 1,38,-1
 445 292 l 1,39,-1
 556 292 l 1,40,-1
 536 199 l 1,0,-1
247 389 m 1,41,42
 232 298 232 298 231 292 c 1,43,-1
 364 292 l 1,44,-1
 381 389 l 1,45,-1
 247 389 l 1,41,42
EndSplineSet
EndChar

StartChar: dollar
Encoding: 36 36 7
Width: 621
GlyphClass: 2
Flags: W
LayerCount: 2
Fore
SplineSet
561 197 m 0,0,1
 561 106 561 106 503 54 c 128,-1,2
 445 2 445 2 345 -9 c 1,3,4
 345 -71 345 -71 349 -115 c 1,5,-1
 269 -131 l 1,6,-1
 264 -117 l 1,7,8
 270 -75 270 -75 274 -12 c 1,9,10
 151 -7 151 -7 54 58 c 1,11,12
 57 129 57 129 110 193 c 1,13,14
 186 111 186 111 276 82 c 1,15,-1
 276 310 l 1,16,17
 246 323 246 323 233 328.5 c 128,-1,18
 220 334 220 334 193 347.5 c 128,-1,19
 166 361 166 361 153 371 c 128,-1,20
 140 381 140 381 121 398.5 c 128,-1,21
 102 416 102 416 93 433 c 0,22,23
 70 476 70 476 70 526 c 0,24,25
 70 610 70 610 127.5 655.5 c 128,-1,26
 185 701 185 701 276 710 c 1,27,28
 274 764 274 764 272 792 c 1,29,-1
 348 818 l 1,30,-1
 353 804 l 1,31,32
 346 744 346 744 345 711 c 1,33,34
 444 704 444 704 542 662 c 1,35,36
 531 588 531 588 491 521 c 1,37,38
 419 586 419 586 345 612 c 1,39,-1
 345 420 l 1,40,41
 387 403 387 403 407.5 394 c 128,-1,42
 428 385 428 385 463 364 c 128,-1,43
 498 343 498 343 515.5 322.5 c 128,-1,44
 533 302 533 302 547 269 c 128,-1,45
 561 236 561 236 561 197 c 0,0,1
429 165 m 0,46,47
 429 233 429 233 345 278 c 1,48,-1
 345 72 l 1,49,50
 382 72 382 72 410 87 c 1,51,52
 429 112 429 112 429 165 c 0,46,47
193 553 m 0,53,54
 193 492 193 492 276 450 c 1,55,-1
 276 625 l 1,56,57
 244 625 244 625 211 611 c 1,58,59
 193 593 193 593 193 553 c 0,53,54
EndSplineSet
EndChar

StartChar: percent
Encoding: 37 37 8
Width: 851
GlyphClass: 2
Flags: W
LayerCount: 2
Fore
SplineSet
585 716 m 1,0,-1
 689 720 l 1,1,-1
 688 714 l 1,2,3
 646 654 646 654 543 481.5 c 128,-1,4
 440 309 440 309 394 226 c 1,5,-1
 267 -11 l 1,6,-1
 162 -19 l 1,7,-1
 163 -13 l 1,8,9
 204 46 204 46 305.5 218 c 128,-1,10
 407 390 407 390 457 479 c 1,11,-1
 585 716 l 1,0,-1
530.5 39.5 m 128,-1,13
 487 97 487 97 487 191 c 128,-1,14
 487 285 487 285 535 340.5 c 128,-1,15
 583 396 583 396 659 396 c 128,-1,16
 735 396 735 396 773.5 340 c 128,-1,17
 812 284 812 284 812 194 c 128,-1,18
 812 104 812 104 768 43 c 128,-1,19
 724 -18 724 -18 649 -18 c 128,-1,12
 574 -18 574 -18 530.5 39.5 c 128,-1,13
718 180 m 0,20,21
 718 330 718 330 644 330 c 0,22,23
 615 330 615 330 602 315 c 1,24,25
 581 277 581 277 581 208 c 0,26,27
 581 45 581 45 662 45 c 0,28,29
 685 45 685 45 696 62 c 1,30,31
 718 90 718 90 718 180 c 0,20,21
69.5 348.5 m 128,-1,33
 26 406 26 406 26 500 c 128,-1,34
 26 594 26 594 74 649.5 c 128,-1,35
 122 705 122 705 198 705 c 128,-1,36
 274 705 274 705 312.5 649 c 128,-1,37
 351 593 351 593 351 503 c 128,-1,38
 351 413 351 413 307 352 c 128,-1,39
 263 291 263 291 188 291 c 128,-1,32
 113 291 113 291 69.5 348.5 c 128,-1,33
257 489 m 0,40,41
 257 639 257 639 183 639 c 0,42,43
 154 639 154 639 141 624 c 1,44,45
 120 586 120 586 120 517 c 0,46,47
 120 354 120 354 201 354 c 0,48,49
 224 354 224 354 235 371 c 1,50,51
 257 399 257 399 257 489 c 0,40,41
EndSplineSet
EndChar

StartChar: ampersand
Encoding: 38 38 9
Width: 855
GlyphClass: 2
Flags: W
LayerCount: 2
Fore
SplineSet
672 323 m 0,0,1
 672 232 672 232 639 160 c 1,2,3
 744 98 744 98 859 41 c 1,4,-1
 775 -67 l 1,5,6
 680 0 680 0 579 75 c 1,7,8
 490 -11 490 -11 338 -11 c 128,-1,9
 186 -11 186 -11 113 54 c 128,-1,10
 40 119 40 119 40 220 c 0,11,12
 40 304 40 304 81 350.5 c 128,-1,13
 122 397 122 397 176 415 c 1,14,15
 113 491 113 491 113 571 c 0,16,17
 113 711 113 711 318 711 c 0,18,19
 383 711 383 711 445.5 698.5 c 128,-1,20
 508 686 508 686 532 677 c 1,21,22
 529 650 529 650 520 621 c 128,-1,23
 511 592 511 592 479 554 c 1,24,25
 374 636 374 636 311 636 c 0,26,27
 276 636 276 636 255 615 c 128,-1,28
 234 594 234 594 234 561 c 0,29,30
 234 464 234 464 425 313 c 0,31,32
 501 254 501 254 561 212 c 1,33,34
 567 245 567 245 567 295 c 128,-1,35
 567 345 567 345 551 394 c 1,36,-1
 437 396 l 1,37,-1
 492 467 l 1,38,39
 572 461 572 461 611 461 c 1,40,-1
 765 465 l 1,41,-1
 731 394 l 1,42,-1
 668 394 l 1,43,44
 672 360 672 360 672 323 c 0,0,1
226 359 m 1,45,46
 179 317 179 317 179 244 c 128,-1,47
 179 171 179 171 227.5 119 c 128,-1,48
 276 67 276 67 359.5 67 c 128,-1,49
 443 67 443 67 502 107 c 0,50,51
 507 110 507 110 516 119 c 1,52,53
 388 214 388 214 338.5 254 c 128,-1,54
 289 294 289 294 226 359 c 1,45,46
EndSplineSet
EndChar

StartChar: quotesingle
Encoding: 39 39 10
Width: 318
GlyphClass: 2
Flags: W
LayerCount: 2
Fore
SplineSet
216 687 m 1,0,1
 224 675 224 675 224 642.5 c 128,-1,2
 224 610 224 610 212.5 530 c 128,-1,3
 201 450 201 450 190 422 c 1,4,-1
 128 422 l 1,5,6
 122 436 122 436 112 492 c 0,7,8
 95 590 95 590 95 631 c 128,-1,9
 95 672 95 672 103 686 c 1,10,-1
 119 698 l 1,11,12
 139 704 139 704 161.5 704 c 128,-1,13
 184 704 184 704 202 698 c 1,14,-1
 216 687 l 1,0,1
EndSplineSet
EndChar

StartChar: parenleft
Encoding: 40 40 11
Width: 449
GlyphClass: 2
Flags: W
LayerCount: 2
Fore
SplineSet
247 13 m 128,-1,1
 299 -80 299 -80 417 -127 c 1,2,3
 414 -147 414 -147 394 -181 c 1,4,-1
 385 -184 l 1,5,6
 252 -138 252 -138 162.5 -19 c 128,-1,7
 73 100 73 100 73 276 c 0,8,9
 73 549 73 549 250 684 c 0,10,11
 313 732 313 732 385 757 c 1,12,-1
 394 754 l 1,13,14
 412 720 412 720 417 699 c 1,15,16
 288 649 288 649 238 531 c 0,17,18
 195 429 195 429 195 267.5 c 128,-1,0
 195 106 195 106 247 13 c 128,-1,1
EndSplineSet
EndChar

StartChar: parenright
Encoding: 41 41 12
Width: 449
GlyphClass: 2
Flags: W
LayerCount: 2
Fore
SplineSet
200 684 m 0,0,1
 376 549 376 549 376 276 c 0,2,3
 376 100 376 100 286.5 -19 c 128,-1,4
 197 -138 197 -138 64 -184 c 1,5,-1
 55 -181 l 1,6,7
 35 -147 35 -147 32 -127 c 1,8,9
 150 -80 150 -80 202 13 c 128,-1,10
 254 106 254 106 254 278 c 0,11,12
 254 524 254 524 142 631 c 0,13,14
 97 674 97 674 32 699 c 1,15,16
 37 720 37 720 55 754 c 1,17,-1
 64 757 l 1,18,19
 136 732 136 732 200 684 c 0,0,1
EndSplineSet
EndChar

StartChar: asterisk
Encoding: 42 42 13
Width: 426
GlyphClass: 2
Flags: W
LayerCount: 2
Fore
SplineSet
249 340 m 1,0,1
 237 394 237 394 213 449 c 1,2,3
 191 401 191 401 177 340 c 1,4,-1
 162 321 l 1,5,-1
 63 388 l 1,6,-1
 73 409 l 1,7,8
 126 438 126 438 163 478 c 1,9,10
 105 469 105 469 59 443 c 1,11,-1
 38 447 l 1,12,-1
 37 567 l 1,13,-1
 60 568 l 1,14,15
 111 552 111 552 162 545 c 1,16,17
 100 602 100 602 74 614 c 1,18,-1
 66 636 l 1,19,-1
 150 696 l 1,20,-1
 170 678 l 1,21,22
 185 621 185 621 213 571 c 1,23,24
 244 625 244 625 256 678 c 1,25,-1
 276 696 l 1,26,-1
 360 636 l 1,27,-1
 352 614 l 1,28,29
 324 600 324 600 264 545 c 1,30,31
 315 552 315 552 366 568 c 1,32,-1
 389 567 l 1,33,-1
 388 447 l 1,34,-1
 366 443 l 1,35,36
 324 468 324 468 263 478 c 1,37,38
 306 433 306 433 353 409 c 1,39,-1
 363 388 l 1,40,-1
 264 321 l 1,41,-1
 249 340 l 1,0,1
EndSplineSet
EndChar

StartChar: plus
Encoding: 43 43 14
Width: 648
GlyphClass: 2
Flags: W
LayerCount: 2
Fore
SplineSet
372 352 m 1,0,-1
 606 352 l 1,1,-1
 605 265 l 1,2,-1
 372 265 l 1,3,-1
 372 45 l 1,4,-1
 267 45 l 1,5,-1
 267 265 l 1,6,-1
 42 265 l 1,7,-1
 43 353 l 1,8,-1
 267 352 l 1,9,-1
 268 565 l 1,10,-1
 372 564 l 1,11,-1
 372 352 l 1,0,-1
EndSplineSet
EndChar

StartChar: comma
Encoding: 44 44 15
Width: 302
GlyphClass: 2
Flags: W
LayerCount: 2
Fore
SplineSet
210 96 m 0,0,1
 222 72 222 72 222 36.5 c 128,-1,2
 222 1 222 1 213 -26.5 c 128,-1,3
 204 -54 204 -54 182 -85 c 1,4,5
 156 -124 156 -124 106 -180 c 1,6,-1
 32 -155 l 1,7,8
 63 -106 63 -106 76 -70 c 128,-1,9
 89 -34 89 -34 89 6 c 128,-1,10
 89 46 89 46 68 80 c 1,11,-1
 73 94 l 1,12,13
 123 113 123 113 182 113 c 0,14,15
 189 113 189 113 195 112 c 1,16,17
 210 97 210 97 210 96 c 0,0,1
EndSplineSet
EndChar

StartChar: hyphen
Encoding: 45 45 16
Width: 362
GlyphClass: 2
Flags: W
LayerCount: 2
Fore
SplineSet
53 325 m 1,0,1
 93 316 93 316 140 316 c 2,2,-1
 222 317 l 2,3,4
 244 317 244 317 290.5 319 c 128,-1,5
 337 321 337 321 361 321 c 1,6,-1
 323 222 l 1,7,-1
 309 222 l 1,8,9
 241 231 241 231 135 231 c 1,10,-1
 1 225 l 1,11,-1
 39 325 l 1,12,-1
 53 325 l 1,0,1
EndSplineSet
EndChar

StartChar: period
Encoding: 46 46 17
Width: 341
GlyphClass: 2
Flags: W
LayerCount: 2
Fore
SplineSet
252 135 m 1,0,1
 262 125 262 125 266 95 c 128,-1,2
 270 65 270 65 270 48.5 c 128,-1,3
 270 32 270 32 268 20 c 1,4,-1
 258 11 l 1,5,6
 213 -2 213 -2 124 -10 c 1,7,-1
 112 -4 l 1,8,9
 103 11 103 11 97.5 46 c 128,-1,10
 92 81 92 81 92 94.5 c 128,-1,11
 92 108 92 108 92 112 c 1,12,-1
 102 121 l 1,13,14
 166 142 166 142 229 142 c 0,15,16
 235 142 235 142 240 142 c 1,17,-1
 252 135 l 1,0,1
EndSplineSet
EndChar

StartChar: slash
Encoding: 47 47 18
Width: 374
GlyphClass: 2
Flags: W
LayerCount: 2
Fore
SplineSet
286 711 m 1,0,-1
 406 734 l 1,1,-1
 406 712 l 1,2,3
 365 635 365 635 275.5 414 c 128,-1,4
 186 193 186 193 153.5 107.5 c 128,-1,5
 121 22 121 22 85 -86 c 1,6,-1
 -46 -120 l 1,7,-1
 -46 -98 l 1,8,9
 -14 -40 -14 -40 75.5 172 c 128,-1,10
 165 384 165 384 199 473 c 1,11,-1
 286 711 l 1,0,-1
EndSplineSet
EndChar

StartChar: zero
Encoding: 48 48 19
Width: 742
GlyphClass: 2
Flags: W
LayerCount: 2
Fore
SplineSet
150.5 89.5 m 128,-1,1
 70 190 70 190 70 355.5 c 128,-1,2
 70 521 70 521 158 617.5 c 128,-1,3
 246 714 246 714 387.5 714 c 128,-1,4
 529 714 529 714 600.5 616 c 128,-1,5
 672 518 672 518 672 359.5 c 128,-1,6
 672 201 672 201 591 95 c 128,-1,7
 510 -11 510 -11 381 -11 c 0,8,0
 231 -11 231 -11 150.5 89.5 c 128,-1,1
514 196.5 m 128,-1,10
 528 265 528 265 528 332.5 c 128,-1,11
 528 400 528 400 520.5 450 c 128,-1,12
 513 500 513 500 495 542 c 0,13,14
 458 629 458 629 361 629 c 0,15,16
 333 629 333 629 305.5 621 c 128,-1,17
 278 613 278 613 266 602 c 1,18,19
 244 573 244 573 229 508.5 c 128,-1,20
 214 444 214 444 214 389.5 c 128,-1,21
 214 335 214 335 219 292.5 c 128,-1,22
 224 250 224 250 236.5 208.5 c 128,-1,23
 249 167 249 167 269 138 c 0,24,25
 314 73 314 73 395 73 c 0,26,27
 412 73 412 73 437.5 81 c 128,-1,28
 463 89 463 89 475 103 c 1,29,9
 500 128 500 128 514 196.5 c 128,-1,10
EndSplineSet
EndChar

StartChar: one
Encoding: 49 49 20
Width: 423
GlyphClass: 2
Flags: W
LayerCount: 2
Fore
SplineSet
299 220 m 2,0,1
 299 82 299 82 315 22 c 1,2,-1
 315 0 l 1,3,-1
 149 0 l 1,4,-1
 149 22 l 1,5,6
 165 82 165 82 165 220 c 2,7,-1
 165 506 l 2,8,9
 165 574 165 574 162 591 c 1,10,11
 103 579 103 579 31 576 c 1,12,-1
 20 633 l 1,13,14
 131 652 131 652 203 700 c 1,15,-1
 304 700 l 1,16,-1
 299 582 l 1,17,-1
 299 220 l 2,0,1
EndSplineSet
EndChar

StartChar: two
Encoding: 50 50 21
Width: 590
GlyphClass: 2
Flags: W
LayerCount: 2
Fore
SplineSet
366 543 m 0,0,1
 366 637 366 637 284 637 c 0,2,3
 223 637 223 637 101 542 c 1,4,5
 52 595 52 595 45 661 c 1,6,7
 182 712 182 712 288.5 712 c 128,-1,8
 395 712 395 712 452.5 668.5 c 128,-1,9
 510 625 510 625 510 550 c 0,10,11
 510 445 510 445 402 311 c 0,12,13
 348 245 348 245 303.5 198 c 128,-1,14
 259 151 259 151 192 85 c 1,15,16
 255 85 255 85 279 86 c 0,17,18
 459 92 459 92 522 141 c 1,19,-1
 549 122 l 1,20,-1
 502 0 l 1,21,-1
 63 0 l 1,22,-1
 39 57 l 1,23,24
 96 113 96 113 131.5 149 c 128,-1,25
 167 185 167 185 216.5 243 c 128,-1,26
 266 301 266 301 294.5 345.5 c 128,-1,27
 323 390 323 390 344.5 443.5 c 128,-1,28
 366 497 366 497 366 543 c 0,0,1
EndSplineSet
EndChar

StartChar: three
Encoding: 51 51 22
Width: 563
GlyphClass: 2
Flags: W
LayerCount: 2
Fore
SplineSet
446.5 54.5 m 128,-1,1
 375 -10 375 -10 249.5 -10 c 128,-1,2
 124 -10 124 -10 18 45 c 1,3,-1
 18 51 l 2,4,5
 18 101 18 101 59 144 c 1,6,7
 172 65 172 65 250 65 c 2,8,-1
 255 65 l 2,9,10
 307 65 307 65 335 81 c 1,11,12
 379 122 379 122 379 213 c 0,13,14
 379 282 379 282 348.5 310.5 c 128,-1,15
 318 339 318 339 249 339 c 128,-1,16
 180 339 180 339 152 335 c 1,17,-1
 132 335 l 1,18,-1
 109 411 l 1,19,-1
 218 411 l 2,20,21
 268 411 268 411 300 449.5 c 128,-1,22
 332 488 332 488 332 538 c 0,23,24
 332 641 332 641 257 641 c 0,25,26
 190 641 190 641 93 565 c 1,27,28
 54 618 54 618 46 679 c 1,29,30
 162 712 162 712 267 712 c 0,31,32
 466 712 466 712 466 562 c 0,33,34
 466 502 466 502 435.5 458.5 c 128,-1,35
 405 415 405 415 363 394 c 1,36,37
 518 361 518 361 518 218 c 0,38,0
 518 119 518 119 446.5 54.5 c 128,-1,1
EndSplineSet
EndChar

StartChar: four
Encoding: 52 52 23
Width: 632
GlyphClass: 2
Flags: W
LayerCount: 2
Fore
SplineSet
467 187 m 1,0,1
 467 97 467 97 479 22 c 1,2,-1
 479 0 l 1,3,-1
 326 0 l 1,4,-1
 326 22 l 1,5,6
 338 96 338 96 338 177 c 2,7,-1
 338 187 l 1,8,9
 119 187 119 187 44 186 c 1,10,-1
 16 241 l 1,11,12
 131 435 131 435 315 699 c 1,13,-1
 470 714 l 1,14,15
 465 607 465 607 465 274 c 1,16,-1
 579 280 l 1,17,-1
 558 187 l 1,18,-1
 467 187 l 1,0,1
340 272 m 1,19,20
 341 389 341 389 341 464.5 c 128,-1,21
 341 540 341 540 341 586 c 1,22,23
 199 382 199 382 133 269 c 1,24,25
 242 269 242 269 340 272 c 1,19,20
EndSplineSet
EndChar

StartChar: five
Encoding: 53 53 24
Width: 601
GlyphClass: 2
Flags: W
LayerCount: 2
Fore
SplineSet
414 213 m 0,0,1
 414 332 414 332 244 343 c 2,2,-1
 111 352 l 1,3,-1
 86 379 l 1,4,5
 103 506 103 506 141 698 c 1,6,-1
 495 703 l 1,7,-1
 520 557 l 1,8,-1
 501 557 l 1,9,10
 469 585 469 585 409.5 601.5 c 128,-1,11
 350 618 350 618 282 618 c 2,12,-1
 230 618 l 1,13,14
 209 554 209 554 190 430 c 1,15,16
 302 425 302 425 344.5 419.5 c 128,-1,17
 387 414 387 414 428 400.5 c 128,-1,18
 469 387 469 387 494 366 c 0,19,20
 553 318 553 318 553 221.5 c 128,-1,21
 553 125 553 125 476.5 57 c 128,-1,22
 400 -11 400 -11 275 -11 c 128,-1,23
 150 -11 150 -11 14 56 c 1,24,25
 18 77 18 77 37 110.5 c 128,-1,26
 56 144 56 144 74 160 c 1,27,28
 202 68 202 68 300 68 c 0,29,30
 346 68 346 68 376 81 c 1,31,32
 394 102 394 102 404 140.5 c 128,-1,33
 414 179 414 179 414 213 c 0,0,1
EndSplineSet
EndChar

StartChar: six
Encoding: 54 54 25
Width: 656
GlyphClass: 2
Flags: W
LayerCount: 2
Fore
SplineSet
526 411 m 0,0,1
 559 388 559 388 579 344.5 c 128,-1,2
 599 301 599 301 599 242 c 0,3,4
 599 131 599 131 531 60.5 c 128,-1,5
 463 -10 463 -10 338 -10 c 128,-1,6
 213 -10 213 -10 141.5 61 c 128,-1,7
 70 132 70 132 70 281 c 0,8,9
 70 490 70 490 226 609 c 0,10,11
 280 649 280 649 353.5 677.5 c 128,-1,12
 427 706 427 706 491 714 c 1,13,-1
 504 657 l 1,14,15
 369 616 369 616 303 546 c 0,16,17
 255 494 255 494 231 412 c 1,18,19
 298 455 298 455 380.5 455 c 128,-1,20
 463 455 463 455 526 411 c 0,0,1
214 254 m 0,21,22
 214 155 214 155 242.5 108.5 c 128,-1,23
 271 62 271 62 343 62 c 0,24,25
 396 62 396 62 418 76 c 1,26,27
 434 95 434 95 444.5 135 c 128,-1,28
 455 175 455 175 455 234.5 c 128,-1,29
 455 294 455 294 426 330.5 c 128,-1,30
 397 367 397 367 341.5 367 c 128,-1,31
 286 367 286 367 216 320 c 1,32,33
 214 280 214 280 214 254 c 0,21,22
EndSplineSet
EndChar

StartChar: seven
Encoding: 55 55 26
Width: 504
GlyphClass: 2
Flags: W
LayerCount: 2
Fore
SplineSet
251 700 m 2,0,-1
 508 701 l 1,1,-1
 511 689 l 1,2,3
 491 655 491 655 367 342 c 0,4,5
 285 135 285 135 262 -3 c 1,6,-1
 81 -3 l 1,7,-1
 77 19 l 1,8,9
 178 187 178 187 257 352.5 c 128,-1,10
 336 518 336 518 375 614 c 1,11,12
 303 617 303 617 272 617 c 0,13,14
 130 617 130 617 67 559 c 1,15,-1
 50 559 l 1,16,-1
 21 704 l 1,17,18
 161 700 161 700 251 700 c 2,0,-1
EndSplineSet
EndChar

StartChar: eight
Encoding: 56 56 27
Width: 636
GlyphClass: 2
Flags: W
LayerCount: 2
Fore
SplineSet
551 544 m 0,0,1
 551 439 551 439 433 367 c 1,2,3
 515 320 515 320 549.5 282.5 c 128,-1,4
 584 245 584 245 584 185 c 0,5,6
 584 92 584 92 509 40.5 c 128,-1,7
 434 -11 434 -11 319 -11 c 128,-1,8
 204 -11 204 -11 128 39.5 c 128,-1,9
 52 90 52 90 52 183 c 0,10,11
 52 310 52 310 202 365 c 1,12,13
 146 400 146 400 120 438 c 128,-1,14
 94 476 94 476 94 530 c 0,15,16
 94 618 94 618 156.5 665 c 128,-1,17
 219 712 219 712 321.5 712 c 128,-1,18
 424 712 424 712 487.5 671.5 c 128,-1,19
 551 631 551 631 551 544 c 0,0,1
440 167 m 0,20,21
 440 210 440 210 406 242 c 128,-1,22
 372 274 372 274 278 322 c 1,23,24
 196 285 196 285 196 195 c 0,25,26
 196 70 196 70 325 70 c 0,27,28
 376 70 376 70 405 82 c 1,29,30
 440 106 440 106 440 167 c 0,20,21
225 547 m 0,31,32
 225 508 225 508 252.5 478.5 c 128,-1,33
 280 449 280 449 360 409 c 1,34,35
 420 453 420 453 420 538 c 0,36,37
 420 647 420 647 318 647 c 0,38,39
 281 647 281 647 255 635 c 1,40,41
 225 609 225 609 225 547 c 0,31,32
EndSplineSet
EndChar

StartChar: nine
Encoding: 57 57 28
Width: 657
GlyphClass: 2
Flags: W
LayerCount: 2
Fore
SplineSet
130 276 m 0,0,1
 97 300 97 300 77.5 345 c 128,-1,2
 58 390 58 390 58 451 c 0,3,4
 58 568 58 568 127 639.5 c 128,-1,5
 196 711 196 711 319.5 711 c 128,-1,6
 443 711 443 711 515 638 c 128,-1,7
 587 565 587 565 587 412 c 0,8,9
 587 188 587 188 424 71 c 1,10,11
 336 10 336 10 169 -12 c 1,12,-1
 152 45 l 1,13,14
 210 55 210 55 264.5 81 c 128,-1,15
 319 107 319 107 358 148.5 c 128,-1,16
 397 190 397 190 420 264 c 1,17,18
 348 231 348 231 271 231 c 128,-1,19
 194 231 194 231 130 276 c 0,0,1
443 441 m 0,20,21
 443 543 443 543 414.5 590 c 128,-1,22
 386 637 386 637 314 637 c 0,23,24
 264 637 264 637 240 623 c 1,25,26
 202 574 202 574 202 472 c 0,27,28
 202 321 202 321 317 321 c 0,29,30
 374 321 374 321 438 351 c 1,31,32
 443 418 443 418 443 441 c 0,20,21
EndSplineSet
EndChar

StartChar: colon
Encoding: 58 58 29
Width: 343
GlyphClass: 2
Flags: W
LayerCount: 2
Fore
SplineSet
223 456 m 1,1,2
 239 442 239 442 239 391 c 0,3,4
 239 378 239 378 237 367 c 1,5,-1
 228 359 l 1,6,7
 173 344 173 344 120 341 c 1,8,-1
 109 346 l 1,9,10
 92 376 92 376 92 425 c 0,11,12
 92 431 92 431 92 436 c 1,13,-1
 101 444 l 1,14,15
 158 462 158 462 207 462 c 0,16,0
 212 462 212 462 223 456 c 1,1,2
241 105 m 1,17,18
 257 91 257 91 257 40 c 0,19,20
 257 27 257 27 255 16 c 1,21,-1
 246 8 l 1,22,23
 191 -7 191 -7 138 -10 c 1,24,-1
 127 -5 l 1,25,26
 110 25 110 25 110 74 c 0,27,28
 110 80 110 80 110 85 c 1,29,-1
 119 93 l 1,30,31
 176 111 176 111 225 111 c 0,32,33
 230 111 230 111 241 105 c 1,17,18
EndSplineSet
EndChar

StartChar: semicolon
Encoding: 59 59 30
Width: 340
GlyphClass: 2
Flags: W
LayerCount: 2
Fore
SplineSet
230 96 m 0,0,1
 242 72 242 72 242 36.5 c 128,-1,2
 242 1 242 1 233 -26.5 c 128,-1,3
 224 -54 224 -54 202 -85 c 1,4,5
 176 -124 176 -124 126 -180 c 1,6,-1
 52 -155 l 1,7,8
 83 -106 83 -106 96 -70 c 128,-1,9
 109 -34 109 -34 109 6 c 128,-1,10
 109 46 109 46 88 80 c 1,11,-1
 93 94 l 1,12,13
 143 113 143 113 202 113 c 0,14,15
 209 113 209 113 215 112 c 1,16,17
 230 97 230 97 230 96 c 0,0,1
189 451 m 1,18,19
 205 437 205 437 205 386 c 0,20,21
 205 373 205 373 203 362 c 1,22,-1
 194 354 l 1,23,24
 139 339 139 339 86 336 c 1,25,-1
 75 341 l 1,26,27
 58 371 58 371 58 420 c 0,28,29
 58 426 58 426 58 431 c 1,30,-1
 67 439 l 1,31,32
 124 457 124 457 173 457 c 0,33,34
 178 457 178 457 189 451 c 1,18,19
EndSplineSet
EndChar

StartChar: less
Encoding: 60 60 31
Width: 536
GlyphClass: 2
Flags: W
LayerCount: 2
Fore
SplineSet
526 136 m 1,0,-1
 526 45 l 1,1,-1
 10 287 l 1,2,-1
 10 357 l 1,3,-1
 526 600 l 1,4,-1
 526 508 l 1,5,-1
 128 322 l 1,6,-1
 526 136 l 1,0,-1
EndSplineSet
EndChar

StartChar: equal
Encoding: 61 61 32
Width: 535
GlyphClass: 2
Flags: W
LayerCount: 2
Fore
SplineSet
525 414 m 1,0,-1
 524 327 l 1,1,-1
 10 327 l 1,2,-1
 11 415 l 1,3,-1
 525 414 l 1,0,-1
525 262 m 1,4,-1
 524 175 l 1,5,-1
 10 175 l 1,6,-1
 11 263 l 1,7,-1
 525 262 l 1,4,-1
EndSplineSet
EndChar

StartChar: greater
Encoding: 62 62 33
Width: 534
GlyphClass: 2
Flags: W
LayerCount: 2
Fore
SplineSet
9 45 m 1,0,-1
 9 136 l 1,1,-1
 407 322 l 1,2,-1
 9 508 l 1,3,-1
 9 600 l 1,4,-1
 525 357 l 1,5,-1
 525 287 l 1,6,-1
 9 45 l 1,0,-1
EndSplineSet
EndChar

StartChar: question
Encoding: 63 63 34
Width: 484
GlyphClass: 2
Flags: W
LayerCount: 2
Fore
SplineSet
313 531 m 0,0,1
 313 621 313 621 229 621 c 0,2,3
 167 621 167 621 81 555 c 1,4,5
 45 607 45 607 45 669 c 0,6,7
 45 676 45 676 45 682 c 1,8,9
 135 713 135 713 234 713 c 128,-1,10
 333 713 333 713 390 671 c 128,-1,11
 447 629 447 629 447 544 c 0,12,13
 447 489 447 489 422 440 c 128,-1,14
 397 391 397 391 358 357 c 0,15,16
 296 304 296 304 240 276 c 1,17,-1
 240 270 l 2,18,19
 240 251 240 251 252 210 c 1,20,-1
 252 192 l 1,21,22
 216 185 216 185 186.5 185 c 128,-1,23
 157 185 157 185 125 191 c 1,24,-1
 125 210 l 1,25,26
 135 256 135 256 135 273.5 c 128,-1,27
 135 291 135 291 135 294 c 1,28,-1
 155 308 l 2,29,30
 313 418 313 418 313 531 c 0,0,1
230 114 m 0,31,32
 235 114 235 114 246 108 c 1,33,34
 262 94 262 94 262 37 c 0,35,36
 262 24 262 24 260 13 c 1,37,-1
 251 5 l 1,38,39
 213 -6 213 -6 153 -11 c 1,40,-1
 142 -6 l 1,41,42
 134 8 134 8 129.5 35.5 c 128,-1,43
 125 63 125 63 125 74.5 c 128,-1,44
 125 86 125 86 125 90 c 1,45,-1
 134 98 l 1,46,47
 186 114 186 114 230 114 c 0,31,32
EndSplineSet
EndChar

StartChar: at
Encoding: 64 64 35
Width: 872
GlyphClass: 2
Flags: W
LayerCount: 2
Fore
SplineSet
421 -54 m 0,0,1
 253 -54 253 -54 144 40.5 c 128,-1,2
 35 135 35 135 35 307 c 128,-1,3
 35 479 35 479 149 593.5 c 128,-1,4
 263 708 263 708 454 708 c 128,-1,5
 645 708 645 708 740 619.5 c 128,-1,6
 835 531 835 531 835 395 c 0,7,8
 835 278 835 278 758.5 197.5 c 128,-1,9
 682 117 682 117 578 117 c 0,10,11
 476 117 476 117 476 225 c 1,12,-1
 471 225 l 1,13,14
 422 173 422 173 376 145 c 128,-1,15
 330 117 330 117 297 117 c 0,16,17
 213 117 213 117 213 235 c 0,18,19
 213 311 213 311 245 382 c 128,-1,20
 277 453 277 453 347.5 503.5 c 128,-1,21
 418 554 418 554 514 554 c 0,22,23
 585 554 585 554 644 535 c 1,24,-1
 570 285 l 2,25,26
 560 251 560 251 560 228 c 0,27,28
 560 185 560 185 595 187 c 0,29,30
 656 190 656 190 695 256 c 128,-1,31
 734 322 734 322 734 385 c 128,-1,32
 734 448 734 448 713.5 490.5 c 128,-1,33
 693 533 693 533 661.5 558.5 c 128,-1,34
 630 584 630 584 588 601 c 0,35,36
 515 630 515 630 437.5 630 c 128,-1,37
 360 630 360 630 307 612 c 1,38,39
 151 523 151 523 151 328 c 0,40,41
 151 172 151 172 231 97.5 c 128,-1,42
 311 23 311 23 438 23 c 0,43,44
 538 23 538 23 647 75 c 1,45,-1
 679 28 l 1,46,47
 560 -54 560 -54 421 -54 c 0,0,1
528 478 m 1,48,49
 510 485 510 485 478.5 485 c 128,-1,50
 447 485 447 485 416 475 c 1,51,52
 369 417 369 417 346 331 c 0,53,54
 333 283 333 283 333 245.5 c 128,-1,55
 333 208 333 208 346 208 c 0,56,57
 367 208 367 208 450 286 c 0,58,59
 483 318 483 318 490 350 c 1,60,-1
 528 478 l 1,48,49
EndSplineSet
EndChar

StartChar: A
Encoding: 65 65 36
Width: 643
GlyphClass: 2
Flags: W
LayerCount: 2
Fore
SplineSet
399 236 m 1,0,1
 361 237 361 237 294 237 c 128,-1,2
 227 237 227 237 186 236 c 1,3,4
 153 122 153 122 147 95.5 c 128,-1,5
 141 69 141 69 141 22 c 2,6,-1
 141 0 l 1,7,-1
 -27 0 l 1,8,-1
 -27 22 l 1,9,10
 25 58 25 58 102 288 c 128,-1,11
 179 518 179 518 203 592.5 c 128,-1,12
 227 667 227 667 231 700 c 1,13,-1
 385 715 l 1,14,15
 385 677 385 677 451 497 c 0,16,17
 574 161 574 161 622 84 c 1,18,19
 645 45 645 45 674 22 c 1,20,-1
 674 0 l 1,21,-1
 462 0 l 1,22,-1
 462 22 l 2,23,24
 462 64 462 64 399 236 c 1,0,1
288 574 m 1,25,26
 255 479 255 479 205 309 c 1,27,-1
 378 309 l 1,28,29
 372 326 372 326 360 366 c 0,30,31
 334 455 334 455 288 574 c 1,25,26
EndSplineSet
EndChar

StartChar: B
Encoding: 66 66 37
Width: 720
GlyphClass: 2
Flags: W
LayerCount: 2
Fore
SplineSet
190 698 m 2,0,-1
 361 700 l 1,1,2
 479 700 479 700 541 668 c 128,-1,3
 603 636 603 636 603 556 c 0,4,5
 603 502 603 502 575.5 463 c 128,-1,6
 548 424 548 424 507 404 c 1,7,8
 556 392 556 392 600 355 c 0,9,10
 653 311 653 311 653 228.5 c 128,-1,11
 653 146 653 146 612 95 c 128,-1,12
 571 44 571 44 507.5 21 c 128,-1,13
 444 -2 444 -2 348 -2 c 1,14,15
 192 2 192 2 188 2 c 2,16,-1
 108 0 l 1,17,-1
 108 23 l 1,18,19
 128 72 128 72 128 163 c 2,20,-1
 128 528 l 2,21,22
 128 626 128 626 111 678 c 1,23,-1
 111 700 l 1,24,25
 139 698 139 698 190 698 c 2,0,-1
305 357 m 2,26,-1
 270 357 l 1,27,28
 270 118 270 118 273 70 c 1,29,30
 313 64 313 64 334 64 c 0,31,32
 410 64 410 64 456.5 105 c 128,-1,33
 503 146 503 146 503 215 c 0,34,35
 503 357 503 357 305 357 c 2,26,-1
436 613 m 128,-1,37
 406 638 406 638 351.5 638 c 128,-1,38
 297 638 297 638 271 635 c 1,39,40
 270 621 270 621 270 418 c 1,41,-1
 338 418 l 2,42,43
 466 418 466 418 466 528 c 0,44,36
 466 588 466 588 436 613 c 128,-1,37
EndSplineSet
EndChar

StartChar: C
Encoding: 67 67 38
Width: 728
GlyphClass: 2
Flags: W
LayerCount: 2
Fore
SplineSet
200 375 m 0,0,1
 200 237 200 237 269.5 161 c 128,-1,2
 339 85 339 85 443 85 c 0,3,4
 521 85 521 85 663 157 c 1,5,-1
 700 103 l 1,6,7
 625 54 625 54 597.5 39 c 128,-1,8
 570 24 570 24 512.5 6 c 128,-1,9
 455 -12 455 -12 398 -12 c 0,10,11
 253 -12 253 -12 151 85 c 128,-1,12
 49 182 49 182 49 345 c 128,-1,13
 49 508 49 508 166.5 610 c 128,-1,14
 284 712 284 712 458 712 c 0,15,16
 575 712 575 712 684 660 c 1,17,18
 671 597 671 597 627 537 c 1,19,20
 558 588 558 588 502 607.5 c 128,-1,21
 446 627 446 627 399.5 627 c 128,-1,22
 353 627 353 627 319 622 c 1,23,24
 267 586 267 586 233.5 524 c 128,-1,25
 200 462 200 462 200 375 c 0,0,1
EndSplineSet
EndChar

StartChar: D
Encoding: 68 68 39
Width: 824
GlyphClass: 2
Flags: W
LayerCount: 2
Fore
SplineSet
186 698 m 2,0,-1
 385 701 l 1,1,2
 583 701 583 701 679 620.5 c 128,-1,3
 775 540 775 540 775 373 c 0,4,5
 775 270 775 270 738 188 c 128,-1,6
 701 106 701 106 630 59 c 0,7,8
 542 0 542 0 389 0 c 2,9,-1
 370 0 l 1,10,-1
 186 1 l 1,11,-1
 108 1 l 1,12,-1
 108 23 l 1,13,14
 125 87 125 87 125 221 c 2,15,-1
 125 479 l 2,16,17
 125 614 125 614 108 678 c 1,18,-1
 108 700 l 1,19,20
 152 698 152 698 186 698 c 2,0,-1
267 393 m 2,21,-1
 267 335 l 2,22,23
 267 120 267 120 270 87 c 1,24,25
 335 82 335 82 384 82 c 0,26,27
 509 82 509 82 557 110 c 1,28,29
 624 180 624 180 624 357 c 0,30,31
 624 504 624 504 564.5 565.5 c 128,-1,32
 505 627 505 627 366 627 c 0,33,34
 362 627 362 627 269 626 c 1,35,36
 267 578 267 578 267 393 c 2,21,-1
EndSplineSet
EndChar

StartChar: E
Encoding: 69 69 40
Width: 634
GlyphClass: 2
Flags: W
LayerCount: 2
Fore
SplineSet
335 629 m 0,0,1
 294 629 294 629 271 627 c 1,2,3
 269 581 269 581 269 402 c 1,4,-1
 526 407 l 1,5,-1
 491 324 l 1,6,-1
 472 324 l 1,7,8
 434 332 434 332 360.5 332 c 128,-1,9
 287 332 287 332 269 330 c 1,10,-1
 269 277 l 2,11,12
 269 109 269 109 272 76 c 1,13,14
 295 74 295 74 348.5 74 c 128,-1,15
 402 74 402 74 477 83 c 128,-1,16
 552 92 552 92 587 106 c 1,17,-1
 606 106 l 1,18,-1
 587 0 l 1,19,-1
 108 0 l 1,20,-1
 108 22 l 1,21,22
 125 94 125 94 125 223 c 2,23,-1
 125 476 l 2,24,25
 125 606 125 606 108 678 c 1,26,-1
 108 700 l 1,27,-1
 573 703 l 1,28,-1
 543 615 l 1,29,-1
 524 615 l 1,30,31
 475 629 475 629 335 629 c 0,0,1
EndSplineSet
EndChar

StartChar: F
Encoding: 70 70 41
Width: 565
GlyphClass: 2
Flags: W
LayerCount: 2
Fore
SplineSet
500 605 m 1,0,1
 444 621 444 621 368.5 621 c 128,-1,2
 293 621 293 621 270 619 c 1,3,4
 267 590 267 590 267 398 c 1,5,-1
 497 403 l 1,6,-1
 460 309 l 1,7,-1
 441 309 l 1,8,9
 393 319 393 319 339 319 c 128,-1,10
 285 319 285 319 267 317 c 1,11,-1
 267 224 l 2,12,13
 267 82 267 82 283 22 c 1,14,-1
 283 0 l 1,15,-1
 108 0 l 1,16,-1
 108 22 l 1,17,18
 125 94 125 94 125 223 c 2,19,-1
 125 476 l 2,20,21
 125 606 125 606 108 678 c 1,22,-1
 108 700 l 1,23,-1
 548 703 l 1,24,-1
 519 605 l 1,25,-1
 500 605 l 1,0,1
EndSplineSet
EndChar

StartChar: G
Encoding: 71 71 42
Width: 765
GlyphClass: 2
Flags: W
LayerCount: 2
Fore
SplineSet
684 264 m 1,0,1
 684 132 684 132 690 83 c 1,2,3
 632 47 632 47 550.5 17.5 c 128,-1,4
 469 -12 469 -12 392 -12 c 0,5,6
 247 -12 247 -12 148 85 c 128,-1,7
 49 182 49 182 49 336.5 c 128,-1,8
 49 491 49 491 157 601.5 c 128,-1,9
 265 712 265 712 426 712 c 0,10,11
 569 712 569 712 691 624 c 1,12,13
 648 577 648 577 565 530 c 1,14,15
 534 572 534 572 480 601 c 128,-1,16
 426 630 426 630 370.5 630 c 128,-1,17
 315 630 315 630 293 624 c 1,18,19
 200 544 200 544 200 367 c 0,20,21
 200 222 200 222 253 148.5 c 128,-1,22
 306 75 306 75 427 75 c 0,23,24
 488 75 488 75 536 91 c 1,25,26
 550 164 550 164 550 261 c 1,27,-1
 417 261 l 1,28,-1
 468 341 l 1,29,30
 564 334 564 334 631 334 c 128,-1,31
 698 334 698 334 742 336 c 1,32,-1
 707 264 l 1,33,-1
 684 264 l 1,0,1
EndSplineSet
EndChar

StartChar: H
Encoding: 72 72 43
Width: 830
GlyphClass: 2
Flags: W
LayerCount: 2
Fore
SplineSet
707 477 m 2,0,-1
 707 223 l 2,1,2
 707 79 707 79 722 22 c 1,3,-1
 722 0 l 1,4,-1
 550 0 l 1,5,-1
 550 22 l 1,6,7
 556 45 556 45 560.5 114.5 c 128,-1,8
 565 184 565 184 565 220 c 2,9,-1
 565 315 l 1,10,11
 453 317 453 317 387 317 c 128,-1,12
 321 317 321 317 265 316 c 1,13,-1
 265 220 l 2,14,15
 265 185 265 185 269.5 115 c 128,-1,16
 274 45 274 45 279 22 c 1,17,-1
 279 0 l 1,18,-1
 108 0 l 1,19,-1
 108 22 l 1,20,21
 123 79 123 79 123 223 c 2,22,-1
 123 477 l 2,23,24
 123 621 123 621 108 678 c 1,25,-1
 108 700 l 1,26,-1
 279 700 l 1,27,-1
 279 678 l 1,28,29
 274 655 274 655 269.5 585 c 128,-1,30
 265 515 265 515 265 479 c 2,31,-1
 265 403 l 1,32,-1
 565 403 l 1,33,-1
 565 479 l 2,34,35
 565 516 565 516 560.5 585.5 c 128,-1,36
 556 655 556 655 550 678 c 1,37,-1
 550 700 l 1,38,-1
 722 700 l 1,39,-1
 722 678 l 1,40,41
 707 621 707 621 707 477 c 2,0,-1
EndSplineSet
EndChar

StartChar: I
Encoding: 73 73 44
Width: 390
GlyphClass: 2
Flags: W
LayerCount: 2
Fore
SplineSet
266 469 m 2,0,-1
 266 230 l 2,1,2
 266 82 266 82 282 22 c 1,3,-1
 282 0 l 1,4,-1
 108 0 l 1,5,-1
 108 22 l 1,6,7
 124 82 124 82 124 230 c 2,8,-1
 124 479 l 2,9,10
 124 618 124 618 108 678 c 1,11,-1
 108 700 l 1,12,-1
 282 700 l 1,13,-1
 282 678 l 1,14,15
 275 655 275 655 270.5 581.5 c 128,-1,16
 266 508 266 508 266 469 c 2,0,-1
EndSplineSet
EndChar

StartChar: J
Encoding: 74 74 45
Width: 406
GlyphClass: 2
Flags: W
LayerCount: 2
Fore
SplineSet
140 203 m 2,0,-1
 140 479 l 2,1,2
 140 626 140 626 122 678 c 1,3,-1
 122 700 l 1,4,-1
 298 700 l 1,5,-1
 298 678 l 1,6,7
 291 655 291 655 286.5 581.5 c 128,-1,8
 282 508 282 508 282 469 c 2,9,-1
 282 161 l 2,10,11
 282 63 282 63 268 20.5 c 128,-1,12
 254 -22 254 -22 246.5 -44.5 c 128,-1,13
 239 -67 239 -67 219.5 -91.5 c 128,-1,14
 200 -116 200 -116 191 -128 c 128,-1,15
 182 -140 182 -140 155 -162 c 128,-1,16
 128 -184 128 -184 120 -190 c 2,17,-1
 40 -248 l 1,18,-1
 -13 -200 l 1,19,20
 10 -184 10 -184 43 -157 c 0,21,22
 103 -106 103 -106 121.5 -34 c 128,-1,23
 140 38 140 38 140 203 c 2,0,-1
EndSplineSet
EndChar

StartChar: K
Encoding: 75 75 46
Width: 675
GlyphClass: 2
Flags: W
LayerCount: 2
Fore
SplineSet
474 700 m 1,0,-1
 640 700 l 1,1,-1
 640 678 l 1,2,3
 585 670 585 670 508 579 c 1,4,-1
 349 385 l 1,5,-1
 485 219 l 2,6,7
 628 44 628 44 714 22 c 1,8,-1
 714 0 l 1,9,-1
 520 0 l 1,10,11
 462 65 462 65 265 316 c 1,12,-1
 265 220 l 2,13,14
 265 185 265 185 269.5 115 c 128,-1,15
 274 45 274 45 279 22 c 1,16,-1
 279 0 l 1,17,-1
 108 0 l 1,18,-1
 108 22 l 1,19,20
 123 79 123 79 123 223 c 2,21,-1
 123 477 l 2,22,23
 123 621 123 621 108 678 c 1,24,-1
 108 700 l 1,25,-1
 279 700 l 1,26,-1
 279 678 l 1,27,28
 274 655 274 655 269.5 585 c 128,-1,29
 265 515 265 515 265 479 c 2,30,-1
 265 408 l 1,31,-1
 409 580 l 2,32,33
 474 658 474 658 474 700 c 1,0,-1
EndSplineSet
EndChar

StartChar: L
Encoding: 76 76 47
Width: 584
GlyphClass: 2
Flags: W
LayerCount: 2
Fore
SplineSet
108 0 m 1,0,-1
 108 22 l 1,1,2
 124 91 124 91 124 220 c 2,3,-1
 124 479 l 2,4,5
 124 618 124 618 108 678 c 1,6,-1
 108 700 l 1,7,-1
 282 700 l 1,8,-1
 282 678 l 1,9,10
 275 655 275 655 270.5 584 c 128,-1,11
 266 513 266 513 266 476 c 2,12,-1
 266 209 l 2,13,14
 266 136 266 136 272 76 c 1,15,16
 291 74 291 74 351 74 c 0,17,18
 509 74 509 74 585 106 c 1,19,-1
 604 106 l 1,20,-1
 586 0 l 1,21,-1
 108 0 l 1,0,-1
EndSplineSet
EndChar

StartChar: M
Encoding: 77 77 48
Width: 938
GlyphClass: 2
Flags: W
LayerCount: 2
Fore
SplineSet
75 22 m 1,0,1
 113 249 113 249 113 550 c 0,2,3
 113 630 113 630 109 679 c 1,4,-1
 109 701 l 1,5,-1
 274 714 l 1,6,7
 284 666 284 666 316.5 565 c 128,-1,8
 349 464 349 464 473 146 c 1,9,10
 555 373 555 373 598 514 c 128,-1,11
 641 655 641 655 649 699 c 1,12,-1
 820 717 l 1,13,-1
 820 695 l 1,14,15
 819 674 819 674 819 610.5 c 128,-1,16
 819 547 819 547 830.5 378.5 c 128,-1,17
 842 210 842 210 869 22 c 1,18,-1
 869 0 l 1,19,-1
 704 0 l 1,20,-1
 704 22 l 1,21,22
 707 81 707 81 707 155 c 0,23,24
 707 341 707 341 689 505 c 1,25,26
 566 161 566 161 520 2 c 1,27,-1
 399 -10 l 1,28,29
 399 37 399 37 220 510 c 1,30,31
 209 334 209 334 209 217.5 c 128,-1,32
 209 101 209 101 212 22 c 1,33,-1
 212 0 l 1,34,-1
 75 0 l 1,35,-1
 75 22 l 1,0,1
EndSplineSet
EndChar

StartChar: N
Encoding: 78 78 49
Width: 784
GlyphClass: 2
Flags: W
LayerCount: 2
Fore
SplineSet
209 0 m 1,0,-1
 72 0 l 1,1,-1
 72 22 l 1,2,3
 88 82 88 82 88 249 c 2,4,-1
 88 452 l 2,5,6
 88 601 88 601 75 677 c 1,7,-1
 75 699 l 1,8,-1
 233 710 l 1,9,-1
 585 216 l 1,10,-1
 585 479 l 2,11,12
 585 530 585 530 578 591.5 c 128,-1,13
 571 653 571 653 562 678 c 1,14,-1
 562 700 l 1,15,-1
 703 700 l 1,16,-1
 703 678 l 1,17,18
 697 653 697 653 692 580.5 c 128,-1,19
 687 508 687 508 687 451 c 2,20,-1
 687 213 l 2,21,22
 687 155 687 155 693 86 c 128,-1,23
 699 17 699 17 703 2 c 1,24,-1
 572 -11 l 1,25,-1
 190 524 l 1,26,-1
 190 220 l 2,27,28
 190 94 190 94 209 22 c 1,29,-1
 209 0 l 1,0,-1
EndSplineSet
EndChar

StartChar: O
Encoding: 79 79 50
Width: 824
GlyphClass: 2
Flags: W
LayerCount: 2
Fore
SplineSet
144.5 89 m 128,-1,1
 49 190 49 190 49 344.5 c 128,-1,2
 49 499 49 499 156 606.5 c 128,-1,3
 263 714 263 714 429 714 c 128,-1,4
 595 714 595 714 685 614 c 128,-1,5
 775 514 775 514 775 368 c 0,6,7
 775 203 775 203 667.5 95.5 c 128,-1,8
 560 -12 560 -12 400 -12 c 128,-1,0
 240 -12 240 -12 144.5 89 c 128,-1,1
624 341 m 0,9,10
 624 424 624 424 604.5 486 c 128,-1,11
 585 548 585 548 533 589.5 c 128,-1,12
 481 631 481 631 399 631 c 0,13,14
 362 631 362 631 324 622.5 c 128,-1,15
 286 614 286 614 269 604 c 1,16,17
 239 573 239 573 219.5 509 c 128,-1,18
 200 445 200 445 200 374.5 c 128,-1,19
 200 304 200 304 212.5 253.5 c 128,-1,20
 225 203 225 203 251.5 160.5 c 128,-1,21
 278 118 278 118 325 93.5 c 128,-1,22
 372 69 372 69 438.5 69 c 128,-1,23
 505 69 505 69 555 97 c 1,24,25
 624 163 624 163 624 341 c 0,9,10
EndSplineSet
EndChar

StartChar: P
Encoding: 80 80 51
Width: 683
GlyphClass: 2
Flags: W
LayerCount: 2
Fore
SplineSet
190 698 m 2,0,-1
 357 700 l 1,1,2
 498 700 498 700 571.5 656 c 128,-1,3
 645 612 645 612 645 503.5 c 128,-1,4
 645 395 645 395 559 333.5 c 128,-1,5
 473 272 473 272 341 272 c 0,6,7
 305 272 305 272 270 279 c 1,8,-1
 270 148 l 2,9,10
 270 74 270 74 290 22 c 1,11,-1
 290 0 l 1,12,-1
 108 0 l 1,13,-1
 108 22 l 1,14,15
 128 79 128 79 128 162 c 2,16,-1
 128 521 l 2,17,18
 128 621 128 621 111 678 c 1,19,-1
 111 700 l 1,20,21
 179 698 179 698 190 698 c 2,0,-1
462 602 m 128,-1,23
 429 635 429 635 356.5 635 c 128,-1,24
 284 635 284 635 272 634 c 1,25,26
 270 604 270 604 270 468 c 2,27,-1
 270 340 l 1,28,29
 302 331 302 331 340 331 c 0,30,31
 416 331 416 331 455.5 374 c 128,-1,32
 495 417 495 417 495 493 c 128,-1,22
 495 569 495 569 462 602 c 128,-1,23
EndSplineSet
EndChar

StartChar: Q
Encoding: 81 81 52
Width: 827
GlyphClass: 2
Flags: W
LayerCount: 2
Fore
SplineSet
144.5 88.5 m 128,-1,1
 49 189 49 189 49 344.5 c 128,-1,2
 49 500 49 500 157 607 c 128,-1,3
 265 714 265 714 429 714 c 128,-1,4
 593 714 593 714 683.5 616 c 128,-1,5
 774 518 774 518 774 365 c 0,6,7
 774 181 774 181 637 68 c 1,8,9
 720 -4 720 -4 798 -41 c 1,10,-1
 799 -49 l 1,11,-1
 654 -96 l 1,12,13
 594 -27 594 -27 549 17 c 1,14,15
 482 -12 482 -12 399 -12 c 0,16,0
 240 -12 240 -12 144.5 88.5 c 128,-1,1
510 607 m 0,17,18
 465 631 465 631 393.5 631 c 128,-1,19
 322 631 322 631 268 604 c 1,20,21
 238 571 238 571 219 506.5 c 128,-1,22
 200 442 200 442 200 375 c 128,-1,23
 200 308 200 308 211 258 c 128,-1,24
 222 208 222 208 247.5 163 c 128,-1,25
 273 118 273 118 321.5 92 c 128,-1,26
 370 66 370 66 437 66 c 0,27,28
 466 66 466 66 490 72 c 1,29,30
 464 96 464 96 385 163 c 1,31,-1
 385 169 l 1,32,-1
 486 207 l 1,33,34
 529 158 529 158 574 121 c 1,35,36
 624 205 624 205 624 333 c 0,37,38
 624 547 624 547 510 607 c 0,17,18
EndSplineSet
EndChar

StartChar: R
Encoding: 82 82 53
Width: 707
GlyphClass: 2
Flags: W
LayerCount: 2
Fore
SplineSet
209 698 m 2,0,-1
 352 700 l 1,1,2
 481 700 481 700 551.5 661 c 128,-1,3
 622 622 622 622 622 529.5 c 128,-1,4
 622 437 622 437 565 381 c 128,-1,5
 508 325 508 325 413 316 c 1,6,-1
 527 183 l 2,7,8
 600 98 600 98 639.5 66 c 128,-1,9
 679 34 679 34 711 24 c 1,10,-1
 711 0 l 1,11,-1
 536 0 l 1,12,13
 522 21 522 21 467 91 c 1,14,-1
 287 310 l 1,15,16
 275 310 275 310 270 311 c 1,17,-1
 270 172 l 2,18,19
 270 74 270 74 286 22 c 1,20,-1
 286 0 l 1,21,-1
 108 0 l 1,22,-1
 108 22 l 1,23,24
 128 74 128 74 128 162 c 2,25,-1
 128 521 l 2,26,27
 128 621 128 621 111 678 c 1,28,-1
 111 700 l 1,29,30
 139 698 139 698 209 698 c 2,0,-1
443.5 608.5 m 128,-1,32
 413 635 413 635 348.5 635 c 128,-1,33
 284 635 284 635 272 634 c 1,34,35
 270 604 270 604 270 374 c 1,36,37
 293 371 293 371 327 371 c 0,38,39
 407 371 407 371 440.5 406.5 c 128,-1,40
 474 442 474 442 474 512 c 128,-1,31
 474 582 474 582 443.5 608.5 c 128,-1,32
EndSplineSet
EndChar

StartChar: S
Encoding: 83 83 54
Width: 623
GlyphClass: 2
Flags: W
LayerCount: 2
Fore
SplineSet
274 459.5 m 128,-1,1
 305 445 305 445 329.5 434 c 128,-1,2
 354 423 354 423 361 419.5 c 128,-1,3
 368 416 368 416 394.5 404 c 128,-1,4
 421 392 421 392 428 388.5 c 128,-1,5
 435 385 435 385 459 371 c 128,-1,6
 483 357 483 357 492 348 c 128,-1,7
 501 339 501 339 518 321.5 c 128,-1,8
 535 304 535 304 542 288 c 0,9,10
 561 243 561 243 561 197 c 0,11,12
 561 94 561 94 487.5 41 c 128,-1,13
 414 -12 414 -12 286.5 -12 c 128,-1,14
 159 -12 159 -12 54 58 c 1,15,16
 57 130 57 130 109 193 c 1,17,18
 157 140 157 140 217 106 c 128,-1,19
 277 72 277 72 326.5 72 c 128,-1,20
 376 72 376 72 414 94 c 1,21,22
 433 119 433 119 433 172 c 0,23,24
 433 212 433 212 410 236 c 1,25,26
 396 249 396 249 386.5 257.5 c 128,-1,27
 377 266 377 266 353 278 c 0,28,29
 329 291 329 291 255.5 323.5 c 128,-1,30
 182 356 182 356 153 375 c 0,31,32
 70 431 70 431 70 525.5 c 128,-1,33
 70 620 70 620 141.5 666 c 128,-1,34
 213 712 213 712 319 712 c 128,-1,35
 425 712 425 712 542 662 c 1,36,37
 530 593 530 593 491 528 c 1,38,39
 440 575 440 575 383 604.5 c 128,-1,40
 326 634 326 634 280 634 c 128,-1,41
 234 634 234 634 207 619 c 1,42,43
 191 600 191 600 191 560 c 128,-1,44
 191 520 191 520 217 497 c 128,-1,0
 243 474 243 474 274 459.5 c 128,-1,1
EndSplineSet
EndChar

StartChar: T
Encoding: 84 84 55
Width: 554
GlyphClass: 2
Flags: W
LayerCount: 2
Fore
SplineSet
-10 601 m 1,0,1
 -10 646 -10 646 -15 703 c 1,2,3
 180 700 180 700 277 700 c 128,-1,4
 374 700 374 700 569 703 c 1,5,6
 564 646 564 646 564 601 c 1,7,-1
 545 601 l 1,8,9
 432 627 432 627 351 630 c 1,10,11
 347 580 347 580 347 480 c 2,12,-1
 347 218 l 2,13,14
 347 82 347 82 363 22 c 1,15,-1
 363 0 l 1,16,-1
 191 0 l 1,17,-1
 191 22 l 1,18,19
 205 82 205 82 205 215 c 2,20,-1
 205 476 l 2,21,22
 205 579 205 579 201 630 c 1,23,24
 126 627 126 627 9 601 c 1,25,-1
 -10 601 l 1,0,1
EndSplineSet
EndChar

StartChar: U
Encoding: 85 85 56
Width: 769
GlyphClass: 2
Flags: W
LayerCount: 2
Fore
SplineSet
676 491 m 2,0,-1
 676 312 l 2,1,2
 676 130 676 130 609.5 59.5 c 128,-1,3
 543 -11 543 -11 386 -11 c 128,-1,4
 229 -11 229 -11 159 57.5 c 128,-1,5
 89 126 89 126 89 277 c 2,6,-1
 89 475 l 2,7,8
 89 624 89 624 73 678 c 1,9,-1
 73 700 l 1,10,-1
 245 700 l 1,11,-1
 245 678 l 1,12,13
 231 588 231 588 231 445 c 2,14,-1
 231 322 l 2,15,16
 231 221 231 221 243.5 178 c 128,-1,17
 256 135 256 135 274 116 c 0,18,19
 315 71 315 71 399.5 71 c 128,-1,20
 484 71 484 71 525 97 c 1,21,22
 551 136 551 136 558 204 c 128,-1,23
 565 272 565 272 565 434.5 c 128,-1,24
 565 597 565 597 549 678 c 1,25,-1
 549 700 l 1,26,-1
 692 700 l 1,27,-1
 692 679 l 1,28,29
 685 656 685 656 680.5 591.5 c 128,-1,30
 676 527 676 527 676 491 c 2,0,-1
EndSplineSet
EndChar

StartChar: V
Encoding: 86 86 57
Width: 695
GlyphClass: 2
Flags: W
LayerCount: 2
Fore
SplineSet
530 700 m 1,0,-1
 702 700 l 1,1,-1
 702 678 l 1,2,3
 647 634 647 634 559 396 c 1,4,5
 440 52 440 52 424 1 c 1,6,-1
 280 -14 l 1,7,8
 279 38 279 38 101 486 c 0,9,10
 36 650 36 650 -5 678 c 1,11,-1
 -5 700 l 1,12,-1
 199 700 l 1,13,-1
 199 678 l 2,14,15
 199 626 199 626 242 497 c 1,16,-1
 373 123 l 1,17,-1
 491 485 l 2,18,19
 526 590 526 590 530 678 c 1,20,-1
 530 700 l 1,0,-1
EndSplineSet
EndChar

StartChar: W
Encoding: 87 87 58
Width: 1021
GlyphClass: 2
Flags: W
LayerCount: 2
Fore
SplineSet
863 678 m 2,0,-1
 863 700 l 1,1,-1
 1029 700 l 1,2,-1
 1029 678 l 1,3,4
 982 612 982 612 915 397.5 c 128,-1,5
 848 183 848 183 799 0 c 1,6,-1
 647 -14 l 1,7,8
 633 85 633 85 536 411 c 2,9,-1
 507 509 l 1,10,11
 487 449 487 449 471.5 398 c 128,-1,12
 456 347 456 347 364 0 c 1,13,-1
 211 -14 l 1,14,15
 208 70 208 70 75 487 c 0,16,17
 44 584 44 584 28 622 c 128,-1,18
 12 660 12 660 -4 678 c 1,19,-1
 -4 700 l 1,20,-1
 180 700 l 1,21,-1
 180 672 l 2,22,23
 180 604 180 604 211 504 c 1,24,-1
 314 137 l 1,25,26
 440 555 440 555 444 700 c 1,27,-1
 597 700 l 1,28,29
 603 651 603 651 626 555.5 c 128,-1,30
 649 460 649 460 747 137 c 1,31,32
 753 158 753 158 775.5 233.5 c 128,-1,33
 798 309 798 309 810 352 c 0,34,35
 847 488 847 488 855 560 c 128,-1,36
 863 632 863 632 863 678 c 2,0,-1
EndSplineSet
EndChar

StartChar: X
Encoding: 88 88 59
Width: 670
GlyphClass: 2
Flags: W
LayerCount: 2
Fore
SplineSet
315 284 m 1,0,1
 167 75 167 75 167 -1 c 1,2,-1
 -14 0 l 1,3,-1
 -14 22 l 1,4,5
 47 55 47 55 116 152 c 0,6,7
 221 301 221 301 258 356 c 1,8,-1
 176 481 l 2,9,10
 64 653 64 653 6 678 c 1,11,-1
 6 700 l 1,12,-1
 232 699 l 1,13,-1
 232 677 l 2,14,15
 232 643 232 643 254 599 c 0,16,17
 279 549 279 549 344 453 c 1,18,19
 466 626 466 626 466 700 c 1,20,-1
 642 700 l 1,21,-1
 642 678 l 1,22,23
 611 662 611 662 584.5 634 c 128,-1,24
 558 606 558 606 497 523.5 c 128,-1,25
 436 441 436 441 399 384 c 1,26,27
 570 133 570 133 609.5 85.5 c 128,-1,28
 649 38 649 38 679 22 c 1,29,-1
 679 0 l 1,30,-1
 455 0 l 1,31,-1
 455 22 l 2,32,33
 455 38 455 38 443.5 61 c 128,-1,34
 432 84 432 84 424.5 98.5 c 128,-1,35
 417 113 417 113 411 123 c 128,-1,36
 405 133 405 133 395 149.5 c 128,-1,37
 385 166 385 166 380 175 c 2,38,-1
 315 284 l 1,0,1
EndSplineSet
EndChar

StartChar: Y
Encoding: 89 89 60
Width: 562
GlyphClass: 2
Flags: W
LayerCount: 2
Fore
SplineSet
355 220 m 2,0,1
 355 184 355 184 359.5 114.5 c 128,-1,2
 364 45 364 45 370 22 c 1,3,-1
 370 0 l 1,4,-1
 208 0 l 1,5,-1
 208 22 l 1,6,7
 223 79 223 79 223 194 c 2,8,-1
 223 294 l 1,9,-1
 125 476 l 2,10,11
 86 547 86 547 45 608 c 128,-1,12
 4 669 4 669 -15 678 c 1,13,-1
 -15 700 l 1,14,-1
 170 700 l 1,15,-1
 170 678 l 2,16,17
 170 638 170 638 207 563 c 128,-1,18
 244 488 244 488 304 380 c 1,19,20
 388 550 388 550 407 600.5 c 128,-1,21
 426 651 426 651 426 678 c 2,22,-1
 426 700 l 1,23,-1
 571 700 l 1,24,-1
 571 678 l 1,25,26
 535 653 535 653 483 556 c 0,27,28
 454 502 454 502 355 292 c 1,29,-1
 355 220 l 2,0,1
EndSplineSet
EndChar

StartChar: Z
Encoding: 90 90 61
Width: 585
GlyphClass: 2
Flags: W
LayerCount: 2
Fore
SplineSet
163 76 m 1,0,1
 192 74 192 74 279.5 74 c 128,-1,2
 367 74 367 74 451 83 c 128,-1,3
 535 92 535 92 571 106 c 1,4,-1
 590 106 l 1,5,-1
 567 0 l 1,6,-1
 31 0 l 1,7,-1
 -4 58 l 1,8,-1
 415 626 l 1,9,10
 391 627 391 627 310 627 c 0,11,12
 154 627 154 627 51 589 c 1,13,-1
 32 589 l 1,14,-1
 53 698 l 1,15,-1
 538 705 l 1,16,-1
 578 639 l 1,17,-1
 163 76 l 1,0,1
EndSplineSet
EndChar

StartChar: bracketleft
Encoding: 91 91 62
Width: 485
GlyphClass: 2
Flags: W
LayerCount: 2
Fore
SplineSet
228 -114 m 2,0,1
 296 -114 296 -114 347 -95 c 1,2,-1
 366 -95 l 1,3,-1
 410 -178 l 1,4,-1
 95 -174 l 1,5,-1
 95 757 l 1,6,-1
 410 760 l 1,7,-1
 366 678 l 1,8,-1
 347 678 l 1,9,10
 302 695 302 695 230 695 c 2,11,-1
 215 695 l 1,12,-1
 215 -34 l 2,13,14
 215 -85 215 -85 217 -114 c 1,15,-1
 228 -114 l 2,0,1
EndSplineSet
EndChar

StartChar: backslash
Encoding: 92 92 63
Width: 277
GlyphClass: 2
Flags: W
LayerCount: 2
Fore
SplineSet
356 -92 m 1,0,-1
 286 -189 l 1,1,-1
 271 -174 l 1,2,3
 245 -91 245 -91 150.5 130 c 128,-1,4
 56 351 56 351 21 427.5 c 128,-1,5
 -14 504 -14 504 -72 617 c 1,6,-1
 -2 731 l 1,7,-1
 14 715 l 1,8,9
 33 652 33 652 120.5 439.5 c 128,-1,10
 208 227 208 227 248 138 c 1,11,-1
 356 -92 l 1,0,-1
EndSplineSet
EndChar

StartChar: bracketright
Encoding: 93 93 64
Width: 485
GlyphClass: 2
Flags: W
LayerCount: 2
Fore
SplineSet
277 -114 m 2,0,-1
 288 -114 l 1,1,2
 290 -85 290 -85 290 -34 c 2,3,-1
 290 695 l 1,4,-1
 275 695 l 2,5,6
 203 695 203 695 158 678 c 1,7,-1
 139 678 l 1,8,-1
 95 760 l 1,9,-1
 410 757 l 1,10,-1
 410 -174 l 1,11,-1
 95 -178 l 1,12,-1
 139 -95 l 1,13,-1
 158 -95 l 1,14,15
 209 -114 209 -114 277 -114 c 2,0,-1
EndSplineSet
EndChar

StartChar: asciicircum
Encoding: 94 94 65
Width: 634
GlyphClass: 2
Flags: W
LayerCount: 2
Fore
SplineSet
276 682 m 1,0,-1
 364 682 l 1,1,-1
 516 379 l 1,2,-1
 414 379 l 1,3,-1
 318 578 l 1,4,-1
 217 379 l 1,5,-1
 118 379 l 1,6,-1
 276 682 l 1,0,-1
EndSplineSet
EndChar

StartChar: underscore
Encoding: 95 95 66
Width: 625
GlyphClass: 2
Flags: W
LayerCount: 2
Fore
SplineSet
601 -135 m 1,0,-1
 24 -135 l 1,1,-1
 24 -44 l 1,2,-1
 601 -44 l 1,3,-1
 601 -135 l 1,0,-1
EndSplineSet
EndChar

StartChar: grave
Encoding: 96 96 67
Width: 523
GlyphClass: 2
Flags: W
LayerCount: 2
Fore
SplineSet
391 544 m 1,0,-1
 354 505 l 1,1,2
 241 561 241 561 132 657 c 1,3,4
 169 710 169 710 232 732 c 1,5,6
 292 629 292 629 391 544 c 1,0,-1
EndSplineSet
EndChar

StartChar: a
Encoding: 97 97 68
Width: 552
GlyphClass: 2
Flags: W
LayerCount: 2
Fore
SplineSet
338 200 m 1,0,1
 302 213 302 213 258.5 213 c 128,-1,2
 215 213 215 213 192 197 c 1,3,4
 177 178 177 178 177 147 c 0,5,6
 177 69 177 69 245 69 c 0,7,8
 301 69 301 69 338 115 c 1,9,-1
 338 200 l 1,0,1
204 -18 m 0,10,11
 141 -18 141 -18 93 20 c 128,-1,12
 45 58 45 58 45 130 c 0,13,14
 45 269 45 269 248 269 c 1,15,-1
 337 265 l 1,16,-1
 337 326 l 2,17,18
 337 378 337 378 311 410 c 128,-1,19
 285 442 285 442 231 442 c 0,20,21
 219 442 219 442 200 429.5 c 128,-1,22
 181 417 181 417 168 404 c 0,23,24
 127 365 127 365 102 340 c 1,25,26
 52 399 52 399 48 459 c 1,27,28
 176 499 176 499 264 499 c 128,-1,29
 352 499 352 499 411 458 c 128,-1,30
 470 417 470 417 470 329 c 2,31,-1
 470 172 l 2,32,33
 470 127 470 127 485 86 c 128,-1,34
 500 45 500 45 522 31 c 1,35,-1
 524 9 l 1,36,-1
 381 -21 l 1,37,38
 365 9 365 9 351 63 c 1,39,40
 325 35 325 35 309 21.5 c 128,-1,41
 293 8 293 8 264.5 -5 c 128,-1,42
 236 -18 236 -18 204 -18 c 0,10,11
EndSplineSet
EndChar

StartChar: b
Encoding: 98 98 69
Width: 626
GlyphClass: 2
Flags: W
LayerCount: 2
Fore
SplineSet
223 81 m 1,0,1
 294 56 294 56 339 56 c 128,-1,2
 384 56 384 56 397 66 c 1,3,4
 412 85 412 85 425 142.5 c 128,-1,5
 438 200 438 200 438 256 c 0,6,7
 438 425 438 425 356 425 c 0,8,9
 303 425 303 425 223 378 c 1,10,-1
 223 81 l 1,0,1
223 642 m 2,11,-1
 223 447 l 1,12,13
 290 499 290 499 361 499 c 0,14,15
 464 499 464 499 523 431.5 c 128,-1,16
 582 364 582 364 582 266 c 0,17,18
 582 145 582 145 494 63 c 128,-1,19
 406 -19 406 -19 285 -19 c 0,20,21
 207 -19 207 -19 83 28 c 1,22,-1
 83 50 l 1,23,24
 94 78 94 78 94 182 c 2,25,-1
 94 570 l 2,26,27
 94 646 94 646 49 689 c 1,28,-1
 49 711 l 1,29,-1
 220 746 l 1,30,-1
 228 724 l 1,31,32
 223 697 223 697 223 642 c 2,11,-1
EndSplineSet
EndChar

StartChar: c
Encoding: 99 99 70
Width: 542
GlyphClass: 2
Flags: W
LayerCount: 2
Fore
SplineSet
188 246 m 0,0,1
 188 71 188 71 290 71 c 0,2,3
 362 71 362 71 479 132 c 1,4,-1
 505 91 l 1,5,6
 465 54 465 54 399.5 18 c 128,-1,7
 334 -18 334 -18 288 -18 c 0,8,9
 175 -18 175 -18 109.5 51.5 c 128,-1,10
 44 121 44 121 44 234.5 c 128,-1,11
 44 348 44 348 127 423.5 c 128,-1,12
 210 499 210 499 317 499 c 128,-1,13
 424 499 424 499 501 448 c 1,14,15
 467 391 467 391 437 359 c 1,16,17
 356 421 356 421 282 421 c 0,18,19
 263 421 263 421 248 418 c 1,20,21
 222 394 222 394 205 348 c 128,-1,22
 188 302 188 302 188 246 c 0,0,1
EndSplineSet
EndChar

StartChar: d
Encoding: 100 100 71
Width: 622
GlyphClass: 2
Flags: W
LayerCount: 2
Fore
SplineSet
289 -19 m 0,0,1
 171 -19 171 -19 110 54 c 128,-1,2
 49 127 49 127 49 236.5 c 128,-1,3
 49 346 49 346 126.5 422.5 c 128,-1,4
 204 499 204 499 323 499 c 0,5,6
 367 499 367 499 408 492 c 1,7,-1
 408 582 l 2,8,9
 408 648 408 648 363 689 c 1,10,-1
 363 711 l 1,11,-1
 530 746 l 1,12,-1
 540 724 l 1,13,14
 537 705 537 705 537 648 c 2,15,-1
 537 181 l 2,16,17
 537 135 537 135 550.5 95 c 128,-1,18
 564 55 564 55 586 40 c 1,19,-1
 588 18 l 1,20,-1
 438 -21 l 1,21,22
 427 10 427 10 418 47 c 1,23,24
 352 -19 352 -19 289 -19 c 0,0,1
193 250 m 0,25,26
 193 174 193 174 220 117.5 c 128,-1,27
 247 61 247 61 298 61 c 128,-1,28
 349 61 349 61 408 108 c 1,29,-1
 408 388 l 1,30,31
 349 426 349 426 279 426 c 0,32,33
 249 426 249 426 232 413 c 1,34,35
 193 365 193 365 193 250 c 0,25,26
EndSplineSet
EndChar

StartChar: e
Encoding: 101 101 72
Width: 540
GlyphClass: 2
Flags: W
LayerCount: 2
Fore
SplineSet
269 -19 m 0,0,1
 182 -19 182 -19 113 46 c 128,-1,2
 44 111 44 111 44 221.5 c 128,-1,3
 44 332 44 332 117 415.5 c 128,-1,4
 190 499 190 499 306 499 c 0,5,6
 404 499 404 499 452 436 c 128,-1,7
 500 373 500 373 500 262 c 1,8,-1
 462 223 l 1,9,-1
 188 223 l 1,10,11
 189 151 189 151 226.5 112 c 128,-1,12
 264 73 264 73 316.5 73 c 128,-1,13
 369 73 369 73 475 128 c 1,14,-1
 500 90 l 1,15,16
 481 72 481 72 457 53 c 128,-1,17
 433 34 433 34 376.5 7.5 c 128,-1,18
 320 -19 320 -19 269 -19 c 0,0,1
283 435 m 0,19,20
 246 435 246 435 224 420 c 1,21,22
 208 395 208 395 199 354 c 128,-1,23
 190 313 190 313 189 281 c 1,24,-1
 364 291 l 1,25,26
 364 435 364 435 283 435 c 0,19,20
EndSplineSet
EndChar

StartChar: f
Encoding: 102 102 73
Width: 413
GlyphClass: 2
Flags: W
LayerCount: 2
Fore
SplineSet
257 208 m 2,0,1
 257 161 257 161 266 104 c 128,-1,2
 275 47 275 47 286 22 c 1,3,-1
 286 0 l 1,4,-1
 111 0 l 1,5,-1
 111 22 l 1,6,7
 128 72 128 72 128 185 c 2,8,-1
 128 411 l 1,9,10
 69 409 69 409 40 406 c 1,11,-1
 70 490 l 1,12,-1
 128 487 l 1,13,-1
 128 541 l 2,14,15
 128 628 128 628 172 684 c 128,-1,16
 216 740 216 740 309 740 c 128,-1,17
 402 740 402 740 505 697 c 1,18,19
 471 620 471 620 445 587 c 1,20,21
 363 657 363 657 307 657 c 0,22,23
 285 657 285 657 272 649 c 1,24,25
 257 626 257 626 257 527 c 2,26,-1
 257 486 l 1,27,28
 301 488 301 488 413 495 c 1,29,-1
 377 397 l 1,30,31
 312 406 312 406 257 409 c 1,32,-1
 257 208 l 2,0,1
EndSplineSet
EndChar

StartChar: g
Encoding: 103 103 74
Width: 595
GlyphClass: 2
Flags: W
LayerCount: 2
Fore
SplineSet
66 321 m 0,0,1
 66 405 66 405 131.5 452 c 128,-1,2
 197 499 197 499 299 499 c 0,3,4
 371 499 371 499 425 472 c 1,5,6
 491 472 491 472 562 482 c 1,7,-1
 595 412 l 1,8,-1
 494 412 l 1,9,10
 520 368 520 368 520 321 c 0,11,12
 520 239 520 239 458.5 189.5 c 128,-1,13
 397 140 397 140 300 140 c 0,14,15
 263 140 263 140 239 146 c 1,16,17
 214 125 214 125 214 114.5 c 128,-1,18
 214 104 214 104 223.5 98 c 128,-1,19
 233 92 233 92 258 86 c 0,20,21
 284 80 284 80 320 73 c 0,22,23
 478 44 478 44 522.5 20.5 c 128,-1,24
 567 -3 567 -3 567 -59.5 c 128,-1,25
 567 -116 567 -116 524 -157 c 0,26,27
 444 -235 444 -235 278 -235 c 0,28,29
 194 -235 194 -235 118 -210 c 0,30,31
 78 -196 78 -196 53.5 -168 c 128,-1,32
 29 -140 29 -140 29 -102 c 0,33,34
 29 -21 29 -21 130 19 c 1,35,36
 72 45 72 45 72 80 c 0,37,38
 72 100 72 100 82 110 c 0,39,40
 113 141 113 141 144 152 c 0,41,42
 148 154 148 154 158 159 c 128,-1,43
 168 164 168 164 171 165 c 1,44,45
 66 215 66 215 66 321 c 0,0,1
214 252 m 1,46,47
 240 197 240 197 301 197 c 0,48,49
 344 197 344 197 360 211 c 1,50,51
 387 244 387 244 387 326 c 0,52,53
 387 441 387 441 288 441 c 0,54,55
 251 441 251 441 226 427 c 1,56,57
 199 388 199 388 199 334.5 c 128,-1,58
 199 281 199 281 214 252 c 1,46,47
156 -78 m 128,-1,60
 156 -129 156 -129 200.5 -153.5 c 128,-1,61
 245 -178 245 -178 294 -178 c 128,-1,62
 343 -178 343 -178 377.5 -159.5 c 128,-1,63
 412 -141 412 -141 412 -100 c 0,64,65
 412 -77 412 -77 403.5 -69.5 c 128,-1,66
 395 -62 395 -62 392 -59 c 128,-1,67
 389 -56 389 -56 381 -52.5 c 128,-1,68
 373 -49 373 -49 368.5 -47.5 c 128,-1,69
 364 -46 364 -46 353.5 -43 c 128,-1,70
 343 -40 343 -40 337.5 -38.5 c 128,-1,71
 332 -37 332 -37 319 -34 c 128,-1,72
 306 -31 306 -31 279 -24 c 0,73,74
 266 -20 266 -20 193 -6 c 1,75,59
 156 -27 156 -27 156 -78 c 128,-1,60
EndSplineSet
EndChar

StartChar: h
Encoding: 104 104 75
Width: 647
GlyphClass: 2
Flags: W
LayerCount: 2
Fore
SplineSet
224 188 m 2,0,1
 224 75 224 75 249 22 c 1,2,-1
 249 0 l 1,3,-1
 78 0 l 1,4,-1
 78 22 l 1,5,6
 95 77 95 77 95 167 c 2,7,-1
 95 560 l 2,8,9
 95 646 95 646 50 689 c 1,10,-1
 50 711 l 1,11,-1
 215 746 l 1,12,-1
 227 724 l 1,13,14
 224 696 224 696 224 528 c 2,15,-1
 224 418 l 1,16,17
 276 459 276 459 314 479 c 128,-1,18
 352 499 352 499 396 499 c 0,19,20
 476 499 476 499 519 452.5 c 128,-1,21
 562 406 562 406 562 318 c 2,22,-1
 562 191 l 2,23,24
 562 92 562 92 592 22 c 1,25,-1
 592 0 l 1,26,-1
 416 0 l 1,27,-1
 416 22 l 1,28,29
 433 69 433 69 433 157 c 2,30,-1
 433 282 l 2,31,32
 433 341 433 341 417.5 368 c 128,-1,33
 402 395 402 395 351.5 395 c 128,-1,34
 301 395 301 395 224 353 c 1,35,-1
 224 188 l 2,0,1
EndSplineSet
EndChar

StartChar: i
Encoding: 105 105 76
Width: 314
GlyphClass: 2
Flags: W
LayerCount: 2
Fore
SplineSet
217 717 m 1,0,1
 226 709 226 709 229.5 683 c 128,-1,2
 233 657 233 657 233 643 c 128,-1,3
 233 629 233 629 231 618 c 1,4,-1
 222 610 l 1,5,6
 178 597 178 597 107 592 c 1,7,-1
 96 597 l 1,8,9
 88 610 88 610 83.5 640 c 128,-1,10
 79 670 79 670 79 681.5 c 128,-1,11
 79 693 79 693 79 697 c 1,12,-1
 88 705 l 1,13,14
 142 723 142 723 195 723 c 2,15,-1
 206 723 l 1,16,-1
 217 717 l 1,0,1
236 393 m 2,17,-1
 236 179 l 2,18,19
 236 84 236 84 265 22 c 1,20,-1
 265 0 l 1,21,-1
 90 0 l 1,22,-1
 90 22 l 1,23,24
 107 73 107 73 107 157 c 2,25,-1
 107 305 l 2,26,27
 107 360 107 360 90 396.5 c 128,-1,28
 73 433 73 433 47 447 c 1,29,-1
 47 469 l 1,30,-1
 230 503 l 1,31,-1
 242 483 l 1,32,33
 236 460 236 460 236 393 c 2,17,-1
EndSplineSet
EndChar

StartChar: j
Encoding: 106 106 77
Width: 277
GlyphClass: 2
Flags: W
LayerCount: 2
Fore
SplineSet
211 384 m 2,0,-1
 211 114 l 2,1,2
 211 -43 211 -43 154 -122 c 0,3,4
 132 -151 132 -151 119 -164 c 0,5,6
 105 -178 105 -178 27 -250 c 1,7,-1
 -21 -203 l 1,8,9
 8 -179 8 -179 20 -164 c 1,10,11
 53 -127 53 -127 67.5 -60 c 128,-1,12
 82 7 82 7 82 152 c 2,13,-1
 82 302 l 2,14,15
 82 357 82 357 61.5 396 c 128,-1,16
 41 435 41 435 15 447 c 1,17,-1
 15 469 l 1,18,-1
 205 503 l 1,19,-1
 217 483 l 1,20,21
 211 456 211 456 211 384 c 2,0,-1
193 717 m 1,22,23
 202 709 202 709 205.5 683 c 128,-1,24
 209 657 209 657 209 643 c 128,-1,25
 209 629 209 629 207 618 c 1,26,-1
 198 610 l 1,27,28
 154 597 154 597 83 592 c 1,29,-1
 72 597 l 1,30,31
 64 610 64 610 59.5 640 c 128,-1,32
 55 670 55 670 55 681.5 c 128,-1,33
 55 693 55 693 55 697 c 1,34,-1
 64 705 l 1,35,36
 118 723 118 723 171 723 c 2,37,-1
 182 723 l 1,38,-1
 193 717 l 1,22,23
EndSplineSet
EndChar

StartChar: k
Encoding: 107 107 78
Width: 583
GlyphClass: 2
Flags: W
LayerCount: 2
Fore
SplineSet
241 0 m 1,0,-1
 79 0 l 1,1,-1
 79 22 l 1,2,3
 95 71 95 71 95 167 c 2,4,-1
 95 560 l 2,5,6
 95 646 95 646 50 689 c 1,7,-1
 50 711 l 1,8,-1
 215 746 l 1,9,-1
 227 724 l 1,10,11
 224 696 224 696 224 529 c 2,12,-1
 224 335 l 1,13,-1
 374 449 l 2,14,15
 397 467 397 467 397 486 c 1,16,-1
 554 486 l 1,17,-1
 554 464 l 1,18,19
 516 459 516 459 449 405 c 2,20,-1
 308 292 l 1,21,-1
 488 99 l 2,22,23
 504 82 504 82 539.5 54.5 c 128,-1,24
 575 27 575 27 598 22 c 1,25,-1
 598 0 l 1,26,-1
 408 0 l 1,27,28
 408 19 408 19 388 40 c 1,29,30
 361 73 361 73 224 224 c 1,31,-1
 224 179 l 2,32,33
 224 70 224 70 241 22 c 1,34,-1
 241 0 l 1,0,-1
EndSplineSet
EndChar

StartChar: l
Encoding: 108 108 79
Width: 297
GlyphClass: 2
Flags: W
LayerCount: 2
Fore
SplineSet
227 724 m 1,0,1
 223 676 223 676 223 610 c 128,-1,2
 223 544 223 544 224 529 c 1,3,-1
 224 167 l 2,4,5
 224 74 224 74 240 22 c 1,6,-1
 241 0 l 1,7,-1
 79 0 l 1,8,-1
 79 22 l 1,9,10
 95 74 95 74 95 167 c 2,11,-1
 95 560 l 2,12,13
 95 646 95 646 50 689 c 1,14,-1
 50 711 l 1,15,-1
 215 746 l 1,16,-1
 227 724 l 1,0,1
EndSplineSet
EndChar

StartChar: m
Encoding: 109 109 80
Width: 929
GlyphClass: 2
Flags: W
LayerCount: 2
Fore
SplineSet
397 499 m 0,0,1
 492 499 492 499 523 415 c 1,2,3
 556 442 556 442 576.5 457 c 128,-1,4
 597 472 597 472 628 485.5 c 128,-1,5
 659 499 659 499 687 499 c 0,6,7
 762 499 762 499 803 452.5 c 128,-1,8
 844 406 844 406 844 318 c 2,9,-1
 844 181 l 2,10,11
 844 92 844 92 874 22 c 1,12,-1
 874 0 l 1,13,-1
 698 0 l 1,14,-1
 698 22 l 1,15,16
 715 69 715 69 715 150 c 2,17,-1
 715 282 l 2,18,19
 715 339 715 339 701 367 c 128,-1,20
 687 395 687 395 642.5 395 c 128,-1,21
 598 395 598 395 536 360 c 1,22,23
 538 334 538 334 538 318 c 2,24,-1
 538 181 l 2,25,26
 538 92 538 92 568 22 c 1,27,-1
 568 0 l 1,28,-1
 402 0 l 1,29,-1
 402 22 l 1,30,31
 419 69 419 69 419 150 c 2,32,-1
 419 282 l 2,33,34
 419 339 419 339 406 367 c 128,-1,35
 393 395 393 395 351.5 395 c 128,-1,36
 310 395 310 395 241 353 c 1,37,-1
 241 179 l 2,38,39
 241 84 241 84 270 22 c 1,40,-1
 270 0 l 1,41,-1
 95 0 l 1,42,-1
 95 22 l 1,43,44
 112 73 112 73 112 157 c 2,45,-1
 112 305 l 2,46,47
 112 417 112 417 52 447 c 1,48,-1
 52 469 l 1,49,-1
 214 500 l 1,50,-1
 224 481 l 1,51,52
 232 461 232 461 236 417 c 1,53,54
 283 459 283 459 318.5 479 c 128,-1,55
 354 499 354 499 397 499 c 0,0,1
EndSplineSet
EndChar

StartChar: n
Encoding: 110 110 81
Width: 643
GlyphClass: 2
Flags: W
LayerCount: 2
Fore
SplineSet
401 499 m 0,0,1
 476 499 476 499 517 452.5 c 128,-1,2
 558 406 558 406 558 318 c 2,3,-1
 558 191 l 2,4,5
 558 92 558 92 588 22 c 1,6,-1
 588 0 l 1,7,-1
 412 0 l 1,8,-1
 412 22 l 1,9,10
 429 69 429 69 429 157 c 2,11,-1
 429 282 l 2,12,13
 429 340 429 340 415 367.5 c 128,-1,14
 401 395 401 395 355 395 c 128,-1,15
 309 395 309 395 238 353 c 1,16,-1
 238 189 l 2,17,18
 238 84 238 84 267 22 c 1,19,-1
 267 0 l 1,20,-1
 92 0 l 1,21,-1
 92 22 l 1,22,23
 109 73 109 73 109 164 c 2,24,-1
 109 298 l 2,25,26
 109 417 109 417 49 447 c 1,27,-1
 49 469 l 1,28,-1
 211 500 l 1,29,-1
 222 481 l 1,30,31
 230 457 230 457 233 417 c 1,32,33
 284 458 284 458 321.5 478.5 c 128,-1,34
 359 499 359 499 401 499 c 0,0,1
EndSplineSet
EndChar

StartChar: o
Encoding: 111 111 82
Width: 608
GlyphClass: 2
Flags: W
LayerCount: 2
Fore
SplineSet
110.5 49 m 128,-1,1
 44 117 44 117 44 228 c 128,-1,2
 44 339 44 339 121 418.5 c 128,-1,3
 198 498 198 498 317.5 498 c 128,-1,4
 437 498 437 498 500.5 431.5 c 128,-1,5
 564 365 564 365 564 253 c 128,-1,6
 564 141 564 141 487 61 c 128,-1,7
 410 -19 410 -19 293.5 -19 c 128,-1,0
 177 -19 177 -19 110.5 49 c 128,-1,1
420 228 m 0,8,9
 420 325 420 325 392 379.5 c 128,-1,10
 364 434 364 434 294 434 c 0,11,12
 249 434 249 434 224 412 c 1,13,14
 208 389 208 389 198 343 c 128,-1,15
 188 297 188 297 188 254 c 0,16,17
 188 45 188 45 321 45 c 0,18,19
 361 45 361 45 386 66 c 1,20,21
 403 89 403 89 411.5 136.5 c 128,-1,22
 420 184 420 184 420 228 c 0,8,9
EndSplineSet
EndChar

StartChar: p
Encoding: 112 112 83
Width: 633
GlyphClass: 2
Flags: W
LayerCount: 2
Fore
SplineSet
352 59 m 0,0,1
 376 59 376 59 396 64 c 1,2,3
 420 94 420 94 432 149.5 c 128,-1,4
 444 205 444 205 444 250 c 0,5,6
 444 408 444 408 361 408 c 0,7,8
 301 408 301 408 229 363 c 1,9,-1
 229 90 l 1,10,11
 294 59 294 59 352 59 c 0,0,1
100 -90 m 2,12,-1
 100 304 l 2,13,14
 100 348 100 348 86.5 387.5 c 128,-1,15
 73 427 73 427 51 439 c 1,16,-1
 49 461 l 1,17,-1
 212 500 l 1,18,-1
 224 481 l 1,19,20
 222 466 222 466 222 432 c 1,21,22
 289 499 289 499 362 499 c 0,23,24
 463 499 463 499 525.5 432 c 128,-1,25
 588 365 588 365 588 269 c 0,26,27
 588 150 588 150 504 66 c 128,-1,28
 420 -18 420 -18 313 -18 c 0,29,30
 270 -18 270 -18 229 -9 c 1,31,-1
 229 -36 l 2,32,33
 229 -155 229 -155 269 -200 c 1,34,-1
 269 -222 l 1,35,-1
 96 -243 l 1,36,37
 100 -191 100 -191 100 -90 c 2,12,-1
EndSplineSet
EndChar

StartChar: q
Encoding: 113 113 84
Width: 586
GlyphClass: 2
Flags: W
LayerCount: 2
Fore
SplineSet
401 -20 m 2,0,-1
 401 40 l 1,1,2
 341 -18 341 -18 269 -18 c 0,3,4
 159 -18 159 -18 101.5 55 c 128,-1,5
 44 128 44 128 44 237 c 128,-1,6
 44 346 44 346 119 422.5 c 128,-1,7
 194 499 194 499 310 499 c 0,8,9
 374 499 374 499 445 472 c 1,10,-1
 486 499 l 2,11,12
 487 499 487 499 491.5 499 c 128,-1,13
 496 499 496 499 513 495.5 c 128,-1,14
 530 492 530 492 536 489 c 1,15,16
 530 443 530 443 530 349 c 2,17,-1
 530 -90 l 2,18,19
 530 -189 530 -189 534 -241 c 1,20,-1
 361 -230 l 1,21,-1
 361 -208 l 1,22,23
 401 -156 401 -156 401 -20 c 2,0,-1
234 100 m 0,24,25
 260 71 260 71 303 71 c 128,-1,26
 346 71 346 71 401 111 c 1,27,-1
 401 404 l 1,28,29
 351 427 351 427 286 427 c 0,30,31
 267 427 267 427 250 422.5 c 128,-1,32
 233 418 233 418 229 414 c 0,33,34
 188 363 188 363 188 257 c 128,-1,35
 188 151 188 151 234 100 c 0,24,25
EndSplineSet
EndChar

StartChar: r
Encoding: 114 114 85
Width: 412
GlyphClass: 2
Flags: W
LayerCount: 2
Fore
SplineSet
263 0 m 1,0,-1
 88 0 l 1,1,-1
 88 22 l 1,2,3
 105 76 105 76 105 156 c 2,4,-1
 105 305 l 2,5,6
 105 349 105 349 88.5 390.5 c 128,-1,7
 72 432 72 432 49 445 c 1,8,-1
 49 467 l 1,9,-1
 190 500 l 1,10,-1
 200 486 l 2,11,12
 206 477 206 477 218 445 c 1,13,14
 283 499 283 499 354 499 c 0,15,16
 389 499 389 499 419 485 c 1,17,18
 419 480 419 480 419 476 c 0,19,20
 419 413 419 413 394 350 c 1,21,22
 341 387 341 387 280 387 c 0,23,24
 261 387 261 387 234 381 c 1,25,-1
 234 184 l 2,26,27
 234 88 234 88 263 22 c 1,28,-1
 263 0 l 1,0,-1
EndSplineSet
EndChar

StartChar: s
Encoding: 115 115 86
Width: 504
GlyphClass: 2
Flags: W
LayerCount: 2
Fore
SplineSet
276 65 m 0,0,1
 333 65 333 65 333 120 c 0,2,3
 333 171 333 171 236 197 c 0,4,5
 196 208 196 208 156 222 c 128,-1,6
 116 236 116 236 88 267 c 128,-1,7
 60 298 60 298 60 346 c 0,8,9
 60 415 60 415 122 453.5 c 128,-1,10
 184 492 184 492 273 492 c 128,-1,11
 362 492 362 492 459 449 c 1,12,13
 454 405 454 405 405 343 c 1,14,15
 365 383 365 383 322 404 c 128,-1,16
 279 425 279 425 247 425 c 128,-1,17
 215 425 215 425 198 418 c 1,18,19
 183 405 183 405 183 375.5 c 128,-1,20
 183 346 183 346 211.5 330 c 128,-1,21
 240 314 240 314 281 304.5 c 128,-1,22
 322 295 322 295 363 281 c 128,-1,23
 404 267 404 267 432.5 233.5 c 128,-1,24
 461 200 461 200 461 146 c 0,25,26
 461 68 461 68 400.5 28.5 c 128,-1,27
 340 -11 340 -11 240 -11 c 128,-1,28
 140 -11 140 -11 49 46 c 1,29,30
 53 106 53 106 94 157 c 1,31,32
 193 65 193 65 276 65 c 0,0,1
EndSplineSet
EndChar

StartChar: t
Encoding: 116 116 87
Width: 423
GlyphClass: 2
Flags: W
LayerCount: 2
Fore
SplineSet
246 116 m 2,0,1
 246 80 246 80 265 80 c 0,2,3
 292 80 292 80 366 111 c 1,4,-1
 396 66 l 1,5,6
 356 40 356 40 301 14.5 c 128,-1,7
 246 -11 246 -11 205 -11 c 0,8,9
 117 -11 117 -11 117 90 c 2,10,-1
 117 408 l 1,11,12
 102 408 102 408 18 401 c 1,13,-1
 54 491 l 1,14,15
 72 488 72 488 118 486 c 1,16,17
 116 532 116 532 112 571 c 1,18,-1
 246 605 l 1,19,-1
 246 487 l 1,20,21
 286 488 286 488 403 500 c 1,22,-1
 364 397 l 1,23,24
 313 406 313 406 246 408 c 1,25,-1
 246 116 l 2,0,1
EndSplineSet
EndChar

StartChar: u
Encoding: 117 117 88
Width: 640
GlyphClass: 2
Flags: W
LayerCount: 2
Fore
SplineSet
258 -13 m 0,0,1
 156 -13 156 -13 120.5 30.5 c 128,-1,2
 85 74 85 74 85 172 c 2,3,-1
 85 291 l 2,4,5
 85 390 85 390 55 458 c 1,6,-1
 55 480 l 1,7,-1
 229 480 l 1,8,-1
 229 456 l 1,9,10
 214 404 214 404 214 321 c 2,11,-1
 214 188 l 2,12,13
 214 138 214 138 231 110.5 c 128,-1,14
 248 83 248 83 279 83 c 0,15,16
 332 83 332 83 405 134 c 1,17,-1
 405 291 l 2,18,19
 405 392 405 392 376 458 c 1,20,-1
 376 480 l 1,21,-1
 549 480 l 1,22,-1
 549 456 l 1,23,24
 534 404 534 404 534 321 c 2,25,-1
 534 188 l 2,26,27
 534 143 534 143 548.5 100 c 128,-1,28
 563 57 563 57 583 40 c 1,29,-1
 586 18 l 1,30,-1
 429 -22 l 1,31,32
 408 14 408 14 405 59 c 1,33,34
 319 -13 319 -13 258 -13 c 0,0,1
EndSplineSet
EndChar

StartChar: v
Encoding: 118 118 89
Width: 496
GlyphClass: 2
Flags: W
LayerCount: 2
Fore
SplineSet
166 482 m 2,0,1
 166 458 166 458 207 332 c 1,2,-1
 268 156 l 1,3,-1
 336 371 l 2,4,5
 354 425 354 425 354 474 c 2,6,-1
 354 486 l 1,7,-1
 497 486 l 1,8,-1
 497 464 l 1,9,10
 468 445 468 445 440 366 c 2,11,-1
 326 45 l 1,12,-1
 312 -7 l 1,13,-1
 190 -11 l 1,14,-1
 172 47 l 1,15,-1
 53 370 l 2,16,17
 42 400 42 400 24 427 c 128,-1,18
 6 454 6 454 -6 459 c 1,19,-1
 -6 481 l 1,20,-1
 166 494 l 1,21,-1
 166 482 l 2,0,1
EndSplineSet
EndChar

StartChar: w
Encoding: 119 119 90
Width: 797
GlyphClass: 2
Flags: W
LayerCount: 2
Fore
SplineSet
161 478 m 2,0,1
 161 455 161 455 204 329 c 1,2,-1
 264 159 l 1,3,4
 296 249 296 249 316 301 c 0,5,6
 335 350 335 350 351 408 c 1,7,8
 330 453 330 453 320 461 c 1,9,-1
 320 483 l 1,10,-1
 472 490 l 1,11,-1
 472 475 l 2,12,13
 472 447 472 447 516 322 c 1,14,-1
 575 159 l 1,15,16
 639 359 639 359 649.5 395.5 c 128,-1,17
 660 432 660 432 660 476 c 2,18,-1
 660 486 l 1,19,-1
 796 486 l 1,20,-1
 795 463 l 1,21,22
 768 444 768 444 743 365 c 2,23,-1
 639 45 l 1,24,-1
 626 -9 l 1,25,-1
 510 -11 l 1,26,-1
 492 47 l 1,27,-1
 405 270 l 1,28,-1
 324 44 l 1,29,-1
 313 -9 l 1,30,-1
 200 -11 l 1,31,-1
 182 47 l 1,32,-1
 51 370 l 2,33,34
 37 404 37 404 20.5 429 c 128,-1,35
 4 454 4 454 -6 459 c 1,36,-1
 -6 481 l 1,37,-1
 161 493 l 1,38,-1
 161 478 l 2,0,1
EndSplineSet
EndChar

StartChar: x
Encoding: 120 120 91
Width: 530
GlyphClass: 2
Flags: W
LayerCount: 2
Fore
SplineSet
533 0 m 1,0,-1
 330 0 l 1,1,-1
 330 15 l 2,2,3
 330 55 330 55 292 105 c 2,4,-1
 251 160 l 1,5,-1
 207 93 l 2,6,7
 174 43 174 43 173 15 c 1,8,-1
 173 0 l 1,9,-1
 0 0 l 1,10,-1
 0 22 l 1,11,12
 22 29 22 29 53 55 c 128,-1,13
 84 81 84 81 106 115 c 2,14,-1
 189 244 l 1,15,-1
 114 346 l 2,16,17
 84 387 84 387 49 423.5 c 128,-1,18
 14 460 14 460 -1 464 c 1,19,-1
 -1 486 l 1,20,-1
 186 486 l 1,21,-1
 186 472 l 2,22,23
 186 446 186 446 234 385 c 1,24,-1
 269 338 l 1,25,-1
 303 391 l 2,26,27
 337 445 337 445 337 473 c 2,28,-1
 337 487 l 1,29,-1
 509 486 l 1,30,-1
 509 464 l 1,31,32
 453 446 453 446 403 367 c 2,33,-1
 331 254 l 1,34,-1
 417 141 l 2,35,36
 451 96 451 96 485 62 c 128,-1,37
 519 28 519 28 533 22 c 1,38,-1
 533 0 l 1,0,-1
EndSplineSet
EndChar

StartChar: y
Encoding: 121 121 92
Width: 503
GlyphClass: 2
Flags: W
LayerCount: 2
Fore
SplineSet
166 479 m 2,0,1
 166 431 166 431 201 338 c 2,2,-1
 279 129 l 1,3,4
 363 388 363 388 363 436 c 2,5,-1
 363 438 l 2,6,7
 363 453 363 453 358 464 c 1,8,-1
 358 486 l 1,9,-1
 503 486 l 1,10,-1
 503 464 l 1,11,12
 490 450 490 450 462.5 376 c 128,-1,13
 435 302 435 302 343.5 41.5 c 128,-1,14
 252 -219 252 -219 249 -228 c 1,15,-1
 249 -246 l 1,16,-1
 87 -255 l 1,17,-1
 84 -233 l 1,18,19
 112 -199 112 -199 130 -174 c 0,20,21
 179 -105 179 -105 216 -9 c 1,22,-1
 73 320 l 2,23,24
 24 434 24 434 -7 460 c 1,25,-1
 -7 482 l 1,26,-1
 166 493 l 1,27,-1
 166 479 l 2,0,1
EndSplineSet
EndChar

StartChar: z
Encoding: 122 122 93
Width: 469
GlyphClass: 2
Flags: W
LayerCount: 2
Fore
SplineSet
444 426 m 1,0,-1
 171 82 l 1,1,2
 343 82 343 82 423 103 c 1,3,-1
 445 97 l 1,4,-1
 410 0 l 1,5,-1
 44 0 l 1,6,-1
 15 59 l 1,7,-1
 294 404 l 1,8,9
 123 404 123 404 66 379 c 1,10,-1
 44 392 l 1,11,-1
 69 489 l 1,12,-1
 412 486 l 1,13,-1
 444 426 l 1,0,-1
EndSplineSet
EndChar

StartChar: braceleft
Encoding: 123 123 94
Width: 446
GlyphClass: 2
Flags: W
LayerCount: 2
Fore
SplineSet
259 104 m 2,0,-1
 259 35 l 2,1,2
 259 -79 259 -79 280 -102 c 0,3,4
 291 -113 291 -113 319 -113 c 128,-1,5
 347 -113 347 -113 403 -103 c 1,6,-1
 411 -149 l 1,7,8
 333 -168 333 -168 290.5 -168 c 128,-1,9
 248 -168 248 -168 218.5 -156.5 c 128,-1,10
 189 -145 189 -145 172 -127 c 128,-1,11
 155 -109 155 -109 146 -78 c 0,12,13
 132 -31 132 -31 132 52 c 2,14,-1
 132 134 l 2,15,16
 132 213 132 213 79 248 c 0,17,18
 69 254 69 254 53 262 c 1,19,-1
 53 278 l 1,20,21
 75 292 75 292 89.5 304 c 128,-1,22
 104 316 104 316 118.5 346 c 128,-1,23
 133 376 133 376 133 415 c 2,24,-1
 133 529 l 2,25,26
 133 660 133 660 170 704 c 0,27,28
 185 722 185 722 215.5 735 c 128,-1,29
 246 748 246 748 292.5 748 c 128,-1,30
 339 748 339 748 410 729 c 1,31,-1
 402 683 l 1,32,33
 346 693 346 693 311 693 c 128,-1,34
 276 693 276 693 267.5 657.5 c 128,-1,35
 259 622 259 622 259 550 c 2,36,-1
 259 434 l 2,37,38
 259 366 259 366 225 326 c 0,39,40
 201 299 201 299 162 273 c 1,41,-1
 162 267 l 1,42,43
 259 209 259 209 259 104 c 2,0,-1
EndSplineSet
EndChar

StartChar: bar
Encoding: 124 124 95
Width: 274
GlyphClass: 2
Flags: W
LayerCount: 2
Fore
SplineSet
192 580 m 2,0,-1
 192 -143 l 1,1,-1
 74 -189 l 1,2,-1
 73 690 l 1,3,-1
 73 695 l 1,4,-1
 201 739 l 1,5,6
 192 620 192 620 192 580 c 2,0,-1
EndSplineSet
EndChar

StartChar: braceright
Encoding: 125 125 96
Width: 446
GlyphClass: 2
Flags: W
LayerCount: 2
Fore
SplineSet
187 35 m 2,0,-1
 187 104 l 2,1,2
 187 209 187 209 284 267 c 1,3,-1
 284 273 l 1,4,5
 212 321 212 321 196 373 c 0,6,7
 187 400 187 400 187 434 c 2,8,-1
 187 550 l 2,9,10
 187 622 187 622 178.5 657.5 c 128,-1,11
 170 693 170 693 135 693 c 128,-1,12
 100 693 100 693 44 683 c 1,13,-1
 36 729 l 1,14,15
 107 748 107 748 153.5 748 c 128,-1,16
 200 748 200 748 230.5 735 c 128,-1,17
 261 722 261 722 276.5 703.5 c 128,-1,18
 292 685 292 685 300 652 c 1,19,20
 313 605 313 605 313 529 c 2,21,-1
 313 415 l 2,22,23
 313 376 313 376 327.5 346 c 128,-1,24
 342 316 342 316 356.5 304 c 128,-1,25
 371 292 371 292 393 278 c 1,26,-1
 393 262 l 1,27,28
 336 233 336 233 322 188 c 0,29,30
 314 165 314 165 314 134 c 2,31,-1
 314 52 l 2,32,33
 314 -85 314 -85 274 -127 c 0,34,35
 235 -168 235 -168 156 -168 c 0,36,37
 113 -168 113 -168 35 -149 c 1,38,-1
 43 -103 l 1,39,40
 99 -113 99 -113 134.5 -113 c 128,-1,41
 170 -113 170 -113 178.5 -76 c 128,-1,42
 187 -39 187 -39 187 35 c 2,0,-1
EndSplineSet
EndChar

StartChar: asciitilde
Encoding: 126 126 97
Width: 672
GlyphClass: 2
Flags: W
LayerCount: 2
Fore
SplineSet
440 206 m 0,0,1
 405 206 405 206 336 232.5 c 128,-1,2
 267 259 267 259 226 259 c 128,-1,3
 185 259 185 259 125 215 c 1,4,-1
 80 302 l 1,5,6
 168 350 168 350 230 350 c 0,7,8
 262 350 262 350 335 323 c 128,-1,9
 408 296 408 296 448.5 296 c 128,-1,10
 489 296 489 296 549 337 c 1,11,-1
 592 251 l 1,12,13
 512 206 512 206 440 206 c 0,0,1
EndSplineSet
EndChar

StartChar: exclamdown
Encoding: 161 161 98
Width: 306
GlyphClass: 2
Flags: W
LayerCount: 2
Fore
SplineSet
114 302 m 1,0,-1
 223 282 l 1,1,2
 223 273 223 273 232 48.5 c 128,-1,3
 241 -176 241 -176 248 -216 c 1,4,-1
 235 -235 l 1,5,-1
 63 -208 l 1,6,-1
 63 -191 l 1,7,8
 99 -168 99 -168 105 -102 c 1,9,10
 114 75 114 75 114 302 c 1,0,-1
110 387 m 1,11,12
 109 393 109 393 109 405.5 c 128,-1,13
 109 418 109 418 114 445.5 c 128,-1,14
 119 473 119 473 127 487 c 1,15,-1
 138 492 l 1,16,17
 196 488 196 488 245 474 c 1,18,-1
 254 466 l 1,19,20
 256 455 256 455 256 441 c 128,-1,21
 256 427 256 427 252.5 401 c 128,-1,22
 249 375 249 375 240 367 c 1,23,-1
 229 361 l 1,24,25
 174 361 174 361 119 379 c 1,26,-1
 110 387 l 1,11,12
EndSplineSet
EndChar

StartChar: cent
Encoding: 162 162 99
Width: 538
GlyphClass: 2
Flags: W
LayerCount: 2
Fore
SplineSet
104 52.5 m 128,-1,1
 40 122 40 122 40 230 c 128,-1,2
 40 338 40 338 110 410.5 c 128,-1,3
 180 483 180 483 281 496 c 1,4,5
 281 543 281 543 277 584 c 1,6,-1
 353 610 l 1,7,-1
 358 596 l 1,8,9
 352 548 352 548 350 497 c 1,10,11
 436 487 436 487 497 448 c 1,12,13
 463 391 463 391 433 359 c 1,14,15
 390 391 390 391 350 407 c 1,16,-1
 350 79 l 1,17,18
 402 93 402 93 475 132 c 1,19,-1
 501 91 l 1,20,21
 434 28 434 28 350 -3 c 1,22,23
 350 -80 350 -80 354 -115 c 1,24,-1
 274 -131 l 1,25,-1
 269 -117 l 1,26,27
 277 -56 277 -56 279 -18 c 1,28,0
 168 -17 168 -17 104 52.5 c 128,-1,1
184 246 m 0,29,30
 184 75 184 75 281 71 c 1,31,-1
 281 421 l 1,32,-1
 278 421 l 2,33,34
 259 421 259 421 244 418 c 1,35,36
 218 394 218 394 201 348 c 128,-1,37
 184 302 184 302 184 246 c 0,29,30
EndSplineSet
EndChar

StartChar: sterling
Encoding: 163 163 100
Width: 558
GlyphClass: 2
Flags: W
LayerCount: 2
Fore
SplineSet
175 114 m 128,-1,1
 209 155 209 155 209 198.5 c 128,-1,2
 209 242 209 242 171 335 c 1,3,4
 81 332 81 332 16 327 c 1,5,-1
 52 410 l 1,6,-1
 66 410 l 1,7,8
 106 402 106 402 137 402 c 1,9,10
 102 468 102 468 102 517 c 0,11,12
 102 592 102 592 169.5 649 c 128,-1,13
 237 706 237 706 346.5 706 c 128,-1,14
 456 706 456 706 530 661 c 1,15,16
 499 615 499 615 470 585 c 1,17,18
 397 635 397 635 335 635 c 0,19,20
 316 635 316 635 299 633 c 1,21,22
 275 619 275 619 260.5 586 c 128,-1,23
 246 553 246 553 246 517 c 128,-1,24
 246 481 246 481 276 402 c 1,25,26
 303 402 303 402 354.5 404 c 128,-1,27
 406 406 406 406 428 406 c 1,28,-1
 393 326 l 1,29,-1
 379 326 l 1,30,31
 343 332 343 332 306 332 c 1,32,33
 334 265 334 265 334 227 c 0,34,35
 334 172 334 172 276 104 c 0,36,37
 267 94 267 94 261.5 89 c 128,-1,38
 256 84 256 84 243 71 c 1,39,40
 432 78 432 78 515 130 c 1,41,-1
 537 130 l 1,42,-1
 504 -12 l 1,43,-1
 14 -12 l 1,44,-1
 71 59 l 1,45,0
 141 73 141 73 175 114 c 128,-1,1
EndSplineSet
EndChar

StartChar: currency
Encoding: 164 164 101
Width: 676
GlyphClass: 2
Flags: W
LayerCount: 2
Fore
SplineSet
445 181 m 1,0,1
 390 146 390 146 329.5 146 c 128,-1,2
 269 146 269 146 214 181 c 1,3,-1
 158 119 l 1,4,-1
 75 153 l 1,5,-1
 155 227 l 1,6,7
 115 282 115 282 115 347 c 128,-1,8
 115 412 115 412 157 470 c 1,9,-1
 75 547 l 1,10,-1
 158 578 l 1,11,-1
 214 517 l 1,12,13
 266 550 266 550 328 550 c 128,-1,14
 390 550 390 550 442 517 c 1,15,-1
 487 568 l 1,16,-1
 498 579 l 1,17,-1
 581 548 l 1,18,-1
 497 471 l 1,19,20
 539 416 539 416 539 346.5 c 128,-1,21
 539 277 539 277 496 227 c 1,22,-1
 580 150 l 1,23,-1
 499 119 l 1,24,-1
 445 181 l 1,0,1
439 351 m 128,-1,26
 439 399 439 399 407 432.5 c 128,-1,27
 375 466 375 466 326.5 466 c 128,-1,28
 278 466 278 466 247 432.5 c 128,-1,29
 216 399 216 399 216 351 c 128,-1,30
 216 303 216 303 247 270 c 128,-1,31
 278 237 278 237 326.5 237 c 128,-1,32
 375 237 375 237 407 270 c 128,-1,25
 439 303 439 303 439 351 c 128,-1,26
EndSplineSet
EndChar

StartChar: yen
Encoding: 165 165 102
Width: 596
GlyphClass: 2
Flags: W
LayerCount: 2
Fore
SplineSet
372 240 m 1,0,-1
 372 238 l 2,1,2
 372 200 372 200 376.5 124 c 128,-1,3
 381 48 381 48 387 24 c 1,4,-1
 387 0 l 1,5,-1
 225 0 l 1,6,-1
 225 24 l 1,7,8
 240 84 240 84 240 208 c 2,9,-1
 240 240 l 1,10,-1
 150 240 l 2,11,12
 106 240 106 240 11 233 c 1,13,-1
 46 315 l 1,14,-1
 234 315 l 1,15,-1
 142 488 l 1,16,17
 103 556 103 556 61.5 613.5 c 128,-1,18
 20 671 20 671 2 679 c 1,19,-1
 2 700 l 1,20,-1
 187 700 l 1,21,-1
 187 678 l 2,22,23
 187 637 187 637 226.5 555.5 c 128,-1,24
 266 474 266 474 321 373 c 1,25,26
 405 549 405 549 424 599 c 128,-1,27
 443 649 443 649 443 678 c 2,28,-1
 443 700 l 1,29,-1
 588 700 l 1,30,-1
 588 680 l 1,31,32
 551 654 551 654 500 564 c 0,33,34
 481 532 481 532 434 433.5 c 128,-1,35
 387 335 387 335 377 315 c 1,36,-1
 457 315 l 2,37,38
 502 315 502 315 596 322 c 1,39,-1
 565 240 l 1,40,-1
 372 240 l 1,0,-1
EndSplineSet
EndChar

StartChar: brokenbar
Encoding: 166 166 103
Width: 274
GlyphClass: 2
Flags: W
LayerCount: 2
Fore
SplineSet
192 235 m 1,0,-1
 192 -143 l 1,1,-1
 74 -189 l 1,2,-1
 73 235 l 1,3,-1
 192 235 l 1,0,-1
192 355 m 1,4,-1
 73 355 l 1,5,-1
 73 695 l 1,6,-1
 201 739 l 1,7,8
 192 620 192 620 192 580 c 2,9,-1
 192 355 l 1,4,-1
EndSplineSet
EndChar

StartChar: section
Encoding: 167 167 104
Width: 622
GlyphClass: 2
Flags: W
LayerCount: 2
Fore
SplineSet
313 -98 m 0,0,1
 323 -98 323 -98 343 -96 c 1,2,3
 343 -11 343 -11 309 63 c 0,4,5
 297 89 297 89 267.5 123.5 c 128,-1,6
 238 158 238 158 225.5 170.5 c 128,-1,7
 213 183 213 183 173.5 219.5 c 128,-1,8
 134 256 134 256 111 282.5 c 128,-1,9
 88 309 88 309 67.5 356.5 c 128,-1,10
 47 404 47 404 47 459 c 0,11,12
 47 543 47 543 90 604 c 0,13,14
 171 717 171 717 325 717 c 0,15,16
 419 717 419 717 511 679 c 1,17,18
 510 654 510 654 495.5 617.5 c 128,-1,19
 481 581 481 581 463 555 c 1,20,21
 384 636 384 636 312 636 c 0,22,23
 286 636 286 636 264 629 c 1,24,25
 266 546 266 546 311 486 c 0,26,27
 334 456 334 456 353 436.5 c 128,-1,28
 372 417 372 417 406.5 387.5 c 128,-1,29
 441 358 441 358 455 345 c 128,-1,30
 469 332 469 332 496.5 302 c 128,-1,31
 524 272 524 272 536 248 c 0,32,33
 569 182 569 182 569 110 c 0,34,35
 569 -23 569 -23 488 -104 c 128,-1,36
 407 -185 407 -185 292 -185 c 0,37,38
 241 -185 241 -185 180.5 -166.5 c 128,-1,39
 120 -148 120 -148 74 -115 c 1,40,41
 77 -48 77 -48 123 9 c 1,42,43
 224 -98 224 -98 313 -98 c 0,0,1
183 582 m 1,44,45
 145 547 145 547 145 481.5 c 128,-1,46
 145 416 145 416 173 370.5 c 128,-1,47
 201 325 201 325 246.5 281 c 128,-1,48
 292 237 292 237 306 222.5 c 128,-1,49
 320 208 320 208 349 172.5 c 128,-1,50
 378 137 378 137 391 110 c 0,51,52
 427 37 427 37 427 -44 c 1,53,54
 442 -25 442 -25 453 12.5 c 128,-1,55
 464 50 464 50 464 89 c 0,56,57
 464 170 464 170 432.5 222.5 c 128,-1,58
 401 275 401 275 340 328 c 0,59,60
 306 358 306 358 295 367.5 c 128,-1,61
 284 377 284 377 257 406 c 128,-1,62
 230 435 230 435 220 456 c 0,63,64
 186 523 186 523 183 582 c 1,44,45
EndSplineSet
EndChar

StartChar: dieresis
Encoding: 168 168 105
Width: 544
GlyphClass: 2
Flags: W
LayerCount: 2
Fore
SplineSet
225 676 m 1,0,1
 232 668 232 668 235.5 642 c 128,-1,2
 239 616 239 616 239 602 c 128,-1,3
 239 588 239 588 238 579 c 1,4,-1
 226 568 l 1,5,6
 180 556 180 556 135 553 c 1,7,-1
 119 553 l 1,8,-1
 104 558 l 1,9,10
 82 597 82 597 82 656 c 1,11,-1
 97 667 l 1,12,13
 147 680 147 680 191 682 c 1,14,-1
 213 682 l 1,15,-1
 225 676 l 1,0,1
439 687 m 1,16,17
 446 679 446 679 449.5 653 c 128,-1,18
 453 627 453 627 453 613 c 128,-1,19
 453 599 453 599 452 590 c 1,20,-1
 440 579 l 1,21,22
 394 567 394 567 349 564 c 1,23,-1
 333 564 l 1,24,-1
 318 569 l 1,25,26
 296 608 296 608 296 667 c 1,27,-1
 311 678 l 1,28,29
 361 691 361 691 405 693 c 1,30,-1
 427 693 l 1,31,-1
 439 687 l 1,16,17
EndSplineSet
EndChar

StartChar: copyright
Encoding: 169 169 106
Width: 784
GlyphClass: 2
Flags: W
LayerCount: 2
Fore
SplineSet
647.5 606.5 m 128,-1,1
 753 502 753 502 753 353 c 128,-1,2
 753 204 753 204 648.5 98.5 c 128,-1,3
 544 -7 544 -7 394 -7 c 128,-1,4
 244 -7 244 -7 137.5 98.5 c 128,-1,5
 31 204 31 204 31 352 c 128,-1,6
 31 500 31 500 137.5 605.5 c 128,-1,7
 244 711 244 711 393 711 c 128,-1,0
 542 711 542 711 647.5 606.5 c 128,-1,1
591.5 147.5 m 128,-1,9
 675 232 675 232 675 351 c 128,-1,10
 675 470 675 470 593 555.5 c 128,-1,11
 511 641 511 641 394.5 641 c 128,-1,12
 278 641 278 641 195 556 c 128,-1,13
 112 471 112 471 112 352 c 128,-1,14
 112 233 112 233 194.5 148 c 128,-1,15
 277 63 277 63 392.5 63 c 128,-1,8
 508 63 508 63 591.5 147.5 c 128,-1,9
340.5 273.5 m 128,-1,17
 359 238 359 238 395.5 238 c 128,-1,18
 432 238 432 238 475.5 253 c 128,-1,19
 519 268 519 268 535 278 c 1,20,-1
 566 233 l 2,21,22
 565 233 565 233 555.5 226 c 128,-1,23
 546 219 546 219 514 201 c 0,24,25
 442 160 442 160 393 160 c 0,26,27
 307 160 307 160 257 214 c 128,-1,28
 207 268 207 268 207 355 c 128,-1,29
 207 442 207 442 271.5 500.5 c 128,-1,30
 336 559 336 559 422 559 c 128,-1,31
 508 559 508 559 562 517 c 1,32,33
 538 474 538 474 509 447 c 1,34,35
 438 490 438 490 401 490 c 0,36,37
 386 490 386 490 369 487 c 1,38,39
 347 474 347 474 334.5 439 c 128,-1,40
 322 404 322 404 322 356.5 c 128,-1,16
 322 309 322 309 340.5 273.5 c 128,-1,17
EndSplineSet
EndChar

StartChar: ordfeminine
Encoding: 170 170 107
Width: 372
GlyphClass: 2
Flags: W
LayerCount: 2
Fore
SplineSet
214 526 m 1,0,1
 192 535 192 535 165 535 c 128,-1,2
 138 535 138 535 126 524 c 1,3,4
 119 507 119 507 119 487 c 0,5,6
 119 443 119 443 160 443 c 0,7,8
 172 443 172 443 188.5 451 c 128,-1,9
 205 459 205 459 214 470 c 1,10,-1
 214 526 l 1,0,1
224 434 m 1,11,12
 192 394 192 394 140.5 394 c 128,-1,13
 89 394 89 394 59 416 c 128,-1,14
 29 438 29 438 29 481 c 0,15,16
 29 579 29 579 160 579 c 1,17,-1
 215 577 l 1,18,-1
 215 612 l 2,19,20
 215 666 215 666 164 666 c 0,21,22
 140 666 140 666 78 609 c 1,23,24
 65 624 65 624 54 648 c 128,-1,25
 43 672 43 672 42 690 c 1,26,27
 117 714 117 714 175.5 714 c 128,-1,28
 234 714 234 714 269.5 687.5 c 128,-1,29
 305 661 305 661 305 612 c 2,30,-1
 305 509 l 2,31,32
 305 447 305 447 334 424 c 1,33,-1
 337 410 l 1,34,-1
 240 392 l 1,35,36
 226 424 226 424 224 434 c 1,11,12
EndSplineSet
EndChar

StartChar: guillemotleft
Encoding: 171 171 108
Width: 632
GlyphClass: 2
Flags: W
LayerCount: 2
Fore
SplineSet
297 253 m 1,0,-1
 290 276 l 1,1,2
 338 303 338 303 354 317 c 2,3,-1
 516 457 l 1,4,-1
 563 410 l 1,5,-1
 430 267 l 1,6,-1
 570 118 l 1,7,-1
 517 64 l 1,8,9
 476 107 476 107 463 117 c 2,10,-1
 335 224 l 1,11,-1
 297 253 l 1,0,-1
70 253 m 1,12,-1
 63 276 l 1,13,14
 111 303 111 303 127 317 c 2,15,-1
 289 457 l 1,16,-1
 336 410 l 1,17,-1
 203 267 l 1,18,-1
 343 118 l 1,19,-1
 290 64 l 1,20,21
 249 107 249 107 236 117 c 2,22,-1
 108 224 l 1,23,-1
 70 253 l 1,12,-1
EndSplineSet
EndChar

StartChar: logicalnot
Encoding: 172 172 109
Width: 569
GlyphClass: 2
Flags: W
LayerCount: 2
Fore
SplineSet
565 121 m 1,0,-1
 474 121 l 1,1,-1
 474 338 l 1,2,-1
 4 338 l 1,3,-1
 4 427 l 1,4,-1
 565 427 l 1,5,-1
 565 121 l 1,0,-1
EndSplineSet
EndChar

StartChar: uni00AD
Encoding: 173 173 110
Width: 362
GlyphClass: 2
Flags: W
LayerCount: 2
Fore
SplineSet
53 325 m 1,0,1
 93 316 93 316 140 316 c 2,2,-1
 222 317 l 2,3,4
 244 317 244 317 290.5 319 c 128,-1,5
 337 321 337 321 361 321 c 1,6,-1
 323 222 l 1,7,-1
 309 222 l 1,8,9
 241 231 241 231 135 231 c 1,10,-1
 1 225 l 1,11,-1
 39 325 l 1,12,-1
 53 325 l 1,0,1
EndSplineSet
EndChar

StartChar: registered
Encoding: 174 174 111
Width: 784
GlyphClass: 2
Flags: W
LayerCount: 2
Fore
SplineSet
647.5 606.5 m 128,-1,1
 753 502 753 502 753 353 c 128,-1,2
 753 204 753 204 648.5 98.5 c 128,-1,3
 544 -7 544 -7 394 -7 c 128,-1,4
 244 -7 244 -7 137.5 98.5 c 128,-1,5
 31 204 31 204 31 352 c 128,-1,6
 31 500 31 500 137.5 605.5 c 128,-1,7
 244 711 244 711 393 711 c 128,-1,0
 542 711 542 711 647.5 606.5 c 128,-1,1
591.5 147.5 m 128,-1,9
 675 232 675 232 675 351 c 128,-1,10
 675 470 675 470 593 555.5 c 128,-1,11
 511 641 511 641 394.5 641 c 128,-1,12
 278 641 278 641 195 556 c 128,-1,13
 112 471 112 471 112 352 c 128,-1,14
 112 233 112 233 194.5 148 c 128,-1,15
 277 63 277 63 392.5 63 c 128,-1,8
 508 63 508 63 591.5 147.5 c 128,-1,9
276 550 m 1,16,-1
 405 551 l 1,17,18
 556 551 556 551 556 456 c 0,19,20
 556 410 556 410 521 381 c 128,-1,21
 486 352 486 352 432 347 c 1,22,-1
 497 269 l 2,23,24
 556 199 556 199 589 188 c 1,25,-1
 589 176 l 1,26,-1
 459 176 l 1,27,28
 435 209 435 209 343 346 c 1,29,-1
 335 347 l 1,30,-1
 335 271 l 2,31,32
 335 211 335 211 342 188 c 1,33,-1
 342 176 l 1,34,-1
 221 176 l 1,35,-1
 221 188 l 1,36,37
 232 216 232 216 232 266 c 2,38,-1
 232 456 l 2,39,40
 232 514 232 514 223 539 c 1,41,-1
 223 551 l 1,42,-1
 276 550 l 1,16,-1
426.5 494.5 m 128,-1,44
 412 508 412 508 379.5 508 c 128,-1,45
 347 508 347 508 336 506 c 1,46,47
 335 495 335 495 335 384 c 1,48,49
 348 383 348 383 379.5 383 c 128,-1,50
 411 383 411 383 426 398.5 c 128,-1,51
 441 414 441 414 441 447.5 c 128,-1,43
 441 481 441 481 426.5 494.5 c 128,-1,44
EndSplineSet
EndChar

StartChar: macron
Encoding: 175 175 112
Width: 500
GlyphClass: 2
Flags: W
LayerCount: 2
Fore
SplineSet
387 597 m 1,0,-1
 113 597 l 1,1,-1
 113 674 l 1,2,-1
 387 674 l 1,3,-1
 387 597 l 1,0,-1
EndSplineSet
EndChar

StartChar: degree
Encoding: 176 176 113
Width: 367
GlyphClass: 2
Flags: W
LayerCount: 2
Fore
SplineSet
79.5 664.5 m 128,-1,1
 120 705 120 705 183.5 705 c 128,-1,2
 247 705 247 705 287.5 666 c 128,-1,3
 328 627 328 627 328 563.5 c 128,-1,4
 328 500 328 500 288.5 458 c 128,-1,5
 249 416 249 416 185.5 416 c 128,-1,6
 122 416 122 416 80.5 456 c 128,-1,7
 39 496 39 496 39 560 c 128,-1,0
 39 624 39 624 79.5 664.5 c 128,-1,1
189 487 m 0,8,9
 232 487 232 487 252 507 c 1,10,11
 260 528 260 528 260 551 c 0,12,13
 260 634 260 634 177 634 c 0,14,15
 137 634 137 634 115 614 c 1,16,17
 108 593 108 593 108 570 c 0,18,19
 108 487 108 487 189 487 c 0,8,9
EndSplineSet
EndChar

StartChar: plusminus
Encoding: 177 177 114
Width: 600
GlyphClass: 2
Flags: W
LayerCount: 2
Fore
SplineSet
341 456 m 1,0,-1
 558 456 l 1,1,-1
 557 369 l 1,2,-1
 341 369 l 1,3,-1
 341 163 l 1,4,-1
 252 163 l 1,5,-1
 252 369 l 1,6,-1
 42 369 l 1,7,-1
 43 457 l 1,8,-1
 252 456 l 1,9,-1
 253 663 l 1,10,-1
 341 662 l 1,11,-1
 341 456 l 1,0,-1
558 87 m 1,12,-1
 557 0 l 1,13,-1
 42 0 l 1,14,-1
 43 88 l 1,15,-1
 558 87 l 1,12,-1
EndSplineSet
EndChar

StartChar: twosuperior
Encoding: 178 178 115
Width: 398
GlyphClass: 2
Flags: W
LayerCount: 2
Fore
SplineSet
238 606 m 0,0,1
 238 652 238 652 205 652 c 0,2,3
 166 652 166 652 83 580 c 1,4,5
 41 621 41 621 39 663 c 1,6,7
 129 705 129 705 202 705 c 128,-1,8
 275 705 275 705 310 678.5 c 128,-1,9
 345 652 345 652 345 606 c 0,10,11
 345 510 345 510 157 337 c 1,12,-1
 200 337 l 1,13,14
 310 343 310 343 348 371 c 1,15,-1
 364 357 l 1,16,-1
 337 272 l 1,17,-1
 48 272 l 1,18,-1
 33 321 l 1,19,20
 81 366 81 366 107 391.5 c 128,-1,21
 133 417 133 417 169 458 c 0,22,23
 238 538 238 538 238 606 c 0,0,1
EndSplineSet
EndChar

StartChar: threesuperior
Encoding: 179 179 116
Width: 364
GlyphClass: 2
Flags: W
LayerCount: 2
Fore
SplineSet
287.5 307 m 128,-1,1
 237 267 237 267 159.5 267 c 128,-1,2
 82 267 82 267 23 309 c 1,3,4
 23 350 23 350 53 374 c 1,5,6
 77 353 77 353 107 340.5 c 128,-1,7
 137 328 137 328 161.5 328 c 128,-1,8
 186 328 186 328 203 336 c 1,9,10
 231 358 231 358 231 403 c 128,-1,11
 231 448 231 448 212 461.5 c 128,-1,12
 193 475 193 475 151 475 c 128,-1,13
 109 475 109 475 91 472 c 1,14,-1
 88 472 l 1,15,-1
 78 525 l 1,16,-1
 130 525 l 2,17,18
 163 525 163 525 183.5 546.5 c 128,-1,19
 204 568 204 568 204 595.5 c 128,-1,20
 204 623 204 623 191 638 c 128,-1,21
 178 653 178 653 154 653 c 0,22,23
 119 653 119 653 61 595 c 1,24,25
 34 629 34 629 29 678 c 1,26,27
 114 705 114 705 169.5 705 c 128,-1,28
 225 705 225 705 267 684 c 128,-1,29
 309 663 309 663 309 620 c 128,-1,30
 309 577 309 577 285 550 c 128,-1,31
 261 523 261 523 234 517 c 1,32,33
 263 515 263 515 289 499 c 0,34,35
 338 469 338 469 338 408 c 128,-1,0
 338 347 338 347 287.5 307 c 128,-1,1
EndSplineSet
EndChar

StartChar: acute
Encoding: 180 180 117
Width: 549
GlyphClass: 2
Flags: W
LayerCount: 2
Fore
SplineSet
404 658 m 1,0,1
 295 562 295 562 182 506 c 1,2,-1
 145 545 l 1,3,4
 245 630 245 630 305 732 c 1,5,6
 368 710 368 710 404 658 c 1,0,1
EndSplineSet
EndChar

StartChar: mu
Encoding: 181 181 118
AltUni2: 0003bc.ffffffff.0
Width: 643
GlyphClass: 2
Flags: W
LayerCount: 2
Fore
SplineSet
88 96 m 2,0,-1
 88 291 l 2,1,2
 88 390 88 390 58 458 c 1,3,-1
 58 480 l 1,4,-1
 232 480 l 1,5,-1
 232 456 l 1,6,7
 217 404 217 404 217 321 c 2,8,-1
 217 188 l 2,9,10
 217 138 217 138 234 110.5 c 128,-1,11
 251 83 251 83 282 83 c 0,12,13
 335 83 335 83 408 134 c 1,14,-1
 408 291 l 2,15,16
 408 392 408 392 379 458 c 1,17,-1
 379 480 l 1,18,-1
 552 480 l 1,19,-1
 552 456 l 1,20,21
 537 404 537 404 537 321 c 2,22,-1
 537 188 l 2,23,24
 537 143 537 143 551.5 100 c 128,-1,25
 566 57 566 57 586 40 c 1,26,-1
 589 18 l 1,27,-1
 432 -22 l 1,28,29
 411 14 411 14 408 59 c 1,30,31
 320 -13 320 -13 259 -13 c 0,32,33
 215 -13 215 -13 185 7 c 1,34,35
 194 -63 194 -63 227 -114 c 128,-1,36
 260 -165 260 -165 308 -191 c 1,37,-1
 311 -210 l 1,38,-1
 111 -240 l 1,39,40
 88 -42 88 -42 88 96 c 2,0,-1
EndSplineSet
EndChar

StartChar: paragraph
Encoding: 182 182 119
Width: 686
GlyphClass: 2
Flags: W
LayerCount: 2
Fore
SplineSet
429 -102 m 2,0,-1
 429 630 l 1,1,-1
 365 630 l 1,2,3
 362 400 362 400 362 132 c 128,-1,4
 362 -136 362 -136 366 -178 c 1,5,-1
 268 -194 l 1,6,-1
 264 -181 l 1,7,8
 275 -107 275 -107 275 -41 c 2,9,-1
 275 189 l 1,10,11
 152 190 152 190 78.5 268 c 128,-1,12
 5 346 5 346 5 453.5 c 128,-1,13
 5 561 5 561 80 626 c 128,-1,14
 155 691 155 691 277 693 c 2,15,-1
 673 698 l 1,16,-1
 642 616 l 1,17,-1
 628 616 l 1,18,19
 582 629 582 629 516 630 c 1,20,-1
 516 -113 l 2,21,22
 516 -206 516 -206 520 -248 c 1,23,-1
 422 -264 l 1,24,-1
 418 -250 l 1,25,26
 429 -173 429 -173 429 -102 c 2,0,-1
EndSplineSet
EndChar

StartChar: periodcentered
Encoding: 183 183 120
Width: 323
GlyphClass: 2
Flags: W
LayerCount: 2
Fore
SplineSet
233 343 m 1,0,1
 243 334 243 334 247 302.5 c 128,-1,2
 251 271 251 271 251 254 c 128,-1,3
 251 237 251 237 249 225 c 1,4,-1
 239 216 l 1,5,6
 195 203 195 203 102 195 c 1,7,-1
 90 201 l 1,8,9
 81 216 81 216 75.5 252 c 128,-1,10
 70 288 70 288 70 302 c 128,-1,11
 70 316 70 316 70 320 c 1,12,-1
 80 329 l 1,13,14
 144 350 144 350 210 350 c 0,15,16
 215 350 215 350 221 350 c 1,17,-1
 233 343 l 1,0,1
EndSplineSet
EndChar

StartChar: cedilla
Encoding: 184 184 121
Width: 522
GlyphClass: 2
Flags: W
LayerCount: 2
Fore
SplineSet
453 -81.5 m 128,-1,1
 476 -102 476 -102 476 -140 c 128,-1,2
 476 -178 476 -178 441 -201 c 128,-1,3
 406 -224 406 -224 368 -224 c 128,-1,4
 330 -224 330 -224 294 -211 c 128,-1,5
 258 -198 258 -198 243 -189 c 1,6,-1
 262 -148 l 1,7,8
 294 -165 294 -165 321.5 -165 c 128,-1,9
 349 -165 349 -165 363.5 -156 c 128,-1,10
 378 -147 378 -147 378 -132.5 c 128,-1,11
 378 -118 378 -118 366 -109 c 1,12,13
 352 -105 352 -105 334 -105 c 128,-1,14
 316 -105 316 -105 295 -109 c 1,15,-1
 282 -90 l 1,16,-1
 325 -2 l 1,17,-1
 401 -9 l 1,18,-1
 367 -63 l 1,19,20
 377 -60 377 -60 403.5 -60.5 c 128,-1,0
 430 -61 430 -61 453 -81.5 c 128,-1,1
EndSplineSet
EndChar

StartChar: onesuperior
Encoding: 185 185 122
Width: 292
GlyphClass: 2
Flags: W
LayerCount: 2
Fore
SplineSet
221 631 m 2,0,-1
 221 398 l 2,1,2
 221 314 221 314 230 276 c 1,3,-1
 230 272 l 1,4,-1
 107 272 l 1,5,-1
 107 276 l 1,6,7
 117 305 117 305 117 393 c 2,8,-1
 117 561 l 2,9,10
 117 603 117 603 114 618 c 1,11,12
 78 610 78 610 24 608 c 1,13,-1
 16 659 l 1,14,15
 90 669 90 669 134 700 c 1,16,-1
 224 700 l 1,17,18
 221 649 221 649 221 631 c 2,0,-1
EndSplineSet
EndChar

StartChar: ordmasculine
Encoding: 186 186 123
Width: 409
GlyphClass: 2
Flags: W
LayerCount: 2
Fore
SplineSet
82.5 436 m 128,-1,1
 40 478 40 478 40 546.5 c 128,-1,2
 40 615 40 615 89 664.5 c 128,-1,3
 138 714 138 714 213.5 714 c 128,-1,4
 289 714 289 714 329 672.5 c 128,-1,5
 369 631 369 631 369 562 c 128,-1,6
 369 493 369 493 320 443.5 c 128,-1,7
 271 394 271 394 198 394 c 128,-1,0
 125 394 125 394 82.5 436 c 128,-1,1
252 459 m 1,8,9
 273 487 273 487 273 544 c 128,-1,10
 273 601 273 601 257 630 c 128,-1,11
 241 659 241 659 199 659 c 0,12,13
 172 659 172 659 158 648 c 1,14,15
 136 620 136 620 136 562 c 0,16,17
 136 448 136 448 215 448 c 0,18,19
 238 448 238 448 252 459 c 1,8,9
EndSplineSet
EndChar

StartChar: guillemotright
Encoding: 187 187 124
Width: 631
GlyphClass: 2
Flags: W
LayerCount: 2
Fore
SplineSet
342 276 m 1,0,-1
 335 253 l 1,1,-1
 297 224 l 1,2,-1
 169 117 l 2,3,4
 156 107 156 107 115 64 c 1,5,-1
 62 118 l 1,6,-1
 202 267 l 1,7,-1
 69 410 l 1,8,-1
 116 457 l 1,9,-1
 278 317 l 2,10,11
 294 303 294 303 342 276 c 1,0,-1
569 276 m 1,12,-1
 562 253 l 1,13,-1
 524 224 l 1,14,-1
 396 117 l 2,15,16
 383 107 383 107 342 64 c 1,17,-1
 289 118 l 1,18,-1
 429 267 l 1,19,-1
 296 410 l 1,20,-1
 343 457 l 1,21,-1
 505 317 l 2,22,23
 521 303 521 303 569 276 c 1,12,-1
EndSplineSet
EndChar

StartChar: onequarter
Encoding: 188 188 125
Width: 822
GlyphClass: 2
Flags: W
LayerCount: 2
Fore
SplineSet
719 99 m 1,0,1
 719 39 719 39 728 3 c 1,2,-1
 728 0 l 1,3,-1
 608 0 l 1,4,-1
 608 3 l 1,5,6
 613 30 613 30 615 94 c 1,7,-1
 615 99 l 1,8,9
 532 99 532 99 450 99 c 1,10,-1
 425 151 l 1,11,12
 491 264 491 264 595 422 c 1,13,-1
 720 429 l 1,14,15
 718 375 718 375 718 165 c 1,16,17
 734 165 734 165 764.5 167 c 128,-1,18
 795 169 795 169 797 169 c 1,19,-1
 785 99 l 1,20,-1
 719 99 l 1,0,1
593 718 m 1,21,-1
 701 725 l 1,22,-1
 716 710 l 1,23,24
 626 627 626 627 300 157 c 1,25,-1
 256 95 l 1,26,-1
 185 -13 l 1,27,-1
 75 -20 l 1,28,-1
 60 -5 l 1,29,30
 115 47 115 47 253 235 c 0,31,32
 467 527 467 527 593 718 c 1,21,-1
221 631 m 2,33,-1
 221 398 l 2,34,35
 221 314 221 314 230 276 c 1,36,-1
 230 272 l 1,37,-1
 107 272 l 1,38,-1
 107 276 l 1,39,40
 117 305 117 305 117 393 c 2,41,-1
 117 561 l 2,42,43
 117 603 117 603 114 618 c 1,44,45
 78 610 78 610 24 608 c 1,46,-1
 16 659 l 1,47,48
 90 669 90 669 134 700 c 1,49,-1
 224 700 l 1,50,51
 221 649 221 649 221 631 c 2,33,-1
616 164 m 1,52,-1
 616 352 l 1,53,54
 527 219 527 219 497 162 c 1,55,56
 530 162 530 162 616 164 c 1,52,-1
EndSplineSet
EndChar

StartChar: onehalf
Encoding: 189 189 126
Width: 870
GlyphClass: 2
Flags: W
LayerCount: 2
Fore
SplineSet
591 718 m 1,0,-1
 699 725 l 1,1,-1
 714 710 l 1,2,3
 626 630 626 630 298 157 c 1,4,-1
 254 95 l 1,5,-1
 183 -13 l 1,6,-1
 73 -20 l 1,7,-1
 58 -5 l 1,8,9
 113 47 113 47 251 235 c 0,10,11
 465 527 465 527 591 718 c 1,0,-1
710 334 m 0,12,13
 710 380 710 380 677 380 c 0,14,15
 638 380 638 380 555 308 c 1,16,17
 513 349 513 349 511 391 c 1,18,19
 601 433 601 433 674 433 c 128,-1,20
 747 433 747 433 782 406.5 c 128,-1,21
 817 380 817 380 817 334 c 0,22,23
 817 238 817 238 629 65 c 1,24,-1
 672 65 l 1,25,26
 782 71 782 71 820 99 c 1,27,-1
 836 85 l 1,28,-1
 809 0 l 1,29,-1
 520 0 l 1,30,-1
 505 49 l 1,31,32
 553 94 553 94 579 119.5 c 128,-1,33
 605 145 605 145 641 186 c 0,34,35
 710 266 710 266 710 334 c 0,12,13
221 631 m 2,36,-1
 221 398 l 2,37,38
 221 314 221 314 230 276 c 1,39,-1
 230 272 l 1,40,-1
 107 272 l 1,41,-1
 107 276 l 1,42,43
 117 305 117 305 117 393 c 2,44,-1
 117 561 l 2,45,46
 117 603 117 603 114 618 c 1,47,48
 78 610 78 610 24 608 c 1,49,-1
 16 659 l 1,50,51
 90 669 90 669 134 700 c 1,52,-1
 224 700 l 1,53,54
 221 649 221 649 221 631 c 2,36,-1
EndSplineSet
EndChar

StartChar: threequarters
Encoding: 190 190 127
Width: 920
GlyphClass: 2
Flags: W
LayerCount: 2
Fore
SplineSet
287.5 307 m 128,-1,1
 237 267 237 267 159.5 267 c 128,-1,2
 82 267 82 267 23 309 c 1,3,4
 23 350 23 350 53 374 c 1,5,6
 66 362 66 362 98.5 345.5 c 128,-1,7
 131 329 131 329 158.5 328.5 c 128,-1,8
 186 328 186 328 203 336 c 1,9,10
 231 358 231 358 231 403 c 128,-1,11
 231 448 231 448 212 461.5 c 128,-1,12
 193 475 193 475 151 475 c 128,-1,13
 109 475 109 475 91 472 c 1,14,-1
 88 472 l 1,15,-1
 78 525 l 1,16,-1
 130 525 l 2,17,18
 163 525 163 525 183.5 546.5 c 128,-1,19
 204 568 204 568 204 595.5 c 128,-1,20
 204 623 204 623 191 638 c 128,-1,21
 178 653 178 653 154 653 c 0,22,23
 119 653 119 653 61 595 c 1,24,25
 34 629 34 629 29 678 c 1,26,27
 114 705 114 705 169.5 705 c 128,-1,28
 225 705 225 705 267 684 c 128,-1,29
 309 663 309 663 309 620 c 128,-1,30
 309 577 309 577 285 550 c 128,-1,31
 261 523 261 523 234 517 c 1,32,33
 263 515 263 515 289 499 c 0,34,35
 338 469 338 469 338 408 c 128,-1,0
 338 347 338 347 287.5 307 c 128,-1,1
817 99 m 1,36,37
 817 39 817 39 826 3 c 1,38,-1
 826 0 l 1,39,-1
 706 0 l 1,40,-1
 706 3 l 1,41,42
 711 30 711 30 713 94 c 1,43,-1
 713 99 l 1,44,-1
 548 99 l 1,45,-1
 523 151 l 1,46,47
 589 264 589 264 693 422 c 1,48,-1
 818 429 l 1,49,50
 816 375 816 375 816 165 c 1,51,52
 832 165 832 165 862.5 167 c 128,-1,53
 893 169 893 169 895 169 c 1,54,-1
 883 99 l 1,55,-1
 817 99 l 1,36,37
714 164 m 1,56,-1
 714 352 l 1,57,58
 625 219 625 219 595 162 c 1,59,60
 628 162 628 162 714 164 c 1,56,-1
689 718 m 1,61,-1
 797 725 l 1,62,-1
 812 710 l 1,63,64
 724 630 724 630 396 157 c 1,65,-1
 352 95 l 1,66,-1
 281 -13 l 1,67,-1
 171 -20 l 1,68,-1
 156 -5 l 1,69,70
 211 47 211 47 349 235 c 0,71,72
 563 527 563 527 689 718 c 1,61,-1
EndSplineSet
EndChar

StartChar: questiondown
Encoding: 191 191 128
Width: 484
GlyphClass: 2
Flags: W
LayerCount: 2
Fore
SplineSet
171 -50 m 0,0,1
 171 -140 171 -140 255 -140 c 0,2,3
 317 -140 317 -140 403 -74 c 1,4,5
 439 -126 439 -126 439 -188 c 0,6,7
 439 -195 439 -195 439 -201 c 1,8,9
 349 -232 349 -232 250 -232 c 128,-1,10
 151 -232 151 -232 94 -190 c 128,-1,11
 37 -148 37 -148 37 -63 c 0,12,13
 37 -8 37 -8 62 41 c 128,-1,14
 87 90 87 90 126 124 c 0,15,16
 188 177 188 177 244 205 c 1,17,-1
 244 211 l 2,18,19
 244 230 244 230 232 271 c 1,20,-1
 232 289 l 1,21,22
 268 296 268 296 297.5 296 c 128,-1,23
 327 296 327 296 359 290 c 1,24,-1
 359 271 l 1,25,26
 349 225 349 225 349 207.5 c 128,-1,27
 349 190 349 190 349 187 c 1,28,-1
 329 173 l 2,29,30
 171 63 171 63 171 -50 c 0,0,1
238 373 m 1,31,32
 222 387 222 387 222 444 c 0,33,34
 222 457 222 457 224 468 c 1,35,-1
 233 476 l 1,36,37
 271 487 271 487 331 492 c 1,38,-1
 342 487 l 1,39,40
 350 473 350 473 354.5 445.5 c 128,-1,41
 359 418 359 418 359 406.5 c 128,-1,42
 359 395 359 395 359 391 c 1,43,-1
 350 383 l 1,44,45
 298 367 298 367 254 367 c 0,46,47
 249 367 249 367 238 373 c 1,31,32
EndSplineSet
EndChar

StartChar: Agrave
Encoding: 192 192 129
Width: 643
GlyphClass: 2
Flags: W
LayerCount: 2
Fore
SplineSet
399 236 m 1,0,1
 361 237 361 237 294 237 c 128,-1,2
 227 237 227 237 186 236 c 1,3,4
 153 122 153 122 147 95.5 c 128,-1,5
 141 69 141 69 141 22 c 2,6,-1
 141 0 l 1,7,-1
 -27 0 l 1,8,-1
 -27 22 l 1,9,10
 25 58 25 58 102 288 c 128,-1,11
 179 518 179 518 203 592.5 c 128,-1,12
 227 667 227 667 231 700 c 1,13,-1
 385 715 l 1,14,15
 385 677 385 677 451 497 c 0,16,17
 574 161 574 161 622 84 c 1,18,19
 645 45 645 45 674 22 c 1,20,-1
 674 0 l 1,21,-1
 462 0 l 1,22,-1
 462 22 l 2,23,24
 462 64 462 64 399 236 c 1,0,1
288 574 m 1,25,26
 255 479 255 479 205 309 c 1,27,-1
 378 309 l 1,28,29
 372 326 372 326 360 366 c 0,30,31
 334 455 334 455 288 574 c 1,25,26
438 798 m 1,32,-1
 421 751 l 1,33,34
 288 762 288 762 155 811 c 1,35,36
 169 884 169 884 213 918 c 1,37,38
 259 883 259 883 323 848.5 c 128,-1,39
 387 814 387 814 438 798 c 1,32,-1
EndSplineSet
EndChar

StartChar: Aacute
Encoding: 193 193 130
Width: 643
GlyphClass: 2
Flags: W
LayerCount: 2
Fore
SplineSet
399 236 m 1,0,1
 361 237 361 237 294 237 c 128,-1,2
 227 237 227 237 186 236 c 1,3,4
 153 122 153 122 147 95.5 c 128,-1,5
 141 69 141 69 141 22 c 2,6,-1
 141 0 l 1,7,-1
 -27 0 l 1,8,-1
 -27 22 l 1,9,10
 25 58 25 58 102 288 c 128,-1,11
 179 518 179 518 203 592.5 c 128,-1,12
 227 667 227 667 231 700 c 1,13,-1
 385 715 l 1,14,15
 385 677 385 677 451 497 c 0,16,17
 574 161 574 161 622 84 c 1,18,19
 645 45 645 45 674 22 c 1,20,-1
 674 0 l 1,21,-1
 462 0 l 1,22,-1
 462 22 l 2,23,24
 462 64 462 64 399 236 c 1,0,1
288 574 m 1,25,26
 255 479 255 479 205 309 c 1,27,-1
 378 309 l 1,28,29
 372 326 372 326 360 366 c 0,30,31
 334 455 334 455 288 574 c 1,25,26
189 751 m 1,32,-1
 172 798 l 1,33,34
 223 814 223 814 287 848.5 c 128,-1,35
 351 883 351 883 397 918 c 1,36,37
 441 884 441 884 455 811 c 1,38,39
 322 762 322 762 189 751 c 1,32,-1
EndSplineSet
EndChar

StartChar: Acircumflex
Encoding: 194 194 131
Width: 643
GlyphClass: 2
Flags: W
LayerCount: 2
Fore
SplineSet
399 236 m 1,0,1
 361 237 361 237 294 237 c 128,-1,2
 227 237 227 237 186 236 c 1,3,4
 153 122 153 122 147 95.5 c 128,-1,5
 141 69 141 69 141 22 c 2,6,-1
 141 0 l 1,7,-1
 -27 0 l 1,8,-1
 -27 22 l 1,9,10
 25 58 25 58 102 288 c 128,-1,11
 179 518 179 518 203 592.5 c 128,-1,12
 227 667 227 667 231 700 c 1,13,-1
 385 715 l 1,14,15
 385 677 385 677 451 497 c 0,16,17
 574 161 574 161 622 84 c 1,18,19
 645 45 645 45 674 22 c 1,20,-1
 674 0 l 1,21,-1
 462 0 l 1,22,-1
 462 22 l 2,23,24
 462 64 462 64 399 236 c 1,0,1
288 574 m 1,25,26
 255 479 255 479 205 309 c 1,27,-1
 378 309 l 1,28,29
 372 326 372 326 360 366 c 0,30,31
 334 455 334 455 288 574 c 1,25,26
279 920 m 1,32,-1
 359 920 l 1,33,34
 385 867 385 867 434 822 c 0,35,36
 451 806 451 806 484 778 c 1,37,-1
 442 733 l 1,38,39
 369 777 369 777 316 836 c 1,40,41
 270 789 270 789 202 738 c 1,42,-1
 159 782 l 1,43,44
 246 858 246 858 279 920 c 1,32,-1
EndSplineSet
EndChar

StartChar: Atilde
Encoding: 195 195 132
Width: 643
GlyphClass: 2
Flags: W
LayerCount: 2
Fore
SplineSet
399 236 m 1,0,1
 361 237 361 237 294 237 c 128,-1,2
 227 237 227 237 186 236 c 1,3,4
 153 122 153 122 147 95.5 c 128,-1,5
 141 69 141 69 141 22 c 2,6,-1
 141 0 l 1,7,-1
 -27 0 l 1,8,-1
 -27 22 l 1,9,10
 25 58 25 58 102 288 c 128,-1,11
 179 518 179 518 203 592.5 c 128,-1,12
 227 667 227 667 231 700 c 1,13,-1
 385 715 l 1,14,15
 385 677 385 677 451 497 c 0,16,17
 574 161 574 161 622 84 c 1,18,19
 645 45 645 45 674 22 c 1,20,-1
 674 0 l 1,21,-1
 462 0 l 1,22,-1
 462 22 l 2,23,24
 462 64 462 64 399 236 c 1,0,1
288 574 m 1,25,26
 255 479 255 479 205 309 c 1,27,-1
 378 309 l 1,28,29
 372 326 372 326 360 366 c 0,30,31
 334 455 334 455 288 574 c 1,25,26
402 773 m 0,32,33
 378 773 378 773 318.5 797 c 128,-1,34
 259 821 259 821 242.5 821 c 128,-1,35
 226 821 226 821 217.5 819 c 128,-1,36
 209 817 209 817 203.5 815 c 128,-1,37
 198 813 198 813 188.5 808 c 128,-1,38
 179 803 179 803 176 801 c 128,-1,39
 173 799 173 799 162.5 792.5 c 128,-1,40
 152 786 152 786 151 785 c 1,41,-1
 122 810 l 1,42,43
 148 841 148 841 185.5 875 c 128,-1,44
 223 909 223 909 246 909 c 128,-1,45
 269 909 269 909 326.5 887.5 c 128,-1,46
 384 866 384 866 399 866 c 128,-1,47
 414 866 414 866 423 867.5 c 128,-1,48
 432 869 432 869 443.5 874 c 128,-1,49
 455 879 455 879 459.5 881 c 128,-1,50
 464 883 464 883 478 891 c 128,-1,51
 492 899 492 899 493 899 c 2,52,-1
 520 874 l 1,53,54
 437 773 437 773 402 773 c 0,32,33
EndSplineSet
EndChar

StartChar: Adieresis
Encoding: 196 196 133
Width: 643
GlyphClass: 2
Flags: W
LayerCount: 2
Fore
SplineSet
399 236 m 1,0,1
 361 237 361 237 294 237 c 128,-1,2
 227 237 227 237 186 236 c 1,3,4
 153 122 153 122 147 95.5 c 128,-1,5
 141 69 141 69 141 22 c 2,6,-1
 141 0 l 1,7,-1
 -27 0 l 1,8,-1
 -27 22 l 1,9,10
 25 58 25 58 102 288 c 128,-1,11
 179 518 179 518 203 592.5 c 128,-1,12
 227 667 227 667 231 700 c 1,13,-1
 385 715 l 1,14,15
 385 677 385 677 451 497 c 0,16,17
 574 161 574 161 622 84 c 1,18,19
 645 45 645 45 674 22 c 1,20,-1
 674 0 l 1,21,-1
 462 0 l 1,22,-1
 462 22 l 2,23,24
 462 64 462 64 399 236 c 1,0,1
288 574 m 1,25,26
 255 479 255 479 205 309 c 1,27,-1
 378 309 l 1,28,29
 372 326 372 326 360 366 c 0,30,31
 334 455 334 455 288 574 c 1,25,26
278 893 m 1,32,33
 285 885 285 885 288.5 859 c 128,-1,34
 292 833 292 833 292 819 c 128,-1,35
 292 805 292 805 291 796 c 1,36,-1
 279 785 l 1,37,38
 233 773 233 773 188 770 c 1,39,-1
 172 770 l 1,40,-1
 157 775 l 1,41,42
 135 814 135 814 135 873 c 1,43,-1
 150 884 l 1,44,45
 200 897 200 897 244 899 c 1,46,-1
 266 899 l 1,47,-1
 278 893 l 1,32,33
492 904 m 1,48,49
 499 896 499 896 502.5 870 c 128,-1,50
 506 844 506 844 506 830 c 128,-1,51
 506 816 506 816 505 807 c 1,52,-1
 493 796 l 1,53,54
 447 784 447 784 402 781 c 1,55,-1
 386 781 l 1,56,-1
 371 786 l 1,57,58
 349 825 349 825 349 884 c 1,59,-1
 364 895 l 1,60,61
 414 908 414 908 458 910 c 1,62,-1
 480 910 l 1,63,-1
 492 904 l 1,48,49
EndSplineSet
EndChar

StartChar: Aring
Encoding: 197 197 134
Width: 595
GlyphClass: 2
Flags: W
LayerCount: 2
Fore
SplineSet
407 791 m 128,-1,1
 407 746 407 746 372 714 c 1,2,-1
 375 715 l 1,3,4
 375 677 375 677 441 497 c 0,5,6
 564 161 564 161 612 84 c 1,7,8
 635 45 635 45 664 22 c 1,9,-1
 664 0 l 1,10,-1
 452 0 l 1,11,-1
 452 22 l 2,12,13
 452 64 452 64 389 236 c 1,14,15
 351 237 351 237 284 237 c 128,-1,16
 217 237 217 237 176 236 c 1,17,18
 143 122 143 122 137 95.5 c 128,-1,19
 131 69 131 69 131 22 c 2,20,-1
 131 0 l 1,21,-1
 -37 0 l 1,22,-1
 -37 22 l 1,23,24
 15 58 15 58 92 288 c 128,-1,25
 169 518 169 518 193 592.5 c 128,-1,26
 217 667 217 667 221 700 c 1,27,-1
 224 700 l 1,28,29
 176 731 176 731 176 781.5 c 128,-1,30
 176 832 176 832 211 864 c 128,-1,31
 246 896 246 896 294 896 c 0,32,33
 343 896 343 896 375 866 c 128,-1,0
 407 836 407 836 407 791 c 128,-1,1
278 574 m 1,34,35
 245 479 245 479 195 309 c 1,36,-1
 368 309 l 1,37,38
 362 326 362 326 350 366 c 0,39,40
 324 455 324 455 278 574 c 1,34,35
296 743 m 0,41,42
 313 743 313 743 329 750 c 1,43,44
 340 761 340 761 340 788 c 0,45,46
 340 839 340 839 288 839 c 0,47,48
 268 839 268 839 254 831 c 1,49,50
 243 820 243 820 243 798 c 0,51,52
 243 743 243 743 296 743 c 0,41,42
EndSplineSet
EndChar

StartChar: AE
Encoding: 198 198 135
Width: 947
GlyphClass: 2
Flags: W
LayerCount: 2
Fore
SplineSet
648 629 m 0,0,1
 607 629 607 629 584 627 c 1,2,3
 582 581 582 581 582 382 c 1,4,-1
 839 387 l 1,5,-1
 804 304 l 1,6,-1
 785 304 l 1,7,8
 747 312 747 312 673.5 312 c 128,-1,9
 600 312 600 312 582 310 c 1,10,-1
 582 277 l 2,11,12
 582 109 582 109 585 76 c 1,13,14
 608 74 608 74 661.5 74 c 128,-1,15
 715 74 715 74 790 83 c 128,-1,16
 865 92 865 92 900 106 c 1,17,-1
 919 106 l 1,18,-1
 900 0 l 1,19,-1
 426 0 l 1,20,-1
 426 22 l 1,21,22
 443 94 443 94 443 223 c 2,23,-1
 443 267 l 1,24,25
 360 267 360 267 283 266 c 1,26,27
 174 71 174 71 163 24 c 2,28,-1
 158 2 l 1,29,-1
 -10 2 l 1,30,-1
 -10 24 l 1,31,32
 21 47 21 47 81.5 135 c 128,-1,33
 142 223 142 223 236 382 c 1,34,35
 385 638 385 638 402 700 c 1,36,-1
 886 703 l 1,37,-1
 856 615 l 1,38,-1
 837 615 l 1,39,40
 788 629 788 629 648 629 c 0,0,1
443 339 m 1,41,-1
 443 476 l 2,42,43
 443 516 443 516 440 556 c 1,44,45
 375 447 375 447 319 339 c 1,46,-1
 443 339 l 1,41,-1
EndSplineSet
EndChar

StartChar: Ccedilla
Encoding: 199 199 136
Width: 728
GlyphClass: 2
Flags: W
LayerCount: 2
Fore
SplineSet
200 375 m 0,0,1
 200 462 200 462 233.5 524 c 128,-1,2
 267 586 267 586 319 622 c 1,3,4
 353 627 353 627 399.5 627 c 128,-1,5
 446 627 446 627 502 607.5 c 128,-1,6
 558 588 558 588 627 537 c 1,7,8
 671 597 671 597 684 660 c 1,9,10
 575 712 575 712 458 712 c 0,11,12
 284 712 284 712 166.5 610 c 128,-1,13
 49 508 49 508 49 345 c 128,-1,14
 49 182 49 182 151 85 c 128,-1,15
 253 -12 253 -12 398 -12 c 0,16,17
 455 -12 455 -12 512.5 6 c 128,-1,18
 570 24 570 24 597.5 39 c 128,-1,19
 625 54 625 54 700 103 c 1,20,-1
 663 157 l 1,21,22
 521 85 521 85 443 85 c 0,23,24
 339 85 339 85 269.5 161 c 128,-1,25
 200 237 200 237 200 375 c 0,0,1
469 -81.5 m 128,-1,27
 492 -102 492 -102 492 -140 c 128,-1,28
 492 -178 492 -178 457 -201 c 128,-1,29
 422 -224 422 -224 384 -224 c 128,-1,30
 346 -224 346 -224 310 -211 c 128,-1,31
 274 -198 274 -198 259 -189 c 1,32,-1
 278 -148 l 1,33,34
 310 -165 310 -165 337.5 -165 c 128,-1,35
 365 -165 365 -165 379.5 -156 c 128,-1,36
 394 -147 394 -147 394 -132.5 c 128,-1,37
 394 -118 394 -118 382 -109 c 1,38,39
 368 -105 368 -105 350 -105 c 128,-1,40
 332 -105 332 -105 311 -109 c 1,41,-1
 298 -90 l 1,42,-1
 341 -2 l 1,43,-1
 417 -9 l 1,44,-1
 383 -63 l 1,45,46
 393 -60 393 -60 419.5 -60.5 c 128,-1,26
 446 -61 446 -61 469 -81.5 c 128,-1,27
EndSplineSet
EndChar

StartChar: Egrave
Encoding: 200 200 137
Width: 634
GlyphClass: 2
Flags: W
LayerCount: 2
Fore
SplineSet
335 629 m 0,0,1
 294 629 294 629 271 627 c 1,2,3
 269 581 269 581 269 402 c 1,4,-1
 526 407 l 1,5,-1
 491 324 l 1,6,-1
 472 324 l 1,7,8
 434 332 434 332 360.5 332 c 128,-1,9
 287 332 287 332 269 330 c 1,10,-1
 269 277 l 2,11,12
 269 109 269 109 272 76 c 1,13,14
 295 74 295 74 348.5 74 c 128,-1,15
 402 74 402 74 477 83 c 128,-1,16
 552 92 552 92 587 106 c 1,17,-1
 606 106 l 1,18,-1
 587 0 l 1,19,-1
 108 0 l 1,20,-1
 108 22 l 1,21,22
 125 94 125 94 125 223 c 2,23,-1
 125 476 l 2,24,25
 125 606 125 606 108 678 c 1,26,-1
 108 700 l 1,27,-1
 573 703 l 1,28,-1
 543 615 l 1,29,-1
 524 615 l 1,30,31
 475 629 475 629 335 629 c 0,0,1
444 761 m 1,32,-1
 407 722 l 1,33,34
 294 778 294 778 185 874 c 1,35,36
 222 927 222 927 285 949 c 1,37,38
 345 846 345 846 444 761 c 1,32,-1
EndSplineSet
EndChar

StartChar: Eacute
Encoding: 201 201 138
Width: 634
GlyphClass: 2
Flags: W
LayerCount: 2
Fore
SplineSet
335 629 m 0,0,1
 294 629 294 629 271 627 c 1,2,3
 269 581 269 581 269 402 c 1,4,-1
 526 407 l 1,5,-1
 491 324 l 1,6,-1
 472 324 l 1,7,8
 434 332 434 332 360.5 332 c 128,-1,9
 287 332 287 332 269 330 c 1,10,-1
 269 277 l 2,11,12
 269 109 269 109 272 76 c 1,13,14
 295 74 295 74 348.5 74 c 128,-1,15
 402 74 402 74 477 83 c 128,-1,16
 552 92 552 92 587 106 c 1,17,-1
 606 106 l 1,18,-1
 587 0 l 1,19,-1
 108 0 l 1,20,-1
 108 22 l 1,21,22
 125 94 125 94 125 223 c 2,23,-1
 125 476 l 2,24,25
 125 606 125 606 108 678 c 1,26,-1
 108 700 l 1,27,-1
 573 703 l 1,28,-1
 543 615 l 1,29,-1
 524 615 l 1,30,31
 475 629 475 629 335 629 c 0,0,1
444 875 m 1,32,33
 335 779 335 779 222 723 c 1,34,-1
 185 762 l 1,35,36
 285 847 285 847 345 949 c 1,37,38
 408 927 408 927 444 875 c 1,32,33
EndSplineSet
EndChar

StartChar: Ecircumflex
Encoding: 202 202 139
Width: 634
GlyphClass: 2
Flags: W
LayerCount: 2
Fore
SplineSet
335 629 m 0,0,1
 294 629 294 629 271 627 c 1,2,3
 269 581 269 581 269 402 c 1,4,-1
 526 407 l 1,5,-1
 491 324 l 1,6,-1
 472 324 l 1,7,8
 434 332 434 332 360.5 332 c 128,-1,9
 287 332 287 332 269 330 c 1,10,-1
 269 277 l 2,11,12
 269 109 269 109 272 76 c 1,13,14
 295 74 295 74 348.5 74 c 128,-1,15
 402 74 402 74 477 83 c 128,-1,16
 552 92 552 92 587 106 c 1,17,-1
 606 106 l 1,18,-1
 587 0 l 1,19,-1
 108 0 l 1,20,-1
 108 22 l 1,21,22
 125 94 125 94 125 223 c 2,23,-1
 125 476 l 2,24,25
 125 606 125 606 108 678 c 1,26,-1
 108 700 l 1,27,-1
 573 703 l 1,28,-1
 543 615 l 1,29,-1
 524 615 l 1,30,31
 475 629 475 629 335 629 c 0,0,1
272 920 m 1,32,-1
 352 920 l 1,33,34
 378 867 378 867 426 822 c 0,35,36
 444 806 444 806 477 778 c 1,37,-1
 435 733 l 1,38,39
 362 777 362 777 309 836 c 1,40,41
 263 789 263 789 195 738 c 1,42,-1
 152 782 l 1,43,44
 239 858 239 858 272 920 c 1,32,-1
EndSplineSet
EndChar

StartChar: Edieresis
Encoding: 203 203 140
Width: 643
GlyphClass: 2
Flags: W
LayerCount: 2
Fore
SplineSet
342 629 m 0,0,1
 301 629 301 629 278 627 c 1,2,3
 276 581 276 581 276 402 c 1,4,-1
 533 407 l 1,5,-1
 498 324 l 1,6,-1
 479 324 l 1,7,8
 441 332 441 332 367.5 332 c 128,-1,9
 294 332 294 332 276 330 c 1,10,-1
 276 277 l 2,11,12
 276 109 276 109 279 76 c 1,13,14
 302 74 302 74 355.5 74 c 128,-1,15
 409 74 409 74 484 83 c 128,-1,16
 559 92 559 92 594 106 c 1,17,-1
 613 106 l 1,18,-1
 594 0 l 1,19,-1
 115 0 l 1,20,-1
 115 22 l 1,21,22
 132 94 132 94 132 223 c 2,23,-1
 132 476 l 2,24,25
 132 606 132 606 115 678 c 1,26,-1
 115 700 l 1,27,-1
 580 703 l 1,28,-1
 550 615 l 1,29,-1
 531 615 l 1,30,31
 482 629 482 629 342 629 c 0,0,1
278 893 m 1,32,33
 285 885 285 885 288.5 859 c 128,-1,34
 292 833 292 833 292 819 c 128,-1,35
 292 805 292 805 291 796 c 1,36,-1
 279 785 l 1,37,38
 233 773 233 773 188 770 c 1,39,-1
 172 770 l 1,40,-1
 157 775 l 1,41,42
 135 814 135 814 135 873 c 1,43,-1
 150 884 l 1,44,45
 200 897 200 897 244 899 c 1,46,-1
 266 899 l 1,47,-1
 278 893 l 1,32,33
492 904 m 1,48,49
 499 896 499 896 502.5 870 c 128,-1,50
 506 844 506 844 506 830 c 128,-1,51
 506 816 506 816 505 807 c 1,52,-1
 493 796 l 1,53,54
 447 784 447 784 402 781 c 1,55,-1
 386 781 l 1,56,-1
 371 786 l 1,57,58
 349 825 349 825 349 884 c 1,59,-1
 364 895 l 1,60,61
 414 908 414 908 458 910 c 1,62,-1
 480 910 l 1,63,-1
 492 904 l 1,48,49
EndSplineSet
EndChar

StartChar: Igrave
Encoding: 204 204 141
Width: 404
GlyphClass: 2
Flags: W
LayerCount: 2
Fore
SplineSet
273 469 m 2,0,-1
 273 230 l 2,1,2
 273 82 273 82 289 22 c 1,3,-1
 289 0 l 1,4,-1
 115 0 l 1,5,-1
 115 22 l 1,6,7
 131 82 131 82 131 230 c 2,8,-1
 131 479 l 2,9,10
 131 618 131 618 115 678 c 1,11,-1
 115 700 l 1,12,-1
 289 700 l 1,13,-1
 289 678 l 1,14,15
 282 655 282 655 277.5 581.5 c 128,-1,16
 273 508 273 508 273 469 c 2,0,-1
332 761 m 1,17,-1
 295 722 l 1,18,19
 182 778 182 778 73 874 c 1,20,21
 110 927 110 927 173 949 c 1,22,23
 233 846 233 846 332 761 c 1,17,-1
EndSplineSet
EndChar

StartChar: Iacute
Encoding: 205 205 142
Width: 404
GlyphClass: 2
Flags: W
LayerCount: 2
Fore
SplineSet
273 469 m 2,0,-1
 273 230 l 2,1,2
 273 82 273 82 289 22 c 1,3,-1
 289 0 l 1,4,-1
 115 0 l 1,5,-1
 115 22 l 1,6,7
 131 82 131 82 131 230 c 2,8,-1
 131 479 l 2,9,10
 131 618 131 618 115 678 c 1,11,-1
 115 700 l 1,12,-1
 289 700 l 1,13,-1
 289 678 l 1,14,15
 282 655 282 655 277.5 581.5 c 128,-1,16
 273 508 273 508 273 469 c 2,0,-1
332 875 m 1,17,18
 223 779 223 779 110 723 c 1,19,-1
 73 762 l 1,20,21
 173 847 173 847 233 949 c 1,22,23
 296 927 296 927 332 875 c 1,17,18
EndSplineSet
EndChar

StartChar: Icircumflex
Encoding: 206 206 143
Width: 404
GlyphClass: 2
Flags: W
LayerCount: 2
Fore
SplineSet
273 469 m 2,0,-1
 273 230 l 2,1,2
 273 82 273 82 289 22 c 1,3,-1
 289 0 l 1,4,-1
 115 0 l 1,5,-1
 115 22 l 1,6,7
 131 82 131 82 131 230 c 2,8,-1
 131 479 l 2,9,10
 131 618 131 618 115 678 c 1,11,-1
 115 700 l 1,12,-1
 289 700 l 1,13,-1
 289 678 l 1,14,15
 282 655 282 655 277.5 581.5 c 128,-1,16
 273 508 273 508 273 469 c 2,0,-1
159 920 m 1,17,-1
 239 920 l 1,18,19
 265 867 265 867 314 822 c 0,20,21
 331 806 331 806 364 778 c 1,22,-1
 322 733 l 1,23,24
 249 777 249 777 196 836 c 1,25,26
 150 789 150 789 82 738 c 1,27,-1
 39 782 l 1,28,29
 126 858 126 858 159 920 c 1,17,-1
EndSplineSet
EndChar

StartChar: Idieresis
Encoding: 207 207 144
Width: 404
GlyphClass: 2
Flags: W
LayerCount: 2
Fore
SplineSet
273 469 m 2,0,-1
 273 230 l 2,1,2
 273 82 273 82 289 22 c 1,3,-1
 289 0 l 1,4,-1
 115 0 l 1,5,-1
 115 22 l 1,6,7
 131 82 131 82 131 230 c 2,8,-1
 131 479 l 2,9,10
 131 618 131 618 115 678 c 1,11,-1
 115 700 l 1,12,-1
 289 700 l 1,13,-1
 289 678 l 1,14,15
 282 655 282 655 277.5 581.5 c 128,-1,16
 273 508 273 508 273 469 c 2,0,-1
159 893 m 1,17,18
 166 885 166 885 169.5 859 c 128,-1,19
 173 833 173 833 173 819 c 128,-1,20
 173 805 173 805 172 796 c 1,21,-1
 160 785 l 1,22,23
 114 773 114 773 69 770 c 1,24,-1
 53 770 l 1,25,-1
 38 775 l 1,26,27
 16 814 16 814 16 873 c 1,28,-1
 31 884 l 1,29,30
 81 897 81 897 125 899 c 1,31,-1
 147 899 l 1,32,-1
 159 893 l 1,17,18
373 904 m 1,33,34
 380 896 380 896 383.5 870 c 128,-1,35
 387 844 387 844 387 830 c 128,-1,36
 387 816 387 816 386 807 c 1,37,-1
 374 796 l 1,38,39
 328 784 328 784 283 781 c 1,40,-1
 267 781 l 1,41,-1
 252 786 l 1,42,43
 230 825 230 825 230 884 c 1,44,-1
 245 895 l 1,45,46
 295 908 295 908 339 910 c 1,47,-1
 361 910 l 1,48,-1
 373 904 l 1,33,34
EndSplineSet
EndChar

StartChar: Eth
Encoding: 208 208 145
Width: 810
GlyphClass: 2
Flags: W
LayerCount: 2
Fore
SplineSet
356 0 m 1,0,-1
 172 1 l 1,1,-1
 94 1 l 1,2,-1
 94 23 l 1,3,4
 111 87 111 87 111 221 c 2,5,-1
 111 330 l 1,6,-1
 -11 325 l 1,7,-1
 23 402 l 1,8,-1
 37 402 l 2,9,10
 85 402 85 402 111 401 c 1,11,-1
 111 479 l 2,12,13
 111 614 111 614 94 678 c 1,14,-1
 94 700 l 1,15,16
 138 698 138 698 172 698 c 2,17,-1
 371 701 l 1,18,19
 569 701 569 701 665 620.5 c 128,-1,20
 761 540 761 540 761 373 c 0,21,22
 761 270 761 270 724 188 c 128,-1,23
 687 106 687 106 616 59 c 0,24,25
 528 0 528 0 375 0 c 2,26,-1
 356 0 l 1,0,-1
366 325 m 2,27,28
 327 325 327 325 253 327 c 1,29,30
 253 119 253 119 256 87 c 1,31,32
 321 82 321 82 370 82 c 0,33,34
 495 82 495 82 543 110 c 1,35,36
 610 180 610 180 610 357 c 0,37,38
 610 504 610 504 550.5 565.5 c 128,-1,39
 491 627 491 627 352 627 c 0,40,41
 348 627 348 627 255 626 c 1,42,43
 253 579 253 579 253 400 c 1,44,-1
 414 404 l 1,45,-1
 380 325 l 1,46,-1
 366 325 l 2,27,28
EndSplineSet
EndChar

StartChar: Ntilde
Encoding: 209 209 146
Width: 788
GlyphClass: 2
Flags: W
LayerCount: 2
Fore
SplineSet
216 0 m 1,0,-1
 79 0 l 1,1,-1
 79 22 l 1,2,3
 95 82 95 82 95 249 c 2,4,-1
 95 452 l 2,5,6
 95 601 95 601 82 677 c 1,7,-1
 82 699 l 1,8,-1
 240 710 l 1,9,-1
 592 216 l 1,10,-1
 592 479 l 2,11,12
 592 530 592 530 585 591.5 c 128,-1,13
 578 653 578 653 569 678 c 1,14,-1
 569 700 l 1,15,-1
 710 700 l 1,16,-1
 710 678 l 1,17,18
 704 653 704 653 699 580.5 c 128,-1,19
 694 508 694 508 694 451 c 2,20,-1
 694 213 l 2,21,22
 694 155 694 155 700 86 c 128,-1,23
 706 17 706 17 710 2 c 1,24,-1
 579 -11 l 1,25,-1
 197 524 l 1,26,-1
 197 220 l 2,27,28
 197 94 197 94 216 22 c 1,29,-1
 216 0 l 1,0,-1
480 773 m 0,30,31
 456 773 456 773 396.5 797 c 128,-1,32
 337 821 337 821 320.5 821 c 128,-1,33
 304 821 304 821 295.5 819 c 128,-1,34
 287 817 287 817 281.5 815 c 128,-1,35
 276 813 276 813 266.5 808 c 128,-1,36
 257 803 257 803 254 801 c 128,-1,37
 251 799 251 799 240.5 792.5 c 128,-1,38
 230 786 230 786 229 785 c 1,39,-1
 200 810 l 1,40,41
 226 841 226 841 263.5 875 c 128,-1,42
 301 909 301 909 324 909 c 128,-1,43
 347 909 347 909 404.5 887.5 c 128,-1,44
 462 866 462 866 477 866 c 128,-1,45
 492 866 492 866 501 867.5 c 128,-1,46
 510 869 510 869 521.5 874 c 128,-1,47
 533 879 533 879 537.5 881 c 128,-1,48
 542 883 542 883 556 891 c 128,-1,49
 570 899 570 899 571 899 c 2,50,-1
 598 874 l 1,51,52
 515 773 515 773 480 773 c 0,30,31
EndSplineSet
EndChar

StartChar: Ograve
Encoding: 210 210 147
Width: 824
GlyphClass: 2
Flags: W
LayerCount: 2
Fore
SplineSet
144.5 89 m 128,-1,1
 49 190 49 190 49 344.5 c 128,-1,2
 49 499 49 499 156 606.5 c 128,-1,3
 263 714 263 714 429 714 c 128,-1,4
 595 714 595 714 685 614 c 128,-1,5
 775 514 775 514 775 368 c 0,6,7
 775 203 775 203 667.5 95.5 c 128,-1,8
 560 -12 560 -12 400 -12 c 128,-1,0
 240 -12 240 -12 144.5 89 c 128,-1,1
624 341 m 0,9,10
 624 424 624 424 604.5 486 c 128,-1,11
 585 548 585 548 533 589.5 c 128,-1,12
 481 631 481 631 399 631 c 0,13,14
 362 631 362 631 324 622.5 c 128,-1,15
 286 614 286 614 269 604 c 1,16,17
 239 573 239 573 219.5 509 c 128,-1,18
 200 445 200 445 200 374.5 c 128,-1,19
 200 304 200 304 212.5 253.5 c 128,-1,20
 225 203 225 203 251.5 160.5 c 128,-1,21
 278 118 278 118 325 93.5 c 128,-1,22
 372 69 372 69 438.5 69 c 128,-1,23
 505 69 505 69 555 97 c 1,24,25
 624 163 624 163 624 341 c 0,9,10
541 761 m 1,26,-1
 504 722 l 1,27,28
 391 778 391 778 282 874 c 1,29,30
 319 927 319 927 382 949 c 1,31,32
 442 846 442 846 541 761 c 1,26,-1
EndSplineSet
EndChar

StartChar: Oacute
Encoding: 211 211 148
Width: 824
GlyphClass: 2
Flags: W
LayerCount: 2
Fore
SplineSet
144.5 89 m 128,-1,1
 49 190 49 190 49 344.5 c 128,-1,2
 49 499 49 499 156 606.5 c 128,-1,3
 263 714 263 714 429 714 c 128,-1,4
 595 714 595 714 685 614 c 128,-1,5
 775 514 775 514 775 368 c 0,6,7
 775 203 775 203 667.5 95.5 c 128,-1,8
 560 -12 560 -12 400 -12 c 128,-1,0
 240 -12 240 -12 144.5 89 c 128,-1,1
624 341 m 0,9,10
 624 424 624 424 604.5 486 c 128,-1,11
 585 548 585 548 533 589.5 c 128,-1,12
 481 631 481 631 399 631 c 0,13,14
 362 631 362 631 324 622.5 c 128,-1,15
 286 614 286 614 269 604 c 1,16,17
 239 573 239 573 219.5 509 c 128,-1,18
 200 445 200 445 200 374.5 c 128,-1,19
 200 304 200 304 212.5 253.5 c 128,-1,20
 225 203 225 203 251.5 160.5 c 128,-1,21
 278 118 278 118 325 93.5 c 128,-1,22
 372 69 372 69 438.5 69 c 128,-1,23
 505 69 505 69 555 97 c 1,24,25
 624 163 624 163 624 341 c 0,9,10
541 875 m 1,26,27
 432 779 432 779 319 723 c 1,28,-1
 282 762 l 1,29,30
 382 847 382 847 442 949 c 1,31,32
 505 927 505 927 541 875 c 1,26,27
EndSplineSet
EndChar

StartChar: Ocircumflex
Encoding: 212 212 149
Width: 824
GlyphClass: 2
Flags: W
LayerCount: 2
Fore
SplineSet
144.5 89 m 128,-1,1
 49 190 49 190 49 344.5 c 128,-1,2
 49 499 49 499 156 606.5 c 128,-1,3
 263 714 263 714 429 714 c 128,-1,4
 595 714 595 714 685 614 c 128,-1,5
 775 514 775 514 775 368 c 0,6,7
 775 203 775 203 667.5 95.5 c 128,-1,8
 560 -12 560 -12 400 -12 c 128,-1,0
 240 -12 240 -12 144.5 89 c 128,-1,1
624 341 m 0,9,10
 624 424 624 424 604.5 486 c 128,-1,11
 585 548 585 548 533 589.5 c 128,-1,12
 481 631 481 631 399 631 c 0,13,14
 362 631 362 631 324 622.5 c 128,-1,15
 286 614 286 614 269 604 c 1,16,17
 239 573 239 573 219.5 509 c 128,-1,18
 200 445 200 445 200 374.5 c 128,-1,19
 200 304 200 304 212.5 253.5 c 128,-1,20
 225 203 225 203 251.5 160.5 c 128,-1,21
 278 118 278 118 325 93.5 c 128,-1,22
 372 69 372 69 438.5 69 c 128,-1,23
 505 69 505 69 555 97 c 1,24,25
 624 163 624 163 624 341 c 0,9,10
369 920 m 1,26,-1
 449 920 l 1,27,28
 475 867 475 867 524 822 c 0,29,30
 541 806 541 806 574 778 c 1,31,-1
 532 733 l 1,32,33
 459 777 459 777 406 836 c 1,34,35
 360 789 360 789 292 738 c 1,36,-1
 249 782 l 1,37,38
 336 858 336 858 369 920 c 1,26,-1
EndSplineSet
EndChar

StartChar: Otilde
Encoding: 213 213 150
Width: 823
GlyphClass: 2
Flags: W
LayerCount: 2
Fore
SplineSet
144.5 89 m 128,-1,1
 49 190 49 190 49 344.5 c 128,-1,2
 49 499 49 499 156 606.5 c 128,-1,3
 263 714 263 714 429 714 c 128,-1,4
 595 714 595 714 685 614 c 128,-1,5
 775 514 775 514 775 368 c 0,6,7
 775 203 775 203 667.5 95.5 c 128,-1,8
 560 -12 560 -12 400 -12 c 128,-1,0
 240 -12 240 -12 144.5 89 c 128,-1,1
624 341 m 0,9,10
 624 424 624 424 604.5 486 c 128,-1,11
 585 548 585 548 533 589.5 c 128,-1,12
 481 631 481 631 399 631 c 0,13,14
 362 631 362 631 324 622.5 c 128,-1,15
 286 614 286 614 269 604 c 1,16,17
 239 573 239 573 219.5 509 c 128,-1,18
 200 445 200 445 200 374.5 c 128,-1,19
 200 304 200 304 212.5 253.5 c 128,-1,20
 225 203 225 203 251.5 160.5 c 128,-1,21
 278 118 278 118 325 93.5 c 128,-1,22
 372 69 372 69 438.5 69 c 128,-1,23
 505 69 505 69 555 97 c 1,24,25
 624 163 624 163 624 341 c 0,9,10
492 773 m 0,26,27
 468 773 468 773 408.5 797 c 128,-1,28
 349 821 349 821 332.5 821 c 128,-1,29
 316 821 316 821 307.5 819 c 128,-1,30
 299 817 299 817 293.5 815 c 128,-1,31
 288 813 288 813 278.5 808 c 128,-1,32
 269 803 269 803 266 801 c 128,-1,33
 263 799 263 799 252.5 792.5 c 128,-1,34
 242 786 242 786 241 785 c 1,35,-1
 212 810 l 1,36,37
 238 841 238 841 275.5 875 c 128,-1,38
 313 909 313 909 336 909 c 128,-1,39
 359 909 359 909 416.5 887.5 c 128,-1,40
 474 866 474 866 489 866 c 128,-1,41
 504 866 504 866 513 867.5 c 128,-1,42
 522 869 522 869 533.5 874 c 128,-1,43
 545 879 545 879 549.5 881 c 128,-1,44
 554 883 554 883 568 891 c 128,-1,45
 582 899 582 899 583 899 c 2,46,-1
 610 874 l 1,47,48
 527 773 527 773 492 773 c 0,26,27
EndSplineSet
EndChar

StartChar: Odieresis
Encoding: 214 214 151
Width: 823
GlyphClass: 2
Flags: W
LayerCount: 2
Fore
SplineSet
144.5 89 m 128,-1,1
 49 190 49 190 49 344.5 c 128,-1,2
 49 499 49 499 156 606.5 c 128,-1,3
 263 714 263 714 429 714 c 128,-1,4
 595 714 595 714 685 614 c 128,-1,5
 775 514 775 514 775 368 c 0,6,7
 775 203 775 203 667.5 95.5 c 128,-1,8
 560 -12 560 -12 400 -12 c 128,-1,0
 240 -12 240 -12 144.5 89 c 128,-1,1
624 341 m 0,9,10
 624 424 624 424 604.5 486 c 128,-1,11
 585 548 585 548 533 589.5 c 128,-1,12
 481 631 481 631 399 631 c 0,13,14
 362 631 362 631 324 622.5 c 128,-1,15
 286 614 286 614 269 604 c 1,16,17
 239 573 239 573 219.5 509 c 128,-1,18
 200 445 200 445 200 374.5 c 128,-1,19
 200 304 200 304 212.5 253.5 c 128,-1,20
 225 203 225 203 251.5 160.5 c 128,-1,21
 278 118 278 118 325 93.5 c 128,-1,22
 372 69 372 69 438.5 69 c 128,-1,23
 505 69 505 69 555 97 c 1,24,25
 624 163 624 163 624 341 c 0,9,10
368 893 m 1,26,27
 375 885 375 885 378.5 859 c 128,-1,28
 382 833 382 833 382 819 c 128,-1,29
 382 805 382 805 381 796 c 1,30,-1
 369 785 l 1,31,32
 323 773 323 773 278 770 c 1,33,-1
 262 770 l 1,34,-1
 247 775 l 1,35,36
 225 814 225 814 225 873 c 1,37,-1
 240 884 l 1,38,39
 290 897 290 897 334 899 c 1,40,-1
 356 899 l 1,41,-1
 368 893 l 1,26,27
582 904 m 1,42,43
 589 896 589 896 592.5 870 c 128,-1,44
 596 844 596 844 596 830 c 128,-1,45
 596 816 596 816 595 807 c 1,46,-1
 583 796 l 1,47,48
 537 784 537 784 492 781 c 1,49,-1
 476 781 l 1,50,-1
 461 786 l 1,51,52
 439 825 439 825 439 884 c 1,53,-1
 454 895 l 1,54,55
 504 908 504 908 548 910 c 1,56,-1
 570 910 l 1,57,-1
 582 904 l 1,42,43
EndSplineSet
EndChar

StartChar: multiply
Encoding: 215 215 152
Width: 612
GlyphClass: 2
Flags: W
LayerCount: 2
Fore
SplineSet
72 150 m 1,0,-1
 233 300 l 1,1,-1
 72 450 l 1,2,-1
 146 520 l 1,3,-1
 306 368 l 1,4,-1
 465 520 l 1,5,-1
 538 449 l 1,6,-1
 378 299 l 1,7,8
 513 175 513 175 540 149 c 1,9,-1
 467 79 l 1,10,-1
 305 231 l 1,11,12
 283 210 283 210 146 79 c 1,13,-1
 72 150 l 1,0,-1
EndSplineSet
EndChar

StartChar: Oslash
Encoding: 216 216 153
Width: 811
GlyphClass: 2
Flags: W
LayerCount: 2
Fore
SplineSet
2 339 m 0,0,1
 2 499 2 499 109 606.5 c 128,-1,2
 216 714 216 714 385 714 c 0,3,4
 504 714 504 714 589 655 c 1,5,-1
 636 727 l 1,6,-1
 762 741 l 1,7,-1
 762 735 l 1,8,9
 694 657 694 657 649 601 c 1,10,11
 728 507 728 507 728 368 c 0,12,13
 728 203 728 203 620.5 95.5 c 128,-1,14
 513 -12 513 -12 351 -12 c 0,15,16
 262 -12 262 -12 191 22 c 1,17,18
 153 -30 153 -30 136 -59 c 1,19,-1
 5 -76 l 1,20,-1
 5 -70 l 1,21,22
 42 -29 42 -29 120 68 c 1,23,24
 63 116 63 116 32.5 186.5 c 128,-1,25
 2 257 2 257 2 339 c 0,0,1
352 631 m 0,26,27
 315 631 315 631 277 622.5 c 128,-1,28
 239 614 239 614 222 604 c 1,29,30
 192 573 192 573 172.5 509 c 128,-1,31
 153 445 153 445 153 364 c 0,32,33
 153 243 153 243 200 166 c 1,34,35
 426 439 426 439 518 559 c 1,36,37
 459 631 459 631 352 631 c 0,26,27
577 341 m 0,38,39
 577 422 577 422 556 486 c 1,40,41
 384 272 384 272 255 107 c 1,42,43
 309 69 309 69 383.5 69 c 128,-1,44
 458 69 458 69 508 97 c 1,45,46
 577 163 577 163 577 341 c 0,38,39
EndSplineSet
EndChar

StartChar: Ugrave
Encoding: 217 217 154
Width: 769
GlyphClass: 2
Flags: W
LayerCount: 2
Fore
SplineSet
676 491 m 2,0,-1
 676 312 l 2,1,2
 676 130 676 130 609.5 59.5 c 128,-1,3
 543 -11 543 -11 386 -11 c 128,-1,4
 229 -11 229 -11 159 57.5 c 128,-1,5
 89 126 89 126 89 277 c 2,6,-1
 89 475 l 2,7,8
 89 624 89 624 73 678 c 1,9,-1
 73 700 l 1,10,-1
 245 700 l 1,11,-1
 245 678 l 1,12,13
 231 588 231 588 231 445 c 2,14,-1
 231 322 l 2,15,16
 231 221 231 221 243.5 178 c 128,-1,17
 256 135 256 135 274 116 c 0,18,19
 315 71 315 71 399.5 71 c 128,-1,20
 484 71 484 71 525 97 c 1,21,22
 551 136 551 136 558 204 c 128,-1,23
 565 272 565 272 565 434.5 c 128,-1,24
 565 597 565 597 549 678 c 1,25,-1
 549 700 l 1,26,-1
 692 700 l 1,27,-1
 692 679 l 1,28,29
 685 656 685 656 680.5 591.5 c 128,-1,30
 676 527 676 527 676 491 c 2,0,-1
514 761 m 1,31,-1
 477 722 l 1,32,33
 364 778 364 778 255 874 c 1,34,35
 292 927 292 927 355 949 c 1,36,37
 415 846 415 846 514 761 c 1,31,-1
EndSplineSet
EndChar

StartChar: Uacute
Encoding: 218 218 155
Width: 769
GlyphClass: 2
Flags: W
LayerCount: 2
Fore
SplineSet
676 491 m 2,0,-1
 676 312 l 2,1,2
 676 130 676 130 609.5 59.5 c 128,-1,3
 543 -11 543 -11 386 -11 c 128,-1,4
 229 -11 229 -11 159 57.5 c 128,-1,5
 89 126 89 126 89 277 c 2,6,-1
 89 475 l 2,7,8
 89 624 89 624 73 678 c 1,9,-1
 73 700 l 1,10,-1
 245 700 l 1,11,-1
 245 678 l 1,12,13
 231 588 231 588 231 445 c 2,14,-1
 231 322 l 2,15,16
 231 221 231 221 243.5 178 c 128,-1,17
 256 135 256 135 274 116 c 0,18,19
 315 71 315 71 399.5 71 c 128,-1,20
 484 71 484 71 525 97 c 1,21,22
 551 136 551 136 558 204 c 128,-1,23
 565 272 565 272 565 434.5 c 128,-1,24
 565 597 565 597 549 678 c 1,25,-1
 549 700 l 1,26,-1
 692 700 l 1,27,-1
 692 679 l 1,28,29
 685 656 685 656 680.5 591.5 c 128,-1,30
 676 527 676 527 676 491 c 2,0,-1
514 875 m 1,31,32
 405 779 405 779 292 723 c 1,33,-1
 255 762 l 1,34,35
 355 847 355 847 415 949 c 1,36,37
 478 927 478 927 514 875 c 1,31,32
EndSplineSet
EndChar

StartChar: Ucircumflex
Encoding: 219 219 156
Width: 769
GlyphClass: 2
Flags: W
LayerCount: 2
Fore
SplineSet
676 491 m 2,0,-1
 676 312 l 2,1,2
 676 130 676 130 609.5 59.5 c 128,-1,3
 543 -11 543 -11 386 -11 c 128,-1,4
 229 -11 229 -11 159 57.5 c 128,-1,5
 89 126 89 126 89 277 c 2,6,-1
 89 475 l 2,7,8
 89 624 89 624 73 678 c 1,9,-1
 73 700 l 1,10,-1
 245 700 l 1,11,-1
 245 678 l 1,12,13
 231 588 231 588 231 445 c 2,14,-1
 231 322 l 2,15,16
 231 221 231 221 243.5 178 c 128,-1,17
 256 135 256 135 274 116 c 0,18,19
 315 71 315 71 399.5 71 c 128,-1,20
 484 71 484 71 525 97 c 1,21,22
 551 136 551 136 558 204 c 128,-1,23
 565 272 565 272 565 434.5 c 128,-1,24
 565 597 565 597 549 678 c 1,25,-1
 549 700 l 1,26,-1
 692 700 l 1,27,-1
 692 679 l 1,28,29
 685 656 685 656 680.5 591.5 c 128,-1,30
 676 527 676 527 676 491 c 2,0,-1
342 920 m 1,31,-1
 422 920 l 1,32,33
 448 867 448 867 496 822 c 0,34,35
 514 806 514 806 547 778 c 1,36,-1
 505 733 l 1,37,38
 432 777 432 777 379 836 c 1,39,40
 333 789 333 789 265 738 c 1,41,-1
 222 782 l 1,42,43
 309 858 309 858 342 920 c 1,31,-1
EndSplineSet
EndChar

StartChar: Udieresis
Encoding: 220 220 157
Width: 769
GlyphClass: 2
Flags: W
LayerCount: 2
Fore
SplineSet
676 491 m 2,0,-1
 676 312 l 2,1,2
 676 130 676 130 609.5 59.5 c 128,-1,3
 543 -11 543 -11 386 -11 c 128,-1,4
 229 -11 229 -11 159 57.5 c 128,-1,5
 89 126 89 126 89 277 c 2,6,-1
 89 475 l 2,7,8
 89 624 89 624 73 678 c 1,9,-1
 73 700 l 1,10,-1
 245 700 l 1,11,-1
 245 678 l 1,12,13
 231 588 231 588 231 445 c 2,14,-1
 231 322 l 2,15,16
 231 221 231 221 243.5 178 c 128,-1,17
 256 135 256 135 274 116 c 0,18,19
 315 71 315 71 399.5 71 c 128,-1,20
 484 71 484 71 525 97 c 1,21,22
 551 136 551 136 558 204 c 128,-1,23
 565 272 565 272 565 434.5 c 128,-1,24
 565 597 565 597 549 678 c 1,25,-1
 549 700 l 1,26,-1
 692 700 l 1,27,-1
 692 679 l 1,28,29
 685 656 685 656 680.5 591.5 c 128,-1,30
 676 527 676 527 676 491 c 2,0,-1
341 893 m 1,31,32
 348 885 348 885 351.5 859 c 128,-1,33
 355 833 355 833 355 819 c 128,-1,34
 355 805 355 805 354 796 c 1,35,-1
 342 785 l 1,36,37
 296 773 296 773 251 770 c 1,38,-1
 235 770 l 1,39,-1
 220 775 l 1,40,41
 198 814 198 814 198 873 c 1,42,-1
 213 884 l 1,43,44
 263 897 263 897 307 899 c 1,45,-1
 329 899 l 1,46,-1
 341 893 l 1,31,32
555 904 m 1,47,48
 562 896 562 896 565.5 870 c 128,-1,49
 569 844 569 844 569 830 c 128,-1,50
 569 816 569 816 568 807 c 1,51,-1
 556 796 l 1,52,53
 510 784 510 784 465 781 c 1,54,-1
 449 781 l 1,55,-1
 434 786 l 1,56,57
 412 825 412 825 412 884 c 1,58,-1
 427 895 l 1,59,60
 477 908 477 908 521 910 c 1,61,-1
 543 910 l 1,62,-1
 555 904 l 1,47,48
EndSplineSet
EndChar

StartChar: Yacute
Encoding: 221 221 158
Width: 579
GlyphClass: 2
Flags: W
LayerCount: 2
Fore
SplineSet
361 220 m 2,0,1
 361 184 361 184 365.5 114.5 c 128,-1,2
 370 45 370 45 376 22 c 1,3,-1
 376 0 l 1,4,-1
 214 0 l 1,5,-1
 214 22 l 1,6,7
 229 79 229 79 229 194 c 2,8,-1
 229 294 l 1,9,-1
 131 476 l 2,10,11
 92 547 92 547 51 608 c 128,-1,12
 10 669 10 669 -9 678 c 1,13,-1
 -9 700 l 1,14,-1
 176 700 l 1,15,-1
 176 678 l 2,16,17
 176 638 176 638 213 563 c 128,-1,18
 250 488 250 488 310 380 c 1,19,20
 394 550 394 550 413 600.5 c 128,-1,21
 432 651 432 651 432 678 c 2,22,-1
 432 700 l 1,23,-1
 577 700 l 1,24,-1
 577 678 l 1,25,26
 541 653 541 653 489 556 c 0,27,28
 460 502 460 502 361 292 c 1,29,-1
 361 220 l 2,0,1
419 875 m 1,30,31
 310 779 310 779 197 723 c 1,32,-1
 160 762 l 1,33,34
 260 847 260 847 320 949 c 1,35,36
 383 927 383 927 419 875 c 1,30,31
EndSplineSet
EndChar

StartChar: Thorn
Encoding: 222 222 159
Width: 676
GlyphClass: 2
Flags: W
LayerCount: 2
Fore
SplineSet
334 176 m 0,0,1
 302 176 302 176 266 182 c 1,2,3
 271 58 271 58 279 22 c 1,4,-1
 279 0 l 1,5,-1
 108 0 l 1,6,-1
 108 22 l 1,7,8
 123 79 123 79 123 223 c 2,9,-1
 123 477 l 2,10,11
 123 621 123 621 108 678 c 1,12,-1
 108 700 l 1,13,-1
 279 700 l 1,14,-1
 279 678 l 1,15,16
 275 663 275 663 270 606 c 1,17,18
 294 607 294 607 350 607 c 0,19,20
 491 607 491 607 564.5 562.5 c 128,-1,21
 638 518 638 518 638 409 c 128,-1,22
 638 300 638 300 552 238 c 128,-1,23
 466 176 466 176 334 176 c 0,0,1
265 479 m 2,24,-1
 265 243 l 1,25,26
 297 235 297 235 333 235 c 0,27,28
 409 235 409 235 448.5 278.5 c 128,-1,29
 488 322 488 322 488 399 c 128,-1,30
 488 476 488 476 455 509 c 128,-1,31
 422 542 422 542 350 542 c 128,-1,32
 278 542 278 542 267 541 c 1,33,34
 265 489 265 489 265 479 c 2,24,-1
EndSplineSet
EndChar

StartChar: germandbls
Encoding: 223 223 160
Width: 664
GlyphClass: 2
Flags: W
LayerCount: 2
Fore
SplineSet
310.5 328 m 128,-1,1
 300 353 300 353 300 384.5 c 128,-1,2
 300 416 300 416 313.5 443.5 c 128,-1,3
 327 471 327 471 340 484.5 c 128,-1,4
 353 498 353 498 373.5 514.5 c 128,-1,5
 394 531 394 531 402 538 c 0,6,7
 425 560 425 560 425 589 c 0,8,9
 425 651 425 651 329 651 c 0,10,11
 294 651 294 651 275 639 c 1,12,13
 256 615 256 615 256 526 c 2,14,-1
 256 -12 l 1,15,-1
 106 -12 l 1,16,-1
 106 10 l 1,17,18
 124 57 124 57 124 168 c 2,19,-1
 124 383 l 1,20,21
 88 383 88 383 35 380 c 1,22,-1
 69 460 l 1,23,-1
 124 457 l 1,24,-1
 124 491 l 2,25,26
 124 596 124 596 194.5 665.5 c 128,-1,27
 265 735 265 735 371 735 c 2,28,-1
 375 735 l 1,29,30
 450 734 450 734 497.5 700.5 c 128,-1,31
 545 667 545 667 545 597 c 0,32,33
 545 570 545 570 532.5 547.5 c 128,-1,34
 520 525 520 525 508.5 514 c 128,-1,35
 497 503 497 503 475 487 c 128,-1,36
 453 471 453 471 444 462 c 0,37,38
 416 436 416 436 416 399 c 0,39,40
 416 367 416 367 442 347 c 0,41,42
 463 331 463 331 497 314 c 128,-1,43
 531 297 531 297 549.5 285.5 c 128,-1,44
 568 274 568 274 592 254 c 1,45,46
 638 213 638 213 638 140 c 128,-1,47
 638 67 638 67 587.5 23.5 c 128,-1,48
 537 -20 537 -20 452 -22 c 1,49,-1
 446 -22 l 2,50,51
 359 -22 359 -22 295 25 c 1,52,53
 296 81 296 81 329 139 c 1,54,55
 352 111 352 111 392.5 85.5 c 128,-1,56
 433 60 433 60 459.5 60 c 128,-1,57
 486 60 486 60 498 66 c 1,58,59
 510 78 510 78 510 135 c 0,60,61
 510 168 510 168 484 190 c 1,62,63
 463 206 463 206 430.5 224 c 128,-1,64
 398 242 398 242 380.5 253.5 c 128,-1,65
 363 265 363 265 342 284 c 128,-1,0
 321 303 321 303 310.5 328 c 128,-1,1
EndSplineSet
EndChar

StartChar: agrave
Encoding: 224 224 161
Width: 552
GlyphClass: 2
Flags: W
LayerCount: 2
Fore
SplineSet
245 69 m 0,0,1
 301 69 301 69 338 115 c 1,2,-1
 338 200 l 1,3,4
 302 213 302 213 258.5 213 c 128,-1,5
 215 213 215 213 192 197 c 1,6,7
 177 178 177 178 177 147 c 0,8,9
 177 69 177 69 245 69 c 0,0,1
470 172 m 2,10,11
 470 127 470 127 485 86 c 128,-1,12
 500 45 500 45 522 31 c 1,13,-1
 524 9 l 1,14,-1
 381 -21 l 1,15,16
 365 9 365 9 351 63 c 1,17,18
 325 35 325 35 309 21.5 c 128,-1,19
 293 8 293 8 264.5 -5 c 128,-1,20
 236 -18 236 -18 204 -18 c 0,21,22
 141 -18 141 -18 93 20 c 128,-1,23
 45 58 45 58 45 130 c 0,24,25
 45 269 45 269 248 269 c 1,26,-1
 337 265 l 1,27,-1
 337 326 l 2,28,29
 337 378 337 378 311 410 c 128,-1,30
 285 442 285 442 231 442 c 0,31,32
 219 442 219 442 197 427.5 c 128,-1,33
 175 413 175 413 102 340 c 1,34,35
 52 399 52 399 48 459 c 1,36,37
 176 499 176 499 264 499 c 128,-1,38
 352 499 352 499 411 458 c 128,-1,39
 470 417 470 417 470 329 c 2,40,-1
 470 172 l 2,10,11
370 544 m 1,41,-1
 333 505 l 1,42,43
 220 561 220 561 111 657 c 1,44,45
 148 710 148 710 211 732 c 1,46,47
 271 629 271 629 370 544 c 1,41,-1
EndSplineSet
EndChar

StartChar: aacute
Encoding: 225 225 162
Width: 552
GlyphClass: 2
Flags: W
LayerCount: 2
Fore
SplineSet
245 69 m 0,0,1
 301 69 301 69 338 115 c 1,2,-1
 338 200 l 1,3,4
 302 213 302 213 258.5 213 c 128,-1,5
 215 213 215 213 192 197 c 1,6,7
 177 178 177 178 177 147 c 0,8,9
 177 69 177 69 245 69 c 0,0,1
470 172 m 2,10,11
 470 127 470 127 485 86 c 128,-1,12
 500 45 500 45 522 31 c 1,13,-1
 524 9 l 1,14,-1
 381 -21 l 1,15,16
 365 9 365 9 351 63 c 1,17,18
 325 35 325 35 309 21.5 c 128,-1,19
 293 8 293 8 264.5 -5 c 128,-1,20
 236 -18 236 -18 204 -18 c 0,21,22
 141 -18 141 -18 93 20 c 128,-1,23
 45 58 45 58 45 130 c 0,24,25
 45 269 45 269 248 269 c 1,26,-1
 337 265 l 1,27,-1
 337 326 l 2,28,29
 337 378 337 378 311 410 c 128,-1,30
 285 442 285 442 231 442 c 0,31,32
 219 442 219 442 197 427.5 c 128,-1,33
 175 413 175 413 102 340 c 1,34,35
 52 399 52 399 48 459 c 1,36,37
 176 499 176 499 264 499 c 128,-1,38
 352 499 352 499 411 458 c 128,-1,39
 470 417 470 417 470 329 c 2,40,-1
 470 172 l 2,10,11
456 658 m 1,41,42
 347 562 347 562 234 506 c 1,43,-1
 197 545 l 1,44,45
 297 630 297 630 357 732 c 1,46,47
 420 710 420 710 456 658 c 1,41,42
EndSplineSet
EndChar

StartChar: acircumflex
Encoding: 226 226 163
Width: 552
GlyphClass: 2
Flags: W
LayerCount: 2
Fore
SplineSet
245 69 m 0,0,1
 301 69 301 69 338 115 c 1,2,-1
 338 200 l 1,3,4
 302 213 302 213 258.5 213 c 128,-1,5
 215 213 215 213 192 197 c 1,6,7
 177 178 177 178 177 147 c 0,8,9
 177 69 177 69 245 69 c 0,0,1
470 172 m 2,10,11
 470 127 470 127 485 86 c 128,-1,12
 500 45 500 45 522 31 c 1,13,-1
 524 9 l 1,14,-1
 381 -21 l 1,15,16
 365 9 365 9 351 63 c 1,17,18
 325 35 325 35 309 21.5 c 128,-1,19
 293 8 293 8 264.5 -5 c 128,-1,20
 236 -18 236 -18 204 -18 c 0,21,22
 141 -18 141 -18 93 20 c 128,-1,23
 45 58 45 58 45 130 c 0,24,25
 45 269 45 269 248 269 c 1,26,-1
 337 265 l 1,27,-1
 337 326 l 2,28,29
 337 378 337 378 311 410 c 128,-1,30
 285 442 285 442 231 442 c 0,31,32
 219 442 219 442 197 427.5 c 128,-1,33
 175 413 175 413 102 340 c 1,34,35
 52 399 52 399 48 459 c 1,36,37
 176 499 176 499 264 499 c 128,-1,38
 352 499 352 499 411 458 c 128,-1,39
 470 417 470 417 470 329 c 2,40,-1
 470 172 l 2,10,11
240 703 m 1,41,-1
 320 703 l 1,42,43
 346 650 346 650 394 605 c 0,44,45
 412 589 412 589 445 561 c 1,46,-1
 403 516 l 1,47,48
 330 560 330 560 277 619 c 1,49,50
 231 572 231 572 163 521 c 1,51,-1
 120 565 l 1,52,53
 207 641 207 641 240 703 c 1,41,-1
EndSplineSet
EndChar

StartChar: atilde
Encoding: 227 227 164
Width: 552
GlyphClass: 2
Flags: W
LayerCount: 2
Fore
SplineSet
245 69 m 0,0,1
 301 69 301 69 338 115 c 1,2,-1
 338 200 l 1,3,4
 302 213 302 213 258.5 213 c 128,-1,5
 215 213 215 213 192 197 c 1,6,7
 177 178 177 178 177 147 c 0,8,9
 177 69 177 69 245 69 c 0,0,1
470 172 m 2,10,11
 470 127 470 127 485 86 c 128,-1,12
 500 45 500 45 522 31 c 1,13,-1
 524 9 l 1,14,-1
 381 -21 l 1,15,16
 365 9 365 9 351 63 c 1,17,18
 325 35 325 35 309 21.5 c 128,-1,19
 293 8 293 8 264.5 -5 c 128,-1,20
 236 -18 236 -18 204 -18 c 0,21,22
 141 -18 141 -18 93 20 c 128,-1,23
 45 58 45 58 45 130 c 0,24,25
 45 269 45 269 248 269 c 1,26,-1
 337 265 l 1,27,-1
 337 326 l 2,28,29
 337 378 337 378 311 410 c 128,-1,30
 285 442 285 442 231 442 c 0,31,32
 219 442 219 442 197 427.5 c 128,-1,33
 175 413 175 413 102 340 c 1,34,35
 52 399 52 399 48 459 c 1,36,37
 176 499 176 499 264 499 c 128,-1,38
 352 499 352 499 411 458 c 128,-1,39
 470 417 470 417 470 329 c 2,40,-1
 470 172 l 2,10,11
365 556 m 0,41,42
 341 556 341 556 281.5 580 c 128,-1,43
 222 604 222 604 205.5 604 c 128,-1,44
 189 604 189 604 180.5 602 c 128,-1,45
 172 600 172 600 166.5 598 c 128,-1,46
 161 596 161 596 151.5 591 c 128,-1,47
 142 586 142 586 139 584 c 128,-1,48
 136 582 136 582 125.5 575.5 c 128,-1,49
 115 569 115 569 114 568 c 1,50,-1
 85 593 l 1,51,52
 111 624 111 624 148.5 658 c 128,-1,53
 186 692 186 692 209 692 c 128,-1,54
 232 692 232 692 289.5 670.5 c 128,-1,55
 347 649 347 649 362 649 c 128,-1,56
 377 649 377 649 386 650.5 c 128,-1,57
 395 652 395 652 406.5 657 c 128,-1,58
 418 662 418 662 422.5 664 c 128,-1,59
 427 666 427 666 441 674 c 128,-1,60
 455 682 455 682 456 682 c 2,61,-1
 483 657 l 1,62,63
 400 556 400 556 365 556 c 0,41,42
EndSplineSet
EndChar

StartChar: adieresis
Encoding: 228 228 165
Width: 552
GlyphClass: 2
Flags: W
LayerCount: 2
Fore
SplineSet
245 69 m 0,0,1
 301 69 301 69 338 115 c 1,2,-1
 338 200 l 1,3,4
 302 213 302 213 258.5 213 c 128,-1,5
 215 213 215 213 192 197 c 1,6,7
 177 178 177 178 177 147 c 0,8,9
 177 69 177 69 245 69 c 0,0,1
470 172 m 2,10,11
 470 127 470 127 485 86 c 128,-1,12
 500 45 500 45 522 31 c 1,13,-1
 524 9 l 1,14,-1
 381 -21 l 1,15,16
 365 9 365 9 351 63 c 1,17,18
 325 35 325 35 309 21.5 c 128,-1,19
 293 8 293 8 264.5 -5 c 128,-1,20
 236 -18 236 -18 204 -18 c 0,21,22
 141 -18 141 -18 93 20 c 128,-1,23
 45 58 45 58 45 130 c 0,24,25
 45 269 45 269 248 269 c 1,26,-1
 337 265 l 1,27,-1
 337 326 l 2,28,29
 337 378 337 378 311 410 c 128,-1,30
 285 442 285 442 231 442 c 0,31,32
 219 442 219 442 197 427.5 c 128,-1,33
 175 413 175 413 102 340 c 1,34,35
 52 399 52 399 48 459 c 1,36,37
 176 499 176 499 264 499 c 128,-1,38
 352 499 352 499 411 458 c 128,-1,39
 470 417 470 417 470 329 c 2,40,-1
 470 172 l 2,10,11
241 676 m 1,41,42
 248 668 248 668 251.5 642 c 128,-1,43
 255 616 255 616 255 602 c 128,-1,44
 255 588 255 588 254 579 c 1,45,-1
 242 568 l 1,46,47
 196 556 196 556 151 553 c 1,48,-1
 135 553 l 1,49,-1
 120 558 l 1,50,51
 98 597 98 597 98 656 c 1,52,-1
 113 667 l 1,53,54
 163 680 163 680 207 682 c 1,55,-1
 229 682 l 1,56,-1
 241 676 l 1,41,42
455 687 m 1,57,58
 462 679 462 679 465.5 653 c 128,-1,59
 469 627 469 627 469 613 c 128,-1,60
 469 599 469 599 468 590 c 1,61,-1
 456 579 l 1,62,63
 410 567 410 567 365 564 c 1,64,-1
 349 564 l 1,65,-1
 334 569 l 1,66,67
 312 608 312 608 312 667 c 1,68,-1
 327 678 l 1,69,70
 377 691 377 691 421 693 c 1,71,-1
 443 693 l 1,72,-1
 455 687 l 1,57,58
EndSplineSet
EndChar

StartChar: aring
Encoding: 229 229 166
Width: 552
GlyphClass: 2
Flags: W
LayerCount: 2
Fore
SplineSet
245 69 m 0,0,1
 301 69 301 69 338 115 c 1,2,-1
 338 200 l 1,3,4
 302 213 302 213 258.5 213 c 128,-1,5
 215 213 215 213 192 197 c 1,6,7
 177 178 177 178 177 147 c 0,8,9
 177 69 177 69 245 69 c 0,0,1
470 172 m 2,10,11
 470 127 470 127 485 86 c 128,-1,12
 500 45 500 45 522 31 c 1,13,-1
 524 9 l 1,14,-1
 381 -21 l 1,15,16
 365 9 365 9 351 63 c 1,17,18
 325 35 325 35 309 21.5 c 128,-1,19
 293 8 293 8 264.5 -5 c 128,-1,20
 236 -18 236 -18 204 -18 c 0,21,22
 141 -18 141 -18 93 20 c 128,-1,23
 45 58 45 58 45 130 c 0,24,25
 45 269 45 269 248 269 c 1,26,-1
 337 265 l 1,27,-1
 337 326 l 2,28,29
 337 378 337 378 311 410 c 128,-1,30
 285 442 285 442 231 442 c 0,31,32
 219 442 219 442 197 427.5 c 128,-1,33
 175 413 175 413 102 340 c 1,34,35
 52 399 52 399 48 459 c 1,36,37
 176 499 176 499 264 499 c 128,-1,38
 352 499 352 499 411 458 c 128,-1,39
 470 417 470 417 470 329 c 2,40,-1
 470 172 l 2,10,11
366 638 m 128,-1,42
 366 593 366 593 334 561 c 0,43,44
 302 528 302 528 255.5 528 c 128,-1,45
 209 528 209 528 179.5 558.5 c 128,-1,46
 150 589 150 589 150 634.5 c 128,-1,47
 150 680 150 680 182.5 712 c 128,-1,48
 215 744 215 744 260 744 c 0,49,50
 307 744 307 744 336.5 713.5 c 128,-1,41
 366 683 366 683 366 638 c 128,-1,42
262 594 m 0,51,52
 281 594 281 594 292 601 c 1,53,54
 302 613 302 613 302 633 c 0,55,56
 302 678 302 678 255 678 c 0,57,58
 236 678 236 678 225 671 c 1,59,60
 215 661 215 661 215 643 c 0,61,62
 215 594 215 594 262 594 c 0,51,52
EndSplineSet
EndChar

StartChar: ae
Encoding: 230 230 167
Width: 834
GlyphClass: 2
Flags: W
LayerCount: 2
Fore
SplineSet
563 -19 m 0,0,1
 467 -19 467 -19 400 53 c 1,2,3
 313 -18 313 -18 230.5 -18 c 128,-1,4
 148 -18 148 -18 96.5 18.5 c 128,-1,5
 45 55 45 55 45 127 c 0,6,7
 45 264 45 264 248 264 c 1,8,-1
 337 260 l 1,9,-1
 337 323 l 2,10,11
 337 377 337 377 311 409.5 c 128,-1,12
 285 442 285 442 231 442 c 0,13,14
 219 442 219 442 200 429.5 c 128,-1,15
 181 417 181 417 168 404 c 0,16,17
 127 365 127 365 102 340 c 1,18,19
 52 399 52 399 48 459 c 1,20,21
 176 499 176 499 266 499 c 0,22,23
 378 499 378 499 433 437 c 1,24,25
 503 499 503 499 600.5 499 c 128,-1,26
 698 499 698 499 746 436 c 128,-1,27
 794 373 794 373 794 262 c 1,28,-1
 756 223 l 1,29,-1
 482 223 l 1,30,31
 483 151 483 151 520.5 112 c 128,-1,32
 558 73 558 73 610.5 73 c 128,-1,33
 663 73 663 73 769 128 c 1,34,-1
 794 90 l 1,35,36
 775 72 775 72 751 53 c 128,-1,37
 727 34 727 34 670.5 7.5 c 128,-1,38
 614 -19 614 -19 563 -19 c 0,0,1
577 435 m 0,39,40
 540 435 540 435 518 420 c 1,41,42
 502 395 502 395 493 354 c 128,-1,43
 484 313 484 313 483 281 c 1,44,-1
 658 291 l 1,45,46
 658 435 658 435 577 435 c 0,39,40
256 208 m 128,-1,48
 215 208 215 208 192 193 c 1,49,50
 177 174 177 174 177 144 c 0,51,52
 177 69 177 69 247 69 c 0,53,54
 308 69 308 69 359 113 c 1,55,56
 339 153 339 153 339 196 c 2,57,-1
 339 197 l 1,58,47
 297 208 297 208 256 208 c 128,-1,48
EndSplineSet
EndChar

StartChar: ccedilla
Encoding: 231 231 168
Width: 542
GlyphClass: 2
Flags: W
LayerCount: 2
Fore
SplineSet
188 246 m 0,0,1
 188 71 188 71 290 71 c 0,2,3
 362 71 362 71 479 132 c 1,4,-1
 505 91 l 1,5,6
 472 60 472 60 416.5 27.5 c 128,-1,7
 361 -5 361 -5 315 -15 c 1,8,-1
 285 -63 l 1,9,10
 295 -60 295 -60 321.5 -60.5 c 128,-1,11
 348 -61 348 -61 371 -81.5 c 128,-1,12
 394 -102 394 -102 394 -140 c 128,-1,13
 394 -178 394 -178 359 -201 c 128,-1,14
 324 -224 324 -224 286 -224 c 128,-1,15
 248 -224 248 -224 212 -211 c 128,-1,16
 176 -198 176 -198 161 -189 c 1,17,-1
 180 -148 l 1,18,19
 212 -165 212 -165 239.5 -165 c 128,-1,20
 267 -165 267 -165 281.5 -156 c 128,-1,21
 296 -147 296 -147 296 -132.5 c 128,-1,22
 296 -118 296 -118 284 -109 c 1,23,24
 270 -105 270 -105 252 -105 c 128,-1,25
 234 -105 234 -105 213 -109 c 1,26,-1
 200 -90 l 1,27,-1
 237 -14 l 1,28,29
 146 1 146 1 95 68 c 128,-1,30
 44 135 44 135 44 241.5 c 128,-1,31
 44 348 44 348 127 423.5 c 128,-1,32
 210 499 210 499 317 499 c 128,-1,33
 424 499 424 499 501 448 c 1,34,35
 467 391 467 391 437 359 c 1,36,37
 356 421 356 421 282 421 c 0,38,39
 263 421 263 421 248 418 c 1,40,41
 222 394 222 394 205 348 c 128,-1,42
 188 302 188 302 188 246 c 0,0,1
EndSplineSet
EndChar

StartChar: egrave
Encoding: 232 232 169
Width: 540
GlyphClass: 2
Flags: W
LayerCount: 2
Fore
SplineSet
269 -19 m 0,0,1
 182 -19 182 -19 113 46 c 128,-1,2
 44 111 44 111 44 221.5 c 128,-1,3
 44 332 44 332 117 415.5 c 128,-1,4
 190 499 190 499 306 499 c 0,5,6
 404 499 404 499 452 436 c 128,-1,7
 500 373 500 373 500 262 c 1,8,-1
 462 223 l 1,9,-1
 188 223 l 1,10,11
 189 151 189 151 226.5 112 c 128,-1,12
 264 73 264 73 316.5 73 c 128,-1,13
 369 73 369 73 475 128 c 1,14,-1
 500 90 l 1,15,16
 481 72 481 72 457 53 c 128,-1,17
 433 34 433 34 376.5 7.5 c 128,-1,18
 320 -19 320 -19 269 -19 c 0,0,1
283 435 m 0,19,20
 246 435 246 435 224 420 c 1,21,22
 208 395 208 395 199 354 c 128,-1,23
 190 313 190 313 189 281 c 1,24,-1
 364 291 l 1,25,26
 364 435 364 435 283 435 c 0,19,20
358 544 m 1,27,-1
 321 505 l 1,28,29
 208 561 208 561 99 657 c 1,30,31
 136 710 136 710 199 732 c 1,32,33
 259 629 259 629 358 544 c 1,27,-1
EndSplineSet
EndChar

StartChar: eacute
Encoding: 233 233 170
Width: 540
GlyphClass: 2
Flags: W
LayerCount: 2
Fore
SplineSet
269 -19 m 0,0,1
 182 -19 182 -19 113 46 c 128,-1,2
 44 111 44 111 44 221.5 c 128,-1,3
 44 332 44 332 117 415.5 c 128,-1,4
 190 499 190 499 306 499 c 0,5,6
 404 499 404 499 452 436 c 128,-1,7
 500 373 500 373 500 262 c 1,8,-1
 462 223 l 1,9,-1
 188 223 l 1,10,11
 189 151 189 151 226.5 112 c 128,-1,12
 264 73 264 73 316.5 73 c 128,-1,13
 369 73 369 73 475 128 c 1,14,-1
 500 90 l 1,15,16
 481 72 481 72 457 53 c 128,-1,17
 433 34 433 34 376.5 7.5 c 128,-1,18
 320 -19 320 -19 269 -19 c 0,0,1
283 435 m 0,19,20
 246 435 246 435 224 420 c 1,21,22
 208 395 208 395 199 354 c 128,-1,23
 190 313 190 313 189 281 c 1,24,-1
 364 291 l 1,25,26
 364 435 364 435 283 435 c 0,19,20
444 658 m 1,27,28
 335 562 335 562 222 506 c 1,29,-1
 185 545 l 1,30,31
 285 630 285 630 345 732 c 1,32,33
 408 710 408 710 444 658 c 1,27,28
EndSplineSet
EndChar

StartChar: ecircumflex
Encoding: 234 234 171
Width: 540
GlyphClass: 2
Flags: W
LayerCount: 2
Fore
SplineSet
269 -19 m 0,0,1
 182 -19 182 -19 113 46 c 128,-1,2
 44 111 44 111 44 221.5 c 128,-1,3
 44 332 44 332 117 415.5 c 128,-1,4
 190 499 190 499 306 499 c 0,5,6
 404 499 404 499 452 436 c 128,-1,7
 500 373 500 373 500 262 c 1,8,-1
 462 223 l 1,9,-1
 188 223 l 1,10,11
 189 151 189 151 226.5 112 c 128,-1,12
 264 73 264 73 316.5 73 c 128,-1,13
 369 73 369 73 475 128 c 1,14,-1
 500 90 l 1,15,16
 481 72 481 72 457 53 c 128,-1,17
 433 34 433 34 376.5 7.5 c 128,-1,18
 320 -19 320 -19 269 -19 c 0,0,1
283 435 m 0,19,20
 246 435 246 435 224 420 c 1,21,22
 208 395 208 395 199 354 c 128,-1,23
 190 313 190 313 189 281 c 1,24,-1
 364 291 l 1,25,26
 364 435 364 435 283 435 c 0,19,20
230 703 m 1,27,-1
 310 703 l 1,28,29
 336 650 336 650 384 605 c 0,30,31
 402 589 402 589 435 561 c 1,32,-1
 393 516 l 1,33,34
 320 560 320 560 267 619 c 1,35,36
 221 572 221 572 153 521 c 1,37,-1
 110 565 l 1,38,39
 197 641 197 641 230 703 c 1,27,-1
EndSplineSet
EndChar

StartChar: edieresis
Encoding: 235 235 172
Width: 540
GlyphClass: 2
Flags: W
LayerCount: 2
Fore
SplineSet
269 -19 m 0,0,1
 182 -19 182 -19 113 46 c 128,-1,2
 44 111 44 111 44 221.5 c 128,-1,3
 44 332 44 332 117 415.5 c 128,-1,4
 190 499 190 499 306 499 c 0,5,6
 404 499 404 499 452 436 c 128,-1,7
 500 373 500 373 500 262 c 1,8,-1
 462 223 l 1,9,-1
 188 223 l 1,10,11
 189 151 189 151 226.5 112 c 128,-1,12
 264 73 264 73 316.5 73 c 128,-1,13
 369 73 369 73 475 128 c 1,14,-1
 500 90 l 1,15,16
 481 72 481 72 457 53 c 128,-1,17
 433 34 433 34 376.5 7.5 c 128,-1,18
 320 -19 320 -19 269 -19 c 0,0,1
283 435 m 0,19,20
 246 435 246 435 224 420 c 1,21,22
 208 395 208 395 199 354 c 128,-1,23
 190 313 190 313 189 281 c 1,24,-1
 364 291 l 1,25,26
 364 435 364 435 283 435 c 0,19,20
233 676 m 1,27,28
 240 668 240 668 243.5 642 c 128,-1,29
 247 616 247 616 247 602 c 128,-1,30
 247 588 247 588 246 579 c 1,31,-1
 234 568 l 1,32,33
 188 556 188 556 143 553 c 1,34,-1
 127 553 l 1,35,-1
 112 558 l 1,36,37
 90 597 90 597 90 656 c 1,38,-1
 105 667 l 1,39,40
 155 680 155 680 199 682 c 1,41,-1
 221 682 l 1,42,-1
 233 676 l 1,27,28
447 687 m 1,43,44
 454 679 454 679 457.5 653 c 128,-1,45
 461 627 461 627 461 613 c 128,-1,46
 461 599 461 599 460 590 c 1,47,-1
 448 579 l 1,48,49
 402 567 402 567 357 564 c 1,50,-1
 341 564 l 1,51,-1
 326 569 l 1,52,53
 304 608 304 608 304 667 c 1,54,-1
 319 678 l 1,55,56
 369 691 369 691 413 693 c 1,57,-1
 435 693 l 1,58,-1
 447 687 l 1,43,44
EndSplineSet
EndChar

StartChar: igrave
Encoding: 236 236 173
Width: 335
GlyphClass: 2
Flags: W
LayerCount: 2
Fore
SplineSet
226 179 m 2,0,1
 226 84 226 84 255 22 c 1,2,-1
 255 0 l 1,3,-1
 77 0 l 1,4,-1
 77 22 l 1,5,6
 94 73 94 73 94 157 c 2,7,-1
 94 305 l 2,8,9
 94 360 94 360 77 396.5 c 128,-1,10
 60 433 60 433 34 447 c 1,11,-1
 34 469 l 1,12,-1
 220 503 l 1,13,-1
 232 483 l 1,14,15
 226 460 226 460 226 393 c 2,16,-1
 226 179 l 2,0,1
231 544 m 1,17,-1
 194 505 l 1,18,19
 81 561 81 561 -28 657 c 1,20,21
 9 710 9 710 72 732 c 1,22,23
 132 629 132 629 231 544 c 1,17,-1
EndSplineSet
EndChar

StartChar: iacute
Encoding: 237 237 174
Width: 303
GlyphClass: 2
Flags: W
LayerCount: 2
Fore
SplineSet
259 179 m 2,0,1
 259 84 259 84 288 22 c 1,2,-1
 288 0 l 1,3,-1
 110 0 l 1,4,-1
 110 22 l 1,5,6
 127 73 127 73 127 157 c 2,7,-1
 127 305 l 2,8,9
 127 360 127 360 110 396.5 c 128,-1,10
 93 433 93 433 67 447 c 1,11,-1
 67 469 l 1,12,-1
 253 503 l 1,13,-1
 265 483 l 1,14,15
 259 460 259 460 259 393 c 2,16,-1
 259 179 l 2,0,1
350 658 m 1,17,18
 241 562 241 562 128 506 c 1,19,-1
 91 545 l 1,20,21
 191 630 191 630 251 732 c 1,22,23
 314 710 314 710 350 658 c 1,17,18
EndSplineSet
EndChar

StartChar: icircumflex
Encoding: 238 238 175
Width: 397
GlyphClass: 2
Flags: W
LayerCount: 2
Fore
SplineSet
137 136 m 2,0,-1
 137 325 l 2,1,2
 137 408 137 408 85 441 c 1,3,-1
 85 467 l 1,4,-1
 259 495 l 1,5,-1
 273 473 l 1,6,7
 269 443 269 443 269 390 c 2,8,-1
 269 160 l 2,9,10
 269 67 269 67 295 8 c 1,11,-1
 295 -12 l 1,12,-1
 121 -12 l 1,13,-1
 121 8 l 1,14,15
 137 53 137 53 137 136 c 2,0,-1
121 711 m 1,16,-1
 220 725 l 1,17,18
 233 690 233 690 255 656 c 128,-1,19
 277 622 277 622 292 604.5 c 128,-1,20
 307 587 307 587 341 550 c 1,21,-1
 287 499 l 1,22,23
 260 520 260 520 222 556.5 c 128,-1,24
 184 593 184 593 162 620 c 1,25,26
 118 567 118 567 55 506 c 1,27,-1
 2 551 l 1,28,29
 35 585 35 585 50.5 602 c 128,-1,30
 66 619 66 619 87.5 650 c 128,-1,31
 109 681 109 681 121 711 c 1,16,-1
EndSplineSet
EndChar

StartChar: idieresis
Encoding: 239 239 176
Width: 402
GlyphClass: 2
Flags: W
LayerCount: 2
Fore
SplineSet
182 598 m 0,0,1
 182 593 182 593 180 579 c 1,2,-1
 166 567 l 1,3,4
 123 553 123 553 80 550 c 1,5,-1
 63 550 l 1,6,-1
 42 556 l 1,7,8
 23 592 23 592 23 645 c 1,9,-1
 40 660 l 1,10,11
 82 674 82 674 125 677 c 1,12,-1
 147 677 l 1,13,-1
 162 669 l 1,14,15
 182 649 182 649 182 598 c 0,0,1
358 606 m 0,16,17
 358 595 358 595 357 587 c 1,18,-1
 343 575 l 1,19,20
 298 562 298 562 256 559 c 1,21,-1
 239 559 l 1,22,-1
 219 564 l 1,23,24
 200 599 200 599 200 655 c 1,25,-1
 217 669 l 1,26,27
 259 683 259 683 301 685 c 1,28,-1
 323 685 l 1,29,-1
 339 678 l 1,30,31
 358 659 358 659 358 606 c 0,16,17
137 135 m 2,32,-1
 137 325 l 2,33,34
 137 363 137 363 123 394 c 128,-1,35
 109 425 109 425 85 441 c 1,36,-1
 85 466 l 1,37,-1
 259 494 l 1,38,-1
 272 473 l 1,39,40
 269 443 269 443 269 390 c 2,41,-1
 269 160 l 2,42,43
 269 67 269 67 295 8 c 1,44,-1
 295 -12 l 1,45,-1
 121 -12 l 1,46,-1
 121 8 l 1,47,48
 137 53 137 53 137 135 c 2,32,-1
EndSplineSet
EndChar

StartChar: eth
Encoding: 240 240 177
Width: 615
GlyphClass: 2
Flags: W
LayerCount: 2
Fore
SplineSet
494 61 m 128,-1,1
 417 -19 417 -19 300.5 -19 c 128,-1,2
 184 -19 184 -19 117.5 49 c 128,-1,3
 51 117 51 117 51 230 c 0,4,5
 51 375 51 375 166 450 c 1,6,7
 228 492 228 492 295 492 c 1,8,9
 264 525 264 525 244 544 c 1,10,11
 130 502 130 502 85 483 c 1,12,-1
 92 569 l 1,13,14
 112 575 112 575 181 597 c 1,15,16
 121 645 121 645 47 681 c 1,17,-1
 44 703 l 1,18,-1
 222 741 l 1,19,20
 255 689 255 689 300 639 c 1,21,-1
 452 695 l 1,22,-1
 447 613 l 1,23,24
 414 603 414 603 351 582 c 1,25,26
 396 537 396 537 429 506.5 c 128,-1,27
 462 476 462 476 496 442 c 0,28,29
 571 367 571 367 571 254 c 128,-1,0
 571 141 571 141 494 61 c 128,-1,1
427 228 m 0,30,31
 427 325 427 325 399 379.5 c 128,-1,32
 371 434 371 434 301 434 c 0,33,34
 256 434 256 434 231 412 c 1,35,36
 215 389 215 389 205 343 c 128,-1,37
 195 297 195 297 195 254 c 0,38,39
 195 45 195 45 328 45 c 0,40,41
 368 45 368 45 393 66 c 1,42,43
 410 89 410 89 418.5 136.5 c 128,-1,44
 427 184 427 184 427 228 c 0,30,31
EndSplineSet
EndChar

StartChar: ntilde
Encoding: 241 241 178
Width: 643
GlyphClass: 2
Flags: W
LayerCount: 2
Fore
SplineSet
109 298 m 2,0,1
 109 417 109 417 49 447 c 1,2,-1
 49 469 l 1,3,-1
 211 500 l 1,4,-1
 222 481 l 1,5,6
 230 457 230 457 233 417 c 1,7,8
 284 458 284 458 321.5 478.5 c 128,-1,9
 359 499 359 499 401 499 c 0,10,11
 476 499 476 499 517 452.5 c 128,-1,12
 558 406 558 406 558 318 c 2,13,-1
 558 191 l 2,14,15
 558 92 558 92 588 22 c 1,16,-1
 588 0 l 1,17,-1
 412 0 l 1,18,-1
 412 22 l 1,19,20
 429 69 429 69 429 157 c 2,21,-1
 429 282 l 2,22,23
 429 340 429 340 415 367.5 c 128,-1,24
 401 395 401 395 355 395 c 128,-1,25
 309 395 309 395 238 353 c 1,26,-1
 238 189 l 2,27,28
 238 84 238 84 267 22 c 1,29,-1
 267 0 l 1,30,-1
 92 0 l 1,31,-1
 92 22 l 1,32,33
 109 73 109 73 109 164 c 2,34,-1
 109 298 l 2,0,1
401 556 m 0,35,36
 377 556 377 556 317.5 580 c 128,-1,37
 258 604 258 604 241.5 604 c 128,-1,38
 225 604 225 604 216.5 602 c 128,-1,39
 208 600 208 600 202.5 598 c 128,-1,40
 197 596 197 596 187.5 591 c 128,-1,41
 178 586 178 586 175 584 c 128,-1,42
 172 582 172 582 161.5 575.5 c 128,-1,43
 151 569 151 569 150 568 c 1,44,-1
 121 593 l 1,45,46
 147 624 147 624 184.5 658 c 128,-1,47
 222 692 222 692 245 692 c 128,-1,48
 268 692 268 692 325.5 670.5 c 128,-1,49
 383 649 383 649 398 649 c 128,-1,50
 413 649 413 649 422 650.5 c 128,-1,51
 431 652 431 652 442.5 657 c 128,-1,52
 454 662 454 662 458.5 664 c 128,-1,53
 463 666 463 666 477 674 c 128,-1,54
 491 682 491 682 492 682 c 2,55,-1
 519 657 l 1,56,57
 436 556 436 556 401 556 c 0,35,36
EndSplineSet
EndChar

StartChar: ograve
Encoding: 242 242 179
Width: 608
GlyphClass: 2
Flags: W
LayerCount: 2
Fore
SplineSet
110.5 49 m 128,-1,1
 44 117 44 117 44 228 c 128,-1,2
 44 339 44 339 121 418.5 c 128,-1,3
 198 498 198 498 317.5 498 c 128,-1,4
 437 498 437 498 500.5 431.5 c 128,-1,5
 564 365 564 365 564 253 c 128,-1,6
 564 141 564 141 487 61 c 128,-1,7
 410 -19 410 -19 293.5 -19 c 128,-1,0
 177 -19 177 -19 110.5 49 c 128,-1,1
420 228 m 0,8,9
 420 325 420 325 392 379.5 c 128,-1,10
 364 434 364 434 294 434 c 0,11,12
 249 434 249 434 224 412 c 1,13,14
 208 389 208 389 198 343 c 128,-1,15
 188 297 188 297 188 254 c 0,16,17
 188 45 188 45 321 45 c 0,18,19
 361 45 361 45 386 66 c 1,20,21
 403 89 403 89 411.5 136.5 c 128,-1,22
 420 184 420 184 420 228 c 0,8,9
390 544 m 1,23,-1
 353 505 l 1,24,25
 240 561 240 561 131 657 c 1,26,27
 168 710 168 710 231 732 c 1,28,29
 291 629 291 629 390 544 c 1,23,-1
EndSplineSet
EndChar

StartChar: oacute
Encoding: 243 243 180
Width: 608
GlyphClass: 2
Flags: W
LayerCount: 2
Fore
SplineSet
110.5 49 m 128,-1,1
 44 117 44 117 44 228 c 128,-1,2
 44 339 44 339 121 418.5 c 128,-1,3
 198 498 198 498 317.5 498 c 128,-1,4
 437 498 437 498 500.5 431.5 c 128,-1,5
 564 365 564 365 564 253 c 128,-1,6
 564 141 564 141 487 61 c 128,-1,7
 410 -19 410 -19 293.5 -19 c 128,-1,0
 177 -19 177 -19 110.5 49 c 128,-1,1
420 228 m 0,8,9
 420 325 420 325 392 379.5 c 128,-1,10
 364 434 364 434 294 434 c 0,11,12
 249 434 249 434 224 412 c 1,13,14
 208 389 208 389 198 343 c 128,-1,15
 188 297 188 297 188 254 c 0,16,17
 188 45 188 45 321 45 c 0,18,19
 361 45 361 45 386 66 c 1,20,21
 403 89 403 89 411.5 136.5 c 128,-1,22
 420 184 420 184 420 228 c 0,8,9
476 658 m 1,23,24
 367 562 367 562 254 506 c 1,25,-1
 217 545 l 1,26,27
 317 630 317 630 377 732 c 1,28,29
 440 710 440 710 476 658 c 1,23,24
EndSplineSet
EndChar

StartChar: ocircumflex
Encoding: 244 244 181
Width: 608
GlyphClass: 2
Flags: W
LayerCount: 2
Fore
SplineSet
110.5 49 m 128,-1,1
 44 117 44 117 44 228 c 128,-1,2
 44 339 44 339 121 418.5 c 128,-1,3
 198 498 198 498 317.5 498 c 128,-1,4
 437 498 437 498 500.5 431.5 c 128,-1,5
 564 365 564 365 564 253 c 128,-1,6
 564 141 564 141 487 61 c 128,-1,7
 410 -19 410 -19 293.5 -19 c 128,-1,0
 177 -19 177 -19 110.5 49 c 128,-1,1
420 228 m 0,8,9
 420 325 420 325 392 379.5 c 128,-1,10
 364 434 364 434 294 434 c 0,11,12
 249 434 249 434 224 412 c 1,13,14
 208 389 208 389 198 343 c 128,-1,15
 188 297 188 297 188 254 c 0,16,17
 188 45 188 45 321 45 c 0,18,19
 361 45 361 45 386 66 c 1,20,21
 403 89 403 89 411.5 136.5 c 128,-1,22
 420 184 420 184 420 228 c 0,8,9
261 703 m 1,23,-1
 341 703 l 1,24,25
 367 650 367 650 416 605 c 0,26,27
 433 589 433 589 466 561 c 1,28,-1
 424 516 l 1,29,30
 351 560 351 560 298 619 c 1,31,32
 252 572 252 572 184 521 c 1,33,-1
 141 565 l 1,34,35
 228 641 228 641 261 703 c 1,23,-1
EndSplineSet
EndChar

StartChar: otilde
Encoding: 245 245 182
Width: 608
GlyphClass: 2
Flags: W
LayerCount: 2
Fore
SplineSet
110.5 49 m 128,-1,1
 44 117 44 117 44 228 c 128,-1,2
 44 339 44 339 121 418.5 c 128,-1,3
 198 498 198 498 317.5 498 c 128,-1,4
 437 498 437 498 500.5 431.5 c 128,-1,5
 564 365 564 365 564 253 c 128,-1,6
 564 141 564 141 487 61 c 128,-1,7
 410 -19 410 -19 293.5 -19 c 128,-1,0
 177 -19 177 -19 110.5 49 c 128,-1,1
420 228 m 0,8,9
 420 325 420 325 392 379.5 c 128,-1,10
 364 434 364 434 294 434 c 0,11,12
 249 434 249 434 224 412 c 1,13,14
 208 389 208 389 198 343 c 128,-1,15
 188 297 188 297 188 254 c 0,16,17
 188 45 188 45 321 45 c 0,18,19
 361 45 361 45 386 66 c 1,20,21
 403 89 403 89 411.5 136.5 c 128,-1,22
 420 184 420 184 420 228 c 0,8,9
385 556 m 0,23,24
 361 556 361 556 301.5 580 c 128,-1,25
 242 604 242 604 225.5 604 c 128,-1,26
 209 604 209 604 200.5 602 c 128,-1,27
 192 600 192 600 186.5 598 c 128,-1,28
 181 596 181 596 171.5 591 c 128,-1,29
 162 586 162 586 159 584 c 128,-1,30
 156 582 156 582 145.5 575.5 c 128,-1,31
 135 569 135 569 134 568 c 1,32,-1
 105 593 l 1,33,34
 131 624 131 624 168.5 658 c 128,-1,35
 206 692 206 692 229 692 c 128,-1,36
 252 692 252 692 309.5 670.5 c 128,-1,37
 367 649 367 649 382 649 c 128,-1,38
 397 649 397 649 406 650.5 c 128,-1,39
 415 652 415 652 426.5 657 c 128,-1,40
 438 662 438 662 442.5 664 c 128,-1,41
 447 666 447 666 461 674 c 128,-1,42
 475 682 475 682 476 682 c 2,43,-1
 503 657 l 1,44,45
 420 556 420 556 385 556 c 0,23,24
EndSplineSet
EndChar

StartChar: odieresis
Encoding: 246 246 183
Width: 608
GlyphClass: 2
Flags: W
LayerCount: 2
Fore
SplineSet
110.5 49 m 128,-1,1
 44 117 44 117 44 228 c 128,-1,2
 44 339 44 339 121 418.5 c 128,-1,3
 198 498 198 498 317.5 498 c 128,-1,4
 437 498 437 498 500.5 431.5 c 128,-1,5
 564 365 564 365 564 253 c 128,-1,6
 564 141 564 141 487 61 c 128,-1,7
 410 -19 410 -19 293.5 -19 c 128,-1,0
 177 -19 177 -19 110.5 49 c 128,-1,1
420 228 m 0,8,9
 420 325 420 325 392 379.5 c 128,-1,10
 364 434 364 434 294 434 c 0,11,12
 249 434 249 434 224 412 c 1,13,14
 208 389 208 389 198 343 c 128,-1,15
 188 297 188 297 188 254 c 0,16,17
 188 45 188 45 321 45 c 0,18,19
 361 45 361 45 386 66 c 1,20,21
 403 89 403 89 411.5 136.5 c 128,-1,22
 420 184 420 184 420 228 c 0,8,9
257 676 m 1,23,24
 264 668 264 668 267.5 642 c 128,-1,25
 271 616 271 616 271 602 c 128,-1,26
 271 588 271 588 270 579 c 1,27,-1
 258 568 l 1,28,29
 212 556 212 556 167 553 c 1,30,-1
 151 553 l 1,31,-1
 136 558 l 1,32,33
 114 597 114 597 114 656 c 1,34,-1
 129 667 l 1,35,36
 179 680 179 680 223 682 c 1,37,-1
 245 682 l 1,38,-1
 257 676 l 1,23,24
471 687 m 1,39,40
 478 679 478 679 481.5 653 c 128,-1,41
 485 627 485 627 485 613 c 128,-1,42
 485 599 485 599 484 590 c 1,43,-1
 472 579 l 1,44,45
 426 567 426 567 381 564 c 1,46,-1
 365 564 l 1,47,-1
 350 569 l 1,48,49
 328 608 328 608 328 667 c 1,50,-1
 343 678 l 1,51,52
 393 691 393 691 437 693 c 1,53,-1
 459 693 l 1,54,-1
 471 687 l 1,39,40
EndSplineSet
EndChar

StartChar: divide
Encoding: 247 247 184
Width: 573
GlyphClass: 2
Flags: W
LayerCount: 2
Fore
SplineSet
215 438 m 128,-1,1
 215 463 215 463 234 479.5 c 128,-1,2
 253 496 253 496 281.5 496 c 128,-1,3
 310 496 310 496 329 479.5 c 128,-1,4
 348 463 348 463 348 438 c 128,-1,5
 348 413 348 413 329 397 c 128,-1,6
 310 381 310 381 281 381 c 128,-1,7
 252 381 252 381 233.5 397 c 128,-1,0
 215 413 215 413 215 438 c 128,-1,1
234 122.5 m 128,-1,9
 215 139 215 139 215 163.5 c 128,-1,10
 215 188 215 188 234 204.5 c 128,-1,11
 253 221 253 221 281.5 221 c 128,-1,12
 310 221 310 221 329 204.5 c 128,-1,13
 348 188 348 188 348 163.5 c 128,-1,14
 348 139 348 139 328.5 122.5 c 128,-1,15
 309 106 309 106 281 106 c 128,-1,8
 253 106 253 106 234 122.5 c 128,-1,9
563 344 m 1,16,-1
 561 257 l 1,17,-1
 10 257 l 1,18,-1
 11 345 l 1,19,-1
 563 344 l 1,16,-1
EndSplineSet
EndChar

StartChar: oslash
Encoding: 248 248 185
Width: 594
GlyphClass: 2
Flags: W
LayerCount: 2
Fore
SplineSet
551 250 m 0,0,1
 551 141 551 141 474 61 c 128,-1,2
 397 -19 397 -19 283 -19 c 0,3,4
 233 -19 233 -19 189 -5 c 1,5,6
 163 -57 163 -57 155 -76 c 1,7,-1
 48 -94 l 1,8,-1
 50 -73 l 1,9,10
 74 -42 74 -42 120 29 c 1,11,12
 31 97 31 97 31 230 c 0,13,14
 31 339 31 339 108 418.5 c 128,-1,15
 185 498 185 498 299 498 c 0,16,17
 343 498 343 498 379 489 c 1,18,19
 393 515 393 515 412 559 c 1,20,-1
 505 567 l 1,21,-1
 503 545 l 1,22,23
 481 515 481 515 449 462 c 1,24,25
 551 400 551 400 551 250 c 0,0,1
373 66 m 1,26,27
 407 112 407 112 407 248 c 0,28,29
 407 311 407 311 388 359 c 1,30,31
 361 313 361 313 229 72 c 1,32,33
 261 45 261 45 304.5 45 c 128,-1,34
 348 45 348 45 373 66 c 1,26,27
185 343 m 128,-1,36
 175 297 175 297 175 243 c 128,-1,37
 175 189 175 189 188 143 c 1,38,39
 238 229 238 229 336 409 c 1,40,-1
 341 419 l 1,41,42
 314 434 314 434 275 434 c 128,-1,43
 236 434 236 434 211 412 c 1,44,35
 195 389 195 389 185 343 c 128,-1,36
EndSplineSet
EndChar

StartChar: ugrave
Encoding: 249 249 186
Width: 640
GlyphClass: 2
Flags: W
LayerCount: 2
Fore
SplineSet
534 188 m 2,0,1
 534 143 534 143 548.5 100 c 128,-1,2
 563 57 563 57 583 40 c 1,3,-1
 586 18 l 1,4,-1
 429 -22 l 1,5,6
 408 14 408 14 405 59 c 1,7,8
 319 -13 319 -13 258 -13 c 0,9,10
 156 -13 156 -13 120.5 30.5 c 128,-1,11
 85 74 85 74 85 172 c 2,12,-1
 85 291 l 2,13,14
 85 390 85 390 55 458 c 1,15,-1
 55 480 l 1,16,-1
 229 480 l 1,17,-1
 229 456 l 1,18,19
 214 404 214 404 214 321 c 2,20,21
 214 321 214 321 214 188 c 0,22,23
 214 138 214 138 231 110.5 c 128,-1,24
 248 83 248 83 279 83 c 0,25,26
 332 83 332 83 405 134 c 1,27,-1
 405 291 l 2,28,29
 405 392 405 392 376 458 c 1,30,-1
 376 480 l 1,31,-1
 549 480 l 1,32,-1
 549 456 l 1,33,34
 534 404 534 404 534 321 c 2,35,-1
 534 188 l 2,0,1
406 544 m 1,36,-1
 369 505 l 1,37,38
 256 561 256 561 147 657 c 1,39,40
 184 710 184 710 247 732 c 1,41,42
 307 629 307 629 406 544 c 1,36,-1
EndSplineSet
EndChar

StartChar: uacute
Encoding: 250 250 187
Width: 640
GlyphClass: 2
Flags: W
LayerCount: 2
Fore
SplineSet
534 188 m 2,0,1
 534 143 534 143 548.5 100 c 128,-1,2
 563 57 563 57 583 40 c 1,3,-1
 586 18 l 1,4,-1
 429 -22 l 1,5,6
 408 14 408 14 405 59 c 1,7,8
 319 -13 319 -13 258 -13 c 0,9,10
 156 -13 156 -13 120.5 30.5 c 128,-1,11
 85 74 85 74 85 172 c 2,12,-1
 85 291 l 2,13,14
 85 390 85 390 55 458 c 1,15,-1
 55 480 l 1,16,-1
 229 480 l 1,17,-1
 229 456 l 1,18,19
 214 404 214 404 214 321 c 2,20,21
 214 321 214 321 214 188 c 0,22,23
 214 138 214 138 231 110.5 c 128,-1,24
 248 83 248 83 279 83 c 0,25,26
 332 83 332 83 405 134 c 1,27,-1
 405 291 l 2,28,29
 405 392 405 392 376 458 c 1,30,-1
 376 480 l 1,31,-1
 549 480 l 1,32,-1
 549 456 l 1,33,34
 534 404 534 404 534 321 c 2,35,-1
 534 188 l 2,0,1
492 658 m 1,36,37
 383 562 383 562 270 506 c 1,38,-1
 233 545 l 1,39,40
 333 630 333 630 393 732 c 1,41,42
 456 710 456 710 492 658 c 1,36,37
EndSplineSet
EndChar

StartChar: ucircumflex
Encoding: 251 251 188
Width: 640
GlyphClass: 2
Flags: W
LayerCount: 2
Fore
SplineSet
534 188 m 2,0,1
 534 143 534 143 548.5 100 c 128,-1,2
 563 57 563 57 583 40 c 1,3,-1
 586 18 l 1,4,-1
 429 -22 l 1,5,6
 408 14 408 14 405 59 c 1,7,8
 319 -13 319 -13 258 -13 c 0,9,10
 156 -13 156 -13 120.5 30.5 c 128,-1,11
 85 74 85 74 85 172 c 2,12,-1
 85 291 l 2,13,14
 85 390 85 390 55 458 c 1,15,-1
 55 480 l 1,16,-1
 229 480 l 1,17,-1
 229 456 l 1,18,19
 214 404 214 404 214 321 c 2,20,21
 214 321 214 321 214 188 c 0,22,23
 214 138 214 138 231 110.5 c 128,-1,24
 248 83 248 83 279 83 c 0,25,26
 332 83 332 83 405 134 c 1,27,-1
 405 291 l 2,28,29
 405 392 405 392 376 458 c 1,30,-1
 376 480 l 1,31,-1
 549 480 l 1,32,-1
 549 456 l 1,33,34
 534 404 534 404 534 321 c 2,35,-1
 534 188 l 2,0,1
279 703 m 1,36,-1
 359 703 l 1,37,38
 385 650 385 650 434 605 c 0,39,40
 451 589 451 589 484 561 c 1,41,-1
 442 516 l 1,42,43
 369 560 369 560 316 619 c 1,44,45
 270 572 270 572 202 521 c 1,46,-1
 159 565 l 1,47,48
 246 641 246 641 279 703 c 1,36,-1
EndSplineSet
EndChar

StartChar: udieresis
Encoding: 252 252 189
Width: 640
GlyphClass: 2
Flags: W
LayerCount: 2
Fore
SplineSet
534 188 m 2,0,1
 534 143 534 143 548.5 100 c 128,-1,2
 563 57 563 57 583 40 c 1,3,-1
 586 18 l 1,4,-1
 429 -22 l 1,5,6
 408 14 408 14 405 59 c 1,7,8
 319 -13 319 -13 258 -13 c 0,9,10
 156 -13 156 -13 120.5 30.5 c 128,-1,11
 85 74 85 74 85 172 c 2,12,-1
 85 291 l 2,13,14
 85 390 85 390 55 458 c 1,15,-1
 55 480 l 1,16,-1
 229 480 l 1,17,-1
 229 456 l 1,18,19
 214 404 214 404 214 321 c 2,20,21
 214 321 214 321 214 188 c 0,22,23
 214 138 214 138 231 110.5 c 128,-1,24
 248 83 248 83 279 83 c 0,25,26
 332 83 332 83 405 134 c 1,27,-1
 405 291 l 2,28,29
 405 392 405 392 376 458 c 1,30,-1
 376 480 l 1,31,-1
 549 480 l 1,32,-1
 549 456 l 1,33,34
 534 404 534 404 534 321 c 2,35,-1
 534 188 l 2,0,1
258 676 m 1,36,37
 265 668 265 668 268.5 642 c 128,-1,38
 272 616 272 616 272 602 c 128,-1,39
 272 588 272 588 271 579 c 1,40,-1
 259 568 l 1,41,42
 213 556 213 556 168 553 c 1,43,-1
 152 553 l 1,44,-1
 137 558 l 1,45,46
 115 597 115 597 115 656 c 1,47,-1
 130 667 l 1,48,49
 180 680 180 680 224 682 c 1,50,-1
 246 682 l 1,51,-1
 258 676 l 1,36,37
472 687 m 1,52,53
 479 679 479 679 482.5 653 c 128,-1,54
 486 627 486 627 486 613 c 128,-1,55
 486 599 486 599 485 590 c 1,56,-1
 473 579 l 1,57,58
 427 567 427 567 382 564 c 1,59,-1
 366 564 l 1,60,-1
 351 569 l 1,61,62
 329 608 329 608 329 667 c 1,63,-1
 344 678 l 1,64,65
 394 691 394 691 438 693 c 1,66,-1
 460 693 l 1,67,-1
 472 687 l 1,52,53
EndSplineSet
EndChar

StartChar: yacute
Encoding: 253 253 190
Width: 503
GlyphClass: 2
Flags: W
LayerCount: 2
Fore
SplineSet
166 479 m 2,0,1
 166 431 166 431 201 338 c 2,2,-1
 279 129 l 1,3,4
 363 388 363 388 363 436 c 2,5,-1
 363 438 l 2,6,7
 363 453 363 453 358 464 c 1,8,-1
 358 486 l 1,9,-1
 503 486 l 1,10,-1
 503 464 l 1,11,12
 490 450 490 450 462.5 376 c 128,-1,13
 435 302 435 302 343.5 41.5 c 128,-1,14
 252 -219 252 -219 249 -228 c 1,15,-1
 249 -246 l 1,16,-1
 87 -255 l 1,17,-1
 84 -233 l 1,18,19
 112 -199 112 -199 130 -174 c 0,20,21
 179 -105 179 -105 216 -9 c 1,22,-1
 73 320 l 2,23,24
 24 434 24 434 -7 460 c 1,25,-1
 -7 482 l 1,26,-1
 166 493 l 1,27,-1
 166 479 l 2,0,1
420 658 m 1,28,29
 311 562 311 562 198 506 c 1,30,-1
 161 545 l 1,31,32
 261 630 261 630 321 732 c 1,33,34
 384 710 384 710 420 658 c 1,28,29
EndSplineSet
EndChar

StartChar: thorn
Encoding: 254 254 191
Width: 637
GlyphClass: 2
Flags: W
LayerCount: 2
Fore
SplineSet
226 636 m 2,0,-1
 226 434 l 1,1,2
 293 501 293 501 366 501 c 0,3,4
 467 501 467 501 529.5 434 c 128,-1,5
 592 367 592 367 592 271 c 0,6,7
 592 152 592 152 508 68 c 128,-1,8
 424 -16 424 -16 317 -16 c 0,9,10
 279 -16 279 -16 233 -8 c 1,11,-1
 233 -55 l 2,12,13
 233 -168 233 -168 276 -217 c 1,14,-1
 276 -239 l 1,15,-1
 96 -257 l 1,16,17
 101 -208 101 -208 101 -100 c 2,18,-1
 99 572 l 2,19,20
 99 648 99 648 50 690 c 1,21,-1
 50 714 l 1,22,-1
 215 741 l 1,23,-1
 229 719 l 1,24,25
 226 689 226 689 226 636 c 2,0,-1
356 61 m 0,26,27
 380 61 380 61 400 66 c 1,28,29
 424 96 424 96 436 151.5 c 128,-1,30
 448 207 448 207 448 252 c 0,31,32
 448 410 448 410 365 410 c 0,33,34
 305 410 305 410 233 365 c 1,35,-1
 233 92 l 1,36,37
 298 61 298 61 356 61 c 0,26,27
EndSplineSet
EndChar

StartChar: ydieresis
Encoding: 255 255 192
Width: 542
GlyphClass: 2
Flags: W
LayerCount: 2
Fore
SplineSet
175 479 m 2,0,1
 175 431 175 431 210 338 c 2,2,-1
 288 129 l 1,3,4
 372 388 372 388 372 436 c 2,5,-1
 372 438 l 2,6,7
 372 453 372 453 367 464 c 1,8,-1
 367 486 l 1,9,-1
 512 486 l 1,10,-1
 512 464 l 1,11,12
 499 450 499 450 471.5 376 c 128,-1,13
 444 302 444 302 352.5 41.5 c 128,-1,14
 261 -219 261 -219 258 -228 c 1,15,-1
 258 -246 l 1,16,-1
 96 -255 l 1,17,-1
 93 -233 l 1,18,19
 121 -199 121 -199 138 -174 c 0,20,21
 188 -105 188 -105 225 -9 c 1,22,-1
 82 320 l 2,23,24
 33 434 33 434 2 460 c 1,25,-1
 2 482 l 1,26,-1
 175 493 l 1,27,-1
 175 479 l 2,0,1
222 676 m 1,28,29
 229 668 229 668 232.5 642 c 128,-1,30
 236 616 236 616 236 602 c 128,-1,31
 236 588 236 588 235 579 c 1,32,-1
 223 568 l 1,33,34
 177 556 177 556 132 553 c 1,35,-1
 116 553 l 1,36,-1
 101 558 l 1,37,38
 79 597 79 597 79 656 c 1,39,-1
 94 667 l 1,40,41
 144 680 144 680 188 682 c 1,42,-1
 210 682 l 1,43,-1
 222 676 l 1,28,29
436 687 m 1,44,45
 443 679 443 679 446.5 653 c 128,-1,46
 450 627 450 627 450 613 c 128,-1,47
 450 599 450 599 449 590 c 1,48,-1
 437 579 l 1,49,50
 391 567 391 567 346 564 c 1,51,-1
 330 564 l 1,52,-1
 315 569 l 1,53,54
 293 608 293 608 293 667 c 1,55,-1
 308 678 l 1,56,57
 358 691 358 691 402 693 c 1,58,-1
 424 693 l 1,59,-1
 436 687 l 1,44,45
EndSplineSet
EndChar

StartChar: hbar
Encoding: 295 295 193
Width: 647
GlyphClass: 2
Flags: W
LayerCount: 2
Fore
SplineSet
14 618 m 1,0,-1
 203 616 l 2,1,2
 212 616 212 616 246 617 c 0,3,4
 348 620 348 620 391 620 c 1,5,-1
 354 534 l 1,6,-1
 340 534 l 2,7,8
 337 534 337 534 312 536 c 0,9,10
 237 540 237 540 124 540 c 1,11,-1
 -37 534 l 1,12,-1
 0 618 l 1,13,-1
 14 618 l 1,0,-1
224 188 m 2,14,15
 224 75 224 75 249 22 c 1,16,-1
 249 0 l 1,17,-1
 78 0 l 1,18,-1
 78 22 l 1,19,20
 95 77 95 77 95 167 c 2,21,-1
 95 560 l 2,22,23
 95 646 95 646 50 689 c 1,24,-1
 50 711 l 1,25,-1
 215 746 l 1,26,-1
 227 724 l 1,27,28
 224 696 224 696 224 528 c 2,29,-1
 224 418 l 1,30,31
 276 459 276 459 314 479 c 128,-1,32
 352 499 352 499 396 499 c 0,33,34
 476 499 476 499 519 452.5 c 128,-1,35
 562 406 562 406 562 318 c 2,36,-1
 562 191 l 2,37,38
 562 92 562 92 592 22 c 1,39,-1
 592 0 l 1,40,-1
 416 0 l 1,41,-1
 416 22 l 1,42,43
 433 69 433 69 433 157 c 2,44,-1
 433 282 l 2,45,46
 433 341 433 341 417.5 368 c 128,-1,47
 402 395 402 395 351.5 395 c 128,-1,48
 301 395 301 395 224 353 c 1,49,-1
 224 188 l 2,14,15
EndSplineSet
EndChar

StartChar: Itilde
Encoding: 296 296 194
Width: 404
GlyphClass: 2
Flags: W
LayerCount: 2
Fore
SplineSet
273 469 m 2,0,-1
 273 230 l 2,1,2
 273 82 273 82 289 22 c 1,3,-1
 289 0 l 1,4,-1
 115 0 l 1,5,-1
 115 22 l 1,6,7
 131 82 131 82 131 230 c 2,8,-1
 131 479 l 2,9,10
 131 618 131 618 115 678 c 1,11,-1
 115 700 l 1,12,-1
 289 700 l 1,13,-1
 289 678 l 1,14,15
 282 655 282 655 277.5 581.5 c 128,-1,16
 273 508 273 508 273 469 c 2,0,-1
283 773 m 0,17,18
 259 773 259 773 199.5 797 c 128,-1,19
 140 821 140 821 123.5 821 c 128,-1,20
 107 821 107 821 98.5 819 c 128,-1,21
 90 817 90 817 84.5 815 c 128,-1,22
 79 813 79 813 69.5 808 c 128,-1,23
 60 803 60 803 57 801 c 128,-1,24
 54 799 54 799 43.5 792.5 c 128,-1,25
 33 786 33 786 32 785 c 1,26,-1
 3 810 l 1,27,28
 29 841 29 841 66.5 875 c 128,-1,29
 104 909 104 909 127 909 c 128,-1,30
 150 909 150 909 207.5 887.5 c 128,-1,31
 265 866 265 866 280 866 c 128,-1,32
 295 866 295 866 304 867.5 c 128,-1,33
 313 869 313 869 324.5 874 c 128,-1,34
 336 879 336 879 340.5 881 c 128,-1,35
 345 883 345 883 359 891 c 128,-1,36
 373 899 373 899 374 899 c 2,37,-1
 401 874 l 1,38,39
 318 773 318 773 283 773 c 0,17,18
EndSplineSet
EndChar

StartChar: itilde
Encoding: 297 297 195
Width: 494
GlyphClass: 2
Flags: W
LayerCount: 2
Fore
SplineSet
326 179 m 2,0,1
 326 84 326 84 355 22 c 1,2,-1
 355 0 l 1,3,-1
 177 0 l 1,4,-1
 177 22 l 1,5,6
 194 73 194 73 194 157 c 2,7,-1
 194 305 l 2,8,9
 194 360 194 360 177 396.5 c 128,-1,10
 160 433 160 433 134 447 c 1,11,-1
 134 469 l 1,12,-1
 320 503 l 1,13,-1
 332 483 l 1,14,15
 326 460 326 460 326 393 c 2,16,-1
 326 179 l 2,0,1
327 556 m 0,17,18
 303 556 303 556 243.5 580 c 128,-1,19
 184 604 184 604 167.5 604 c 128,-1,20
 151 604 151 604 142.5 602 c 128,-1,21
 134 600 134 600 128.5 598 c 128,-1,22
 123 596 123 596 113.5 591 c 128,-1,23
 104 586 104 586 101 584 c 128,-1,24
 98 582 98 582 87.5 575.5 c 128,-1,25
 77 569 77 569 76 568 c 1,26,-1
 47 593 l 1,27,28
 73 624 73 624 110.5 658 c 128,-1,29
 148 692 148 692 171 692 c 128,-1,30
 194 692 194 692 251.5 670.5 c 128,-1,31
 309 649 309 649 324 649 c 128,-1,32
 339 649 339 649 348 650.5 c 128,-1,33
 357 652 357 652 368.5 657 c 128,-1,34
 380 662 380 662 384.5 664 c 128,-1,35
 389 666 389 666 403 674 c 128,-1,36
 417 682 417 682 418 682 c 2,37,-1
 445 657 l 1,38,39
 362 556 362 556 327 556 c 0,17,18
EndSplineSet
EndChar

StartChar: dotlessi
Encoding: 305 305 196
Width: 317
GlyphClass: 2
Flags: W
LayerCount: 2
Fore
SplineSet
239 393 m 2,0,-1
 239 179 l 2,1,2
 239 84 239 84 268 22 c 1,3,-1
 268 0 l 1,4,-1
 90 0 l 1,5,-1
 90 22 l 1,6,7
 107 73 107 73 107 157 c 2,8,-1
 107 305 l 2,9,10
 107 360 107 360 90 396.5 c 128,-1,11
 73 433 73 433 47 447 c 1,12,-1
 47 469 l 1,13,-1
 233 503 l 1,14,-1
 245 483 l 1,15,16
 239 460 239 460 239 393 c 2,0,-1
EndSplineSet
EndChar

StartChar: IJ
Encoding: 306 306 197
Width: 810
GlyphClass: 2
Flags: W
LayerCount: 2
Fore
SplineSet
273 469 m 2,0,-1
 273 230 l 2,1,2
 273 82 273 82 289 22 c 1,3,-1
 289 0 l 1,4,-1
 115 0 l 1,5,-1
 115 22 l 1,6,7
 131 82 131 82 131 230 c 2,8,-1
 131 479 l 2,9,10
 131 618 131 618 115 678 c 1,11,-1
 115 700 l 1,12,-1
 289 700 l 1,13,-1
 289 678 l 1,14,15
 282 655 282 655 277.5 581.5 c 128,-1,16
 273 508 273 508 273 469 c 2,0,-1
544 203 m 2,17,-1
 544 479 l 2,18,19
 544 626 544 626 526 678 c 1,20,-1
 526 700 l 1,21,-1
 702 700 l 1,22,-1
 702 678 l 1,23,24
 695 655 695 655 690.5 581.5 c 128,-1,25
 686 508 686 508 686 469 c 2,26,-1
 686 161 l 2,27,28
 686 63 686 63 672 20.5 c 128,-1,29
 658 -22 658 -22 650.5 -44.5 c 128,-1,30
 643 -67 643 -67 623.5 -91.5 c 128,-1,31
 604 -116 604 -116 595 -128 c 128,-1,32
 586 -140 586 -140 559 -162 c 128,-1,33
 532 -184 532 -184 524 -190 c 2,34,-1
 444 -248 l 1,35,-1
 391 -200 l 1,36,37
 414 -184 414 -184 447 -157 c 0,38,39
 507 -106 507 -106 525.5 -34 c 128,-1,40
 544 38 544 38 544 203 c 2,17,-1
EndSplineSet
EndChar

StartChar: ij
Encoding: 307 307 198
Width: 603
GlyphClass: 2
Flags: W
LayerCount: 2
Fore
SplineSet
220 717 m 1,0,1
 229 709 229 709 232.5 683 c 128,-1,2
 236 657 236 657 236 643 c 128,-1,3
 236 629 236 629 234 618 c 1,4,-1
 225 610 l 1,5,6
 181 597 181 597 110 592 c 1,7,-1
 99 597 l 1,8,9
 91 610 91 610 86.5 640 c 128,-1,10
 82 670 82 670 82 681.5 c 128,-1,11
 82 693 82 693 82 697 c 1,12,-1
 91 705 l 1,13,14
 145 723 145 723 198 723 c 2,15,-1
 209 723 l 1,16,-1
 220 717 l 1,0,1
239 393 m 2,17,-1
 239 179 l 2,18,19
 239 84 239 84 268 22 c 1,20,-1
 268 0 l 1,21,-1
 93 0 l 1,22,-1
 93 22 l 1,23,24
 110 73 110 73 110 157 c 2,25,-1
 110 305 l 2,26,27
 110 360 110 360 93 396.5 c 128,-1,28
 76 433 76 433 50 447 c 1,29,-1
 50 469 l 1,30,-1
 233 503 l 1,31,-1
 245 483 l 1,32,33
 239 460 239 460 239 393 c 2,17,-1
537 384 m 2,34,-1
 537 114 l 2,35,36
 537 -43 537 -43 480 -122 c 0,37,38
 458 -151 458 -151 445 -164 c 0,39,40
 431 -178 431 -178 353 -250 c 1,41,-1
 305 -203 l 1,42,43
 334 -179 334 -179 346 -164 c 1,44,45
 379 -127 379 -127 393.5 -60 c 128,-1,46
 408 7 408 7 408 152 c 2,47,-1
 408 302 l 2,48,49
 408 357 408 357 387.5 396 c 128,-1,50
 367 435 367 435 341 447 c 1,51,-1
 341 469 l 1,52,-1
 531 503 l 1,53,-1
 543 483 l 1,54,55
 537 456 537 456 537 384 c 2,34,-1
519 717 m 1,56,57
 528 709 528 709 531.5 683 c 128,-1,58
 535 657 535 657 535 643 c 128,-1,59
 535 629 535 629 533 618 c 1,60,-1
 524 610 l 1,61,62
 480 597 480 597 409 592 c 1,63,-1
 398 597 l 1,64,65
 390 610 390 610 385.5 640 c 128,-1,66
 381 670 381 670 381 681.5 c 128,-1,67
 381 693 381 693 381 697 c 1,68,-1
 390 705 l 1,69,70
 444 723 444 723 497 723 c 2,71,-1
 508 723 l 1,72,-1
 519 717 l 1,56,57
EndSplineSet
EndChar

StartChar: Jcircumflex
Encoding: 308 308 199
Width: 406
GlyphClass: 2
Flags: W
LayerCount: 2
Fore
SplineSet
140 203 m 2,0,-1
 140 479 l 2,1,2
 140 626 140 626 122 678 c 1,3,-1
 122 700 l 1,4,-1
 298 700 l 1,5,-1
 298 678 l 1,6,7
 291 655 291 655 286.5 581.5 c 128,-1,8
 282 508 282 508 282 469 c 2,9,-1
 282 161 l 2,10,11
 282 63 282 63 268 20.5 c 128,-1,12
 254 -22 254 -22 246.5 -44.5 c 128,-1,13
 239 -67 239 -67 219.5 -91.5 c 128,-1,14
 200 -116 200 -116 191 -128 c 128,-1,15
 182 -140 182 -140 155 -162 c 128,-1,16
 128 -184 128 -184 120 -190 c 2,17,-1
 40 -248 l 1,18,-1
 -13 -200 l 1,19,20
 10 -184 10 -184 43 -157 c 0,21,22
 103 -106 103 -106 121.5 -34 c 128,-1,23
 140 38 140 38 140 203 c 2,0,-1
160 920 m 1,24,-1
 240 920 l 1,25,26
 266 867 266 867 314 822 c 0,27,28
 332 806 332 806 365 778 c 1,29,-1
 323 733 l 1,30,31
 250 777 250 777 197 836 c 1,32,33
 151 789 151 789 83 738 c 1,34,-1
 40 782 l 1,35,36
 127 858 127 858 160 920 c 1,24,-1
EndSplineSet
EndChar

StartChar: jcircumflex
Encoding: 309 309 200
Width: 277
GlyphClass: 2
Flags: W
LayerCount: 2
Fore
SplineSet
211 114 m 2,0,1
 211 11 211 11 185 -64 c 0,2,3
 175 -92 175 -92 153.5 -121.5 c 128,-1,4
 132 -151 132 -151 118 -165.5 c 128,-1,5
 104 -180 104 -180 27 -250 c 1,6,-1
 -21 -203 l 1,7,8
 8 -179 8 -179 20 -164 c 1,9,10
 53 -127 53 -127 67.5 -60 c 128,-1,11
 82 7 82 7 82 152 c 2,12,-1
 82 302 l 2,13,14
 82 357 82 357 61.5 396 c 128,-1,15
 41 435 41 435 15 447 c 1,16,-1
 15 469 l 1,17,-1
 205 503 l 1,18,-1
 217 483 l 1,19,20
 211 456 211 456 211 384 c 2,21,-1
 211 114 l 2,0,1
77 703 m 1,22,-1
 157 703 l 1,23,24
 183 650 183 650 232 605 c 0,25,26
 249 589 249 589 282 561 c 1,27,-1
 240 516 l 1,28,29
 167 560 167 560 114 619 c 1,30,31
 68 572 68 572 0 521 c 1,32,-1
 -43 565 l 1,33,34
 44 641 44 641 77 703 c 1,22,-1
EndSplineSet
EndChar

StartChar: kcommaaccent
Encoding: 311 311 201
Width: 583
GlyphClass: 2
Flags: W
LayerCount: 2
Fore
SplineSet
374 -30 m 1,0,1
 384 -56 384 -56 384 -91 c 128,-1,2
 384 -126 384 -126 360 -161 c 128,-1,3
 336 -196 336 -196 291 -236 c 1,4,-1
 248 -218 l 1,5,6
 269 -177 269 -177 274.5 -156 c 128,-1,7
 280 -135 280 -135 280 -104 c 128,-1,8
 280 -73 280 -73 263 -43 c 1,9,10
 265 -37 265 -37 270 -34 c 1,11,12
 284 -29 284 -29 312 -25.5 c 128,-1,13
 340 -22 340 -22 350 -22 c 128,-1,14
 360 -22 360 -22 364 -23 c 1,15,-1
 374 -30 l 1,0,1
241 0 m 1,16,-1
 79 0 l 1,17,-1
 79 22 l 1,18,19
 95 71 95 71 95 167 c 2,20,-1
 95 560 l 2,21,22
 95 646 95 646 50 689 c 1,23,-1
 50 711 l 1,24,-1
 215 746 l 1,25,-1
 227 724 l 1,26,27
 224 696 224 696 224 529 c 2,28,-1
 224 335 l 1,29,-1
 374 449 l 2,30,31
 397 467 397 467 397 486 c 1,32,-1
 554 486 l 1,33,-1
 554 464 l 1,34,35
 516 459 516 459 449 405 c 2,36,-1
 308 292 l 1,37,-1
 488 99 l 2,38,39
 504 82 504 82 539.5 54.5 c 128,-1,40
 575 27 575 27 598 22 c 1,41,-1
 598 0 l 1,42,-1
 408 0 l 1,43,44
 408 19 408 19 388 40 c 1,45,46
 361 73 361 73 224 224 c 1,47,-1
 224 179 l 2,48,49
 224 70 224 70 241 22 c 1,50,-1
 241 0 l 1,16,-1
EndSplineSet
EndChar

StartChar: kgreenlandic
Encoding: 312 312 202
Width: 600
GlyphClass: 2
Flags: W
LayerCount: 2
Fore
SplineSet
241 189 m 2,0,1
 241 84 241 84 270 22 c 1,2,-1
 270 0 l 1,3,-1
 92 0 l 1,4,-1
 92 22 l 1,5,6
 109 73 109 73 109 164 c 2,7,-1
 109 298 l 2,8,9
 109 417 109 417 49 447 c 1,10,-1
 49 469 l 1,11,-1
 213 500 l 1,12,-1
 224 481 l 1,13,14
 241 447 241 447 241 395 c 2,15,-1
 241 335 l 1,16,-1
 391 449 l 2,17,18
 414 467 414 467 414 486 c 1,19,-1
 568 486 l 1,20,-1
 568 456 l 1,21,22
 530 451 530 451 463 397 c 2,23,-1
 317 282 l 1,24,-1
 507 92 l 2,25,26
 566 33 566 33 615 14 c 1,27,-1
 615 0 l 1,28,-1
 426 0 l 1,29,30
 426 13 426 13 386 58 c 1,31,32
 328 120 328 120 241 218 c 1,33,-1
 241 189 l 2,0,1
EndSplineSet
EndChar

StartChar: Ldotaccent
Encoding: 319 319 203
Width: 584
GlyphClass: 2
Flags: W
LayerCount: 2
Fore
SplineSet
108 0 m 1,0,-1
 108 22 l 1,1,2
 124 91 124 91 124 220 c 2,3,-1
 124 479 l 2,4,5
 124 618 124 618 108 678 c 1,6,-1
 108 700 l 1,7,-1
 282 700 l 1,8,-1
 282 678 l 1,9,10
 275 655 275 655 270.5 584 c 128,-1,11
 266 513 266 513 266 476 c 2,12,-1
 266 209 l 2,13,14
 266 136 266 136 272 76 c 1,15,16
 291 74 291 74 351 74 c 0,17,18
 509 74 509 74 585 106 c 1,19,-1
 604 106 l 1,20,-1
 586 0 l 1,21,-1
 108 0 l 1,0,-1
488 328 m 0,22,23
 494 328 494 328 499 328 c 1,24,-1
 511 321 l 1,25,26
 521 311 521 311 525 281 c 128,-1,27
 529 251 529 251 529 234.5 c 128,-1,28
 529 218 529 218 527 206 c 1,29,-1
 517 197 l 1,30,31
 472 184 472 184 383 176 c 1,32,-1
 371 182 l 1,33,34
 362 197 362 197 356.5 232 c 128,-1,35
 351 267 351 267 351 280.5 c 128,-1,36
 351 294 351 294 351 298 c 1,37,-1
 361 307 l 1,38,39
 425 328 425 328 488 328 c 0,22,23
EndSplineSet
EndChar

StartChar: ldot
Encoding: 320 320 204
Width: 619
GlyphClass: 2
Flags: W
LayerCount: 2
Fore
SplineSet
227 724 m 1,0,1
 223 676 223 676 223 610 c 128,-1,2
 223 544 223 544 224 529 c 1,3,-1
 224 167 l 2,4,5
 224 74 224 74 240 22 c 1,6,-1
 241 0 l 1,7,-1
 79 0 l 1,8,-1
 79 22 l 1,9,10
 95 74 95 74 95 167 c 2,11,-1
 95 560 l 2,12,13
 95 646 95 646 50 689 c 1,14,-1
 50 711 l 1,15,-1
 215 746 l 1,16,-1
 227 724 l 1,0,1
506 350 m 0,17,18
 511 350 511 350 517 350 c 1,19,-1
 529 343 l 1,20,21
 539 334 539 334 543 302.5 c 128,-1,22
 547 271 547 271 547 254 c 128,-1,23
 547 237 547 237 545 225 c 1,24,-1
 535 216 l 1,25,26
 491 203 491 203 398 195 c 1,27,-1
 386 201 l 1,28,29
 377 216 377 216 371.5 252 c 128,-1,30
 366 288 366 288 366 302 c 128,-1,31
 366 316 366 316 366 320 c 1,32,-1
 376 329 l 1,33,34
 440 350 440 350 506 350 c 0,17,18
EndSplineSet
EndChar

StartChar: Lslash
Encoding: 321 321 205
Width: 582
GlyphClass: 2
Flags: W
LayerCount: 2
Fore
SplineSet
0 257 m 1,0,-1
 5 342 l 1,1,2
 183 399 183 399 385 483 c 1,3,-1
 381 400 l 1,4,5
 316 379 316 379 181 327 c 1,6,7
 60 284 60 284 0 257 c 1,0,-1
106 0 m 1,8,-1
 106 22 l 1,9,10
 122 91 122 91 122 220 c 2,11,-1
 122 479 l 2,12,13
 122 618 122 618 106 678 c 1,14,-1
 106 700 l 1,15,-1
 280 700 l 1,16,-1
 280 678 l 1,17,18
 273 655 273 655 268.5 584 c 128,-1,19
 264 513 264 513 264 476 c 2,20,-1
 264 209 l 2,21,22
 264 136 264 136 270 76 c 1,23,24
 289 74 289 74 349 74 c 0,25,26
 507 74 507 74 583 106 c 1,27,-1
 602 106 l 1,28,-1
 584 0 l 1,29,-1
 106 0 l 1,8,-1
EndSplineSet
EndChar

StartChar: lslash
Encoding: 322 322 206
Width: 331
GlyphClass: 2
Flags: W
LayerCount: 2
Fore
SplineSet
2 294 m 1,0,-1
 7 371 l 1,1,2
 82 396 82 396 191.5 438 c 128,-1,3
 301 480 301 480 329 490 c 1,4,-1
 325 414 l 1,5,6
 237 387 237 387 2 294 c 1,0,-1
236 724 m 1,7,8
 232 676 232 676 232 610 c 128,-1,9
 232 544 232 544 233 529 c 1,10,-1
 233 167 l 2,11,12
 233 74 233 74 249 22 c 1,13,-1
 250 0 l 1,14,-1
 88 0 l 1,15,-1
 88 22 l 1,16,17
 104 74 104 74 104 167 c 2,18,-1
 104 560 l 2,19,20
 104 646 104 646 59 689 c 1,21,-1
 59 711 l 1,22,-1
 224 746 l 1,23,-1
 236 724 l 1,7,8
EndSplineSet
EndChar

StartChar: Nacute
Encoding: 323 323 207
Width: 778
GlyphClass: 2
Flags: W
LayerCount: 2
Fore
SplineSet
206 0 m 1,0,-1
 69 0 l 1,1,-1
 69 22 l 1,2,3
 85 82 85 82 85 249 c 2,4,-1
 85 452 l 2,5,6
 85 601 85 601 72 677 c 1,7,-1
 72 699 l 1,8,-1
 230 710 l 1,9,-1
 582 216 l 1,10,-1
 582 479 l 2,11,12
 582 530 582 530 575 591.5 c 128,-1,13
 568 653 568 653 559 678 c 1,14,-1
 559 700 l 1,15,-1
 700 700 l 1,16,-1
 700 678 l 1,17,18
 694 653 694 653 689 580.5 c 128,-1,19
 684 508 684 508 684 451 c 2,20,-1
 684 213 l 2,21,22
 684 155 684 155 690 86 c 128,-1,23
 696 17 696 17 700 2 c 1,24,-1
 569 -11 l 1,25,-1
 187 524 l 1,26,-1
 187 220 l 2,27,28
 187 94 187 94 206 22 c 1,29,-1
 206 0 l 1,0,-1
518 875 m 1,30,31
 409 779 409 779 296 723 c 1,32,-1
 259 762 l 1,33,34
 359 847 359 847 419 949 c 1,35,36
 482 927 482 927 518 875 c 1,30,31
EndSplineSet
EndChar

StartChar: nacute
Encoding: 324 324 208
Width: 646
GlyphClass: 2
Flags: W
LayerCount: 2
Fore
SplineSet
112 298 m 2,0,1
 112 417 112 417 52 447 c 1,2,-1
 52 469 l 1,3,-1
 214 500 l 1,4,-1
 225 481 l 1,5,6
 233 457 233 457 236 417 c 1,7,8
 287 458 287 458 324.5 478.5 c 128,-1,9
 362 499 362 499 404 499 c 0,10,11
 479 499 479 499 520 452.5 c 128,-1,12
 561 406 561 406 561 318 c 2,13,-1
 561 191 l 2,14,15
 561 92 561 92 591 22 c 1,16,-1
 591 0 l 1,17,-1
 415 0 l 1,18,-1
 415 22 l 1,19,20
 432 69 432 69 432 157 c 2,21,-1
 432 282 l 2,22,23
 432 340 432 340 418 367.5 c 128,-1,24
 404 395 404 395 358 395 c 128,-1,25
 312 395 312 395 241 353 c 1,26,-1
 241 189 l 2,27,28
 241 84 241 84 270 22 c 1,29,-1
 270 0 l 1,30,-1
 95 0 l 1,31,-1
 95 22 l 1,32,33
 112 73 112 73 112 164 c 2,34,-1
 112 298 l 2,0,1
493 658 m 1,35,36
 384 562 384 562 271 506 c 1,37,-1
 234 545 l 1,38,39
 334 630 334 630 394 732 c 1,40,41
 457 710 457 710 493 658 c 1,35,36
EndSplineSet
EndChar

StartChar: OE
Encoding: 338 338 209
Width: 1151
GlyphClass: 2
Flags: W
LayerCount: 2
Fore
SplineSet
1033 615 m 1,0,1
 969 629 969 629 881 629 c 128,-1,2
 793 629 793 629 781 628 c 1,3,4
 779 582 779 582 779 402 c 1,5,-1
 1035 406 l 1,6,-1
 1014 324 l 1,7,-1
 992 324 l 1,8,9
 918 332 918 332 868.5 332 c 128,-1,10
 819 332 819 332 779 330 c 1,11,-1
 779 277 l 2,12,13
 779 109 779 109 783 76 c 1,14,15
 803 74 803 74 854 74 c 0,16,17
 1016 74 1016 74 1093 106 c 1,18,-1
 1123 106 l 1,19,-1
 1101 0 l 1,20,-1
 618 0 l 1,21,-1
 618 15 l 1,22,23
 623 29 623 29 628 64 c 1,24,25
 527 -11 527 -11 401 -11 c 0,26,27
 239 -11 239 -11 144 89 c 128,-1,28
 49 189 49 189 49 345 c 128,-1,29
 49 501 49 501 156 607.5 c 128,-1,30
 263 714 263 714 431 714 c 0,31,32
 545 714 545 714 628 653 c 1,33,34
 625 674 625 674 622 686 c 1,35,-1
 622 700 l 1,36,-1
 1089 703 l 1,37,-1
 1057 615 l 1,38,-1
 1033 615 l 1,0,1
608 201 m 128,-1,40
 625 266 625 266 625 332 c 128,-1,41
 625 398 625 398 614.5 448 c 128,-1,42
 604 498 604 498 579 540 c 0,43,44
 527 627 527 627 395 627 c 0,45,46
 362 627 362 627 324.5 619 c 128,-1,47
 287 611 287 611 267 600 c 1,48,49
 238 566 238 566 219.5 501.5 c 128,-1,50
 201 437 201 437 201 371 c 0,51,52
 201 73 201 73 444 73 c 0,53,54
 510 73 510 73 561 104 c 1,55,-1
 558 103 l 1,56,39
 591 136 591 136 608 201 c 128,-1,40
EndSplineSet
EndChar

StartChar: oe
Encoding: 339 339 210
Width: 940
GlyphClass: 2
Flags: W
LayerCount: 2
Fore
SplineSet
776.5 7.5 m 128,-1,1
 720 -19 720 -19 670 -19 c 128,-1,2
 620 -19 620 -19 573 3.5 c 128,-1,3
 526 26 526 26 493 68 c 1,4,5
 414 -19 414 -19 295.5 -19 c 128,-1,6
 177 -19 177 -19 110.5 49 c 128,-1,7
 44 117 44 117 44 228 c 128,-1,8
 44 339 44 339 121 418.5 c 128,-1,9
 198 498 198 498 312 498 c 0,10,11
 451 498 451 498 516 414 c 1,12,13
 591 499 591 499 706 499 c 0,14,15
 804 499 804 499 852 436 c 128,-1,16
 900 373 900 373 900 262 c 1,17,-1
 862 223 l 1,18,-1
 588 223 l 1,19,20
 589 151 589 151 626.5 112 c 128,-1,21
 664 73 664 73 716.5 73 c 128,-1,22
 769 73 769 73 875 128 c 1,23,-1
 900 90 l 1,24,25
 881 72 881 72 857 53 c 128,-1,0
 833 34 833 34 776.5 7.5 c 128,-1,1
420 228 m 0,26,27
 420 325 420 325 392 379.5 c 128,-1,28
 364 434 364 434 294 434 c 0,29,30
 249 434 249 434 224 412 c 1,31,32
 208 389 208 389 198 343 c 128,-1,33
 188 297 188 297 188 254 c 0,34,35
 188 45 188 45 321 45 c 0,36,37
 361 45 361 45 386 66 c 1,38,39
 403 89 403 89 411.5 136.5 c 128,-1,40
 420 184 420 184 420 228 c 0,26,27
683 435 m 0,41,42
 646 435 646 435 624 420 c 1,43,44
 608 395 608 395 599 354 c 128,-1,45
 590 313 590 313 589 281 c 1,46,-1
 764 291 l 1,47,48
 764 435 764 435 683 435 c 0,41,42
EndSplineSet
EndChar

StartChar: Racute
Encoding: 340 340 211
Width: 707
GlyphClass: 2
Flags: W
LayerCount: 2
Fore
SplineSet
209 698 m 2,0,-1
 352 700 l 1,1,2
 481 700 481 700 551.5 661 c 128,-1,3
 622 622 622 622 622 529.5 c 128,-1,4
 622 437 622 437 565 381 c 128,-1,5
 508 325 508 325 413 316 c 1,6,-1
 527 183 l 2,7,8
 600 98 600 98 639.5 66 c 128,-1,9
 679 34 679 34 711 24 c 1,10,-1
 711 0 l 1,11,-1
 536 0 l 1,12,13
 522 21 522 21 467 91 c 1,14,-1
 287 310 l 1,15,16
 275 310 275 310 270 311 c 1,17,-1
 270 172 l 2,18,19
 270 74 270 74 286 22 c 1,20,-1
 286 0 l 1,21,-1
 108 0 l 1,22,-1
 108 22 l 1,23,24
 128 74 128 74 128 162 c 2,25,-1
 128 521 l 2,26,27
 128 621 128 621 111 678 c 1,28,-1
 111 700 l 1,29,30
 139 698 139 698 209 698 c 2,0,-1
443.5 608.5 m 128,-1,32
 413 635 413 635 348.5 635 c 128,-1,33
 284 635 284 635 272 634 c 1,34,35
 270 604 270 604 270 374 c 1,36,37
 293 371 293 371 327 371 c 0,38,39
 407 371 407 371 440.5 406.5 c 128,-1,40
 474 442 474 442 474 512 c 128,-1,31
 474 582 474 582 443.5 608.5 c 128,-1,32
483 875 m 1,41,42
 374 779 374 779 261 723 c 1,43,-1
 224 762 l 1,44,45
 324 847 324 847 384 949 c 1,46,47
 447 927 447 927 483 875 c 1,41,42
EndSplineSet
EndChar

StartChar: Rcommaaccent
Encoding: 342 342 212
Width: 707
GlyphClass: 2
Flags: W
LayerCount: 2
Fore
SplineSet
434 -30 m 1,0,1
 444 -56 444 -56 444 -91 c 128,-1,2
 444 -126 444 -126 420 -161 c 128,-1,3
 396 -196 396 -196 351 -236 c 1,4,-1
 308 -218 l 1,5,6
 329 -177 329 -177 334.5 -156 c 128,-1,7
 340 -135 340 -135 340 -104 c 128,-1,8
 340 -73 340 -73 323 -43 c 1,9,10
 325 -37 325 -37 330 -34 c 1,11,12
 344 -29 344 -29 372 -25.5 c 128,-1,13
 400 -22 400 -22 410 -22 c 128,-1,14
 420 -22 420 -22 424 -23 c 1,15,-1
 434 -30 l 1,0,1
209 698 m 2,16,-1
 352 700 l 1,17,18
 481 700 481 700 551.5 661 c 128,-1,19
 622 622 622 622 622 529.5 c 128,-1,20
 622 437 622 437 565 381 c 128,-1,21
 508 325 508 325 413 316 c 1,22,-1
 527 183 l 2,23,24
 600 98 600 98 639.5 66 c 128,-1,25
 679 34 679 34 711 24 c 1,26,-1
 711 0 l 1,27,-1
 536 0 l 1,28,29
 522 21 522 21 467 91 c 1,30,-1
 287 310 l 1,31,32
 275 310 275 310 270 311 c 1,33,-1
 270 172 l 2,34,35
 270 74 270 74 286 22 c 1,36,-1
 286 0 l 1,37,-1
 108 0 l 1,38,-1
 108 22 l 1,39,40
 128 74 128 74 128 162 c 2,41,-1
 128 521 l 2,42,43
 128 621 128 621 111 678 c 1,44,-1
 111 700 l 1,45,46
 139 698 139 698 209 698 c 2,16,-1
443.5 608.5 m 128,-1,48
 413 635 413 635 348.5 635 c 128,-1,49
 284 635 284 635 272 634 c 1,50,51
 270 604 270 604 270 374 c 1,52,53
 293 371 293 371 327 371 c 0,54,55
 407 371 407 371 440.5 406.5 c 128,-1,56
 474 442 474 442 474 512 c 128,-1,47
 474 582 474 582 443.5 608.5 c 128,-1,48
EndSplineSet
EndChar

StartChar: rcommaaccent
Encoding: 343 343 213
Width: 412
GlyphClass: 2
Flags: W
LayerCount: 2
Fore
SplineSet
229 -30 m 1,0,1
 239 -56 239 -56 239 -91 c 128,-1,2
 239 -126 239 -126 215 -161 c 128,-1,3
 191 -196 191 -196 146 -236 c 1,4,-1
 103 -218 l 1,5,6
 124 -177 124 -177 129.5 -156 c 128,-1,7
 135 -135 135 -135 135 -104 c 128,-1,8
 135 -73 135 -73 118 -43 c 1,9,10
 120 -37 120 -37 125 -34 c 1,11,12
 139 -29 139 -29 167 -25.5 c 128,-1,13
 195 -22 195 -22 205 -22 c 128,-1,14
 215 -22 215 -22 219 -23 c 1,15,-1
 229 -30 l 1,0,1
263 0 m 1,16,-1
 88 0 l 1,17,-1
 88 22 l 1,18,19
 105 76 105 76 105 156 c 2,20,-1
 105 305 l 2,21,22
 105 349 105 349 88.5 390.5 c 128,-1,23
 72 432 72 432 49 445 c 1,24,-1
 49 467 l 1,25,-1
 190 500 l 1,26,-1
 200 486 l 2,27,28
 206 477 206 477 218 445 c 1,29,30
 283 499 283 499 354 499 c 0,31,32
 389 499 389 499 419 485 c 1,33,34
 419 480 419 480 419 476 c 0,35,36
 419 413 419 413 394 350 c 1,37,38
 341 387 341 387 280 387 c 0,39,40
 261 387 261 387 234 381 c 1,41,-1
 234 184 l 2,42,43
 234 88 234 88 263 22 c 1,44,-1
 263 0 l 1,16,-1
EndSplineSet
EndChar

StartChar: Rcaron
Encoding: 344 344 214
Width: 707
GlyphClass: 2
Flags: W
LayerCount: 2
Fore
SplineSet
209 698 m 2,0,-1
 352 700 l 1,1,2
 481 700 481 700 551.5 661 c 128,-1,3
 622 622 622 622 622 529.5 c 128,-1,4
 622 437 622 437 565 381 c 128,-1,5
 508 325 508 325 413 316 c 1,6,-1
 527 183 l 2,7,8
 600 98 600 98 639.5 66 c 128,-1,9
 679 34 679 34 711 24 c 1,10,-1
 711 0 l 1,11,-1
 536 0 l 1,12,13
 522 21 522 21 467 91 c 1,14,-1
 287 310 l 1,15,16
 275 310 275 310 270 311 c 1,17,-1
 270 172 l 2,18,19
 270 74 270 74 286 22 c 1,20,-1
 286 0 l 1,21,-1
 108 0 l 1,22,-1
 108 22 l 1,23,24
 128 74 128 74 128 162 c 2,25,-1
 128 521 l 2,26,27
 128 621 128 621 111 678 c 1,28,-1
 111 700 l 1,29,30
 139 698 139 698 209 698 c 2,0,-1
443.5 608.5 m 128,-1,32
 413 635 413 635 348.5 635 c 128,-1,33
 284 635 284 635 272 634 c 1,34,35
 270 604 270 604 270 374 c 1,36,37
 293 371 293 371 327 371 c 0,38,39
 407 371 407 371 440.5 406.5 c 128,-1,40
 474 442 474 442 474 512 c 128,-1,31
 474 582 474 582 443.5 608.5 c 128,-1,32
410 743 m 1,41,-1
 310 733 l 1,42,43
 257 823 257 823 187 880 c 1,44,-1
 225 919 l 1,45,46
 259 899 259 899 296 867 c 128,-1,47
 333 835 333 835 351 809 c 1,48,49
 374 839 374 839 409 870.5 c 128,-1,50
 444 902 444 902 476 919 c 1,51,-1
 520 880 l 1,52,53
 460 836 460 836 410 743 c 1,41,-1
EndSplineSet
EndChar

StartChar: rcaron
Encoding: 345 345 215
Width: 416
GlyphClass: 2
Flags: W
LayerCount: 2
Fore
SplineSet
238 184 m 2,0,1
 238 88 238 88 267 22 c 1,2,-1
 267 0 l 1,3,-1
 92 0 l 1,4,-1
 92 22 l 1,5,6
 109 76 109 76 109 156 c 2,7,-1
 109 305 l 2,8,9
 109 349 109 349 92.5 390.5 c 128,-1,10
 76 432 76 432 53 445 c 1,11,-1
 53 467 l 1,12,-1
 194 500 l 1,13,-1
 204 486 l 2,14,15
 210 477 210 477 222 445 c 1,16,17
 287 499 287 499 358 499 c 0,18,19
 393 499 393 499 423 485 c 1,20,21
 423 480 423 480 423 476 c 0,22,23
 423 413 423 413 398 350 c 1,24,25
 345 387 345 387 284 387 c 0,26,27
 265 387 265 387 238 381 c 1,28,-1
 238 184 l 2,0,1
265 526 m 1,29,-1
 165 516 l 1,30,31
 112 606 112 606 42 663 c 1,32,-1
 80 702 l 1,33,34
 114 682 114 682 151 650 c 128,-1,35
 188 618 188 618 206 592 c 1,36,37
 229 622 229 622 264 653.5 c 128,-1,38
 299 685 299 685 331 702 c 1,39,-1
 375 663 l 1,40,41
 315 619 315 619 265 526 c 1,29,-1
EndSplineSet
EndChar

StartChar: dotlessj
Encoding: 567 567 216
Width: 277
GlyphClass: 2
Flags: W
LayerCount: 2
Fore
SplineSet
211 384 m 2,0,-1
 211 114 l 2,1,2
 211 -43 211 -43 154 -122 c 0,3,4
 132 -151 132 -151 119 -164 c 0,5,6
 105 -178 105 -178 27 -250 c 1,7,-1
 -21 -203 l 1,8,9
 8 -179 8 -179 20 -164 c 1,10,11
 53 -127 53 -127 67.5 -60 c 128,-1,12
 82 7 82 7 82 152 c 2,13,-1
 82 302 l 2,14,15
 82 357 82 357 61.5 396 c 128,-1,16
 41 435 41 435 15 447 c 1,17,-1
 15 469 l 1,18,-1
 205 503 l 1,19,-1
 217 483 l 1,20,21
 211 456 211 456 211 384 c 2,0,-1
EndSplineSet
EndChar

StartChar: circumflex
Encoding: 710 710 217
Width: 500
GlyphClass: 2
Flags: W
LayerCount: 2
Fore
SplineSet
207 703 m 1,0,-1
 287 703 l 1,1,2
 313 650 313 650 362 605 c 0,3,4
 379 589 379 589 412 561 c 1,5,-1
 370 516 l 1,6,7
 297 560 297 560 244 619 c 1,8,9
 198 572 198 572 130 521 c 1,10,-1
 87 565 l 1,11,12
 174 641 174 641 207 703 c 1,0,-1
EndSplineSet
EndChar

StartChar: caron
Encoding: 711 711 218
Width: 517
GlyphClass: 2
Flags: W
LayerCount: 2
Fore
SplineSet
315 526 m 1,0,-1
 215 516 l 1,1,2
 162 606 162 606 92 663 c 1,3,-1
 130 702 l 1,4,5
 164 682 164 682 201 650 c 128,-1,6
 238 618 238 618 256 592 c 1,7,8
 279 622 279 622 314 653.5 c 128,-1,9
 349 685 349 685 381 702 c 1,10,-1
 425 663 l 1,11,12
 365 619 365 619 315 526 c 1,0,-1
EndSplineSet
EndChar

StartChar: ring
Encoding: 730 730 219
Width: 524
GlyphClass: 2
Flags: W
LayerCount: 2
Fore
SplineSet
368 638 m 128,-1,1
 368 593 368 593 336 561 c 0,2,3
 304 528 304 528 257.5 528 c 128,-1,4
 211 528 211 528 181.5 558.5 c 128,-1,5
 152 589 152 589 152 634.5 c 128,-1,6
 152 680 152 680 184.5 712 c 128,-1,7
 217 744 217 744 262 744 c 0,8,9
 309 744 309 744 338.5 713.5 c 128,-1,0
 368 683 368 683 368 638 c 128,-1,1
264 594 m 0,10,11
 283 594 283 594 294 601 c 1,12,13
 304 613 304 613 304 633 c 0,14,15
 304 678 304 678 257 678 c 0,16,17
 238 678 238 678 227 671 c 1,18,19
 217 661 217 661 217 643 c 0,20,21
 217 594 217 594 264 594 c 0,10,11
EndSplineSet
EndChar

StartChar: tilde
Encoding: 732 732 220
Width: 527
GlyphClass: 2
Flags: W
LayerCount: 2
Fore
SplineSet
344 556 m 0,0,1
 320 556 320 556 260.5 580 c 128,-1,2
 201 604 201 604 184.5 604 c 128,-1,3
 168 604 168 604 159.5 602 c 128,-1,4
 151 600 151 600 145.5 598 c 128,-1,5
 140 596 140 596 130.5 591 c 128,-1,6
 121 586 121 586 118 584 c 128,-1,7
 115 582 115 582 104.5 575.5 c 128,-1,8
 94 569 94 569 93 568 c 1,9,-1
 64 593 l 1,10,11
 90 624 90 624 127.5 658 c 128,-1,12
 165 692 165 692 188 692 c 128,-1,13
 211 692 211 692 268.5 670.5 c 128,-1,14
 326 649 326 649 341 649 c 128,-1,15
 356 649 356 649 365 650.5 c 128,-1,16
 374 652 374 652 385.5 657 c 128,-1,17
 397 662 397 662 401.5 664 c 128,-1,18
 406 666 406 666 420 674 c 128,-1,19
 434 682 434 682 435 682 c 2,20,-1
 462 657 l 1,21,22
 379 556 379 556 344 556 c 0,0,1
EndSplineSet
EndChar

